<?xml version="1.0" encoding="utf-8" standalone="no"?>
<!DOCTYPE svg PUBLIC "-//W3C//DTD SVG 1.1//EN"
  "http://www.w3.org/Graphics/SVG/1.1/DTD/svg11.dtd">
<svg xmlns:xlink="http://www.w3.org/1999/xlink" width="720pt" height="432pt" viewBox="0 0 720 432" xmlns="http://www.w3.org/2000/svg" version="1.1">
 <metadata>
  <rdf:RDF xmlns:dc="http://purl.org/dc/elements/1.1/" xmlns:cc="http://creativecommons.org/ns#" xmlns:rdf="http://www.w3.org/1999/02/22-rdf-syntax-ns#">
   <cc:Work>
    <dc:type rdf:resource="http://purl.org/dc/dcmitype/StillImage"/>
    <dc:date>2024-01-09T11:23:17.248584</dc:date>
    <dc:format>image/svg+xml</dc:format>
    <dc:creator>
     <cc:Agent>
      <dc:title>Matplotlib v3.8.1, https://matplotlib.org/</dc:title>
     </cc:Agent>
    </dc:creator>
   </cc:Work>
  </rdf:RDF>
 </metadata>
 <defs>
  <style type="text/css">*{stroke-linejoin: round; stroke-linecap: butt}</style>
 </defs>
 <g id="figure_1">
  <g id="patch_1">
   <path d="M 0 432 
L 720 432 
L 720 0 
L 0 0 
z
" style="fill: #ffffff"/>
  </g>
  <g id="axes_1">
   <g id="patch_2">
    <path d="M 90 384.48 
L 648 384.48 
L 648 51.84 
L 90 51.84 
z
" style="fill: #ffffff"/>
   </g>
   <g id="PolyCollection_1">
    <path d="M 261.604423 214.259426 
L 261.604423 348.422618 
L 263.889435 357.729507 
L 266.174447 358.297732 
L 268.459459 364.170512 
L 270.744472 362.566812 
L 273.029484 332.878111 
L 275.314496 297.463896 
L 277.599509 313.313063 
L 279.884521 311.358436 
L 282.169533 304.660759 
L 284.454545 232.01509 
L 286.739558 261.755046 
L 289.02457 292.90862 
L 291.309582 270.79133 
L 293.594595 292.009343 
L 295.879607 282.3918 
L 298.164619 298.817524 
L 300.449631 251.576363 
L 302.734644 267.612379 
L 305.019656 317.40055 
L 307.304668 328.121011 
L 309.589681 325.317569 
L 311.874693 342.294925 
L 314.159705 320.612423 
L 316.444717 324.316034 
L 318.72973 319.192485 
L 321.014742 321.80252 
L 323.299754 326.794616 
L 325.584767 319.19513 
L 327.869779 343.792171 
L 330.154791 341.013738 
L 332.439803 320.955407 
L 334.724816 345.113908 
L 337.009828 364.309422 
L 339.29484 349.569462 
L 341.579853 348.515562 
L 343.864865 338.231964 
L 346.149877 346.395421 
L 348.434889 337.069288 
L 350.719902 332.830234 
L 353.004914 312.545641 
L 355.289926 321.244055 
L 357.574939 341.701418 
L 359.859951 356.241562 
L 362.144963 369.36 
L 364.429975 351.536669 
L 366.714988 324.892955 
L 369 321.121732 
L 371.285012 317.466991 
L 373.570025 319.490632 
L 375.855037 348.900177 
L 378.140049 344.90833 
L 378.140049 165.65227 
L 378.140049 165.65227 
L 375.855037 169.122744 
L 373.570025 141.015013 
L 371.285012 138.446456 
L 369 141.565207 
L 366.714988 144.797086 
L 364.429975 172.570915 
L 362.144963 190.566726 
L 359.859951 177.280027 
L 357.574939 162.659715 
L 355.289926 142.590934 
L 353.004914 133.494582 
L 350.719902 154.195353 
L 348.434889 157.87784 
L 346.149877 166.805692 
L 343.864865 158.207628 
L 341.579853 168.129701 
L 339.29484 168.568264 
L 337.009828 183.21837 
L 334.724816 164.298643 
L 332.439803 140.927898 
L 330.154791 161.395711 
L 327.869779 163.553891 
L 325.584767 139.818051 
L 323.299754 146.913598 
L 321.014742 141.343639 
L 318.72973 138.098622 
L 316.444717 142.618688 
L 314.159705 138.285953 
L 311.874693 160.573744 
L 309.589681 143.683642 
L 307.304668 145.816813 
L 305.019656 134.724334 
L 302.734644 90.372452 
L 300.449631 74.377888 
L 298.164619 128.394688 
L 295.879607 112.101003 
L 293.594595 121.311471 
L 291.309582 100.740485 
L 289.02457 123.741536 
L 286.739558 94.73732 
L 284.454545 66.96 
L 282.169533 164.225646 
L 279.884521 170.500928 
L 277.599509 171.875645 
L 275.314496 156.383062 
L 273.029484 196.969719 
L 270.744472 230.194127 
L 268.459459 231.230941 
L 266.174447 224.934397 
L 263.889435 223.780548 
L 261.604423 214.259426 
z
" clip-path="url(#p03720521d3)" style="fill: #800080; fill-opacity: 0.5"/>
   </g>
   <g id="matplotlib.axis_1">
    <g id="xtick_1">
     <g id="line2d_1">
      <defs>
       <path id="m1ab2e5851a" d="M 0 0 
L 0 3.5 
" style="stroke: #000000; stroke-width: 0.8"/>
      </defs>
      <g>
       <use xlink:href="#m1ab2e5851a" x="95.451386" y="384.48" style="stroke: #000000; stroke-width: 0.8"/>
      </g>
     </g>
     <g id="text_1">
      <!-- 2019 -->
      <g transform="translate(88.404625 414.848774) rotate(-45) scale(0.1 -0.1)">
       <defs>
        <path id="DejaVuSans-32" d="M 1228 531 
L 3431 531 
L 3431 0 
L 469 0 
L 469 531 
Q 828 903 1448 1529 
Q 2069 2156 2228 2338 
Q 2531 2678 2651 2914 
Q 2772 3150 2772 3378 
Q 2772 3750 2511 3984 
Q 2250 4219 1831 4219 
Q 1534 4219 1204 4116 
Q 875 4013 500 3803 
L 500 4441 
Q 881 4594 1212 4672 
Q 1544 4750 1819 4750 
Q 2544 4750 2975 4387 
Q 3406 4025 3406 3419 
Q 3406 3131 3298 2873 
Q 3191 2616 2906 2266 
Q 2828 2175 2409 1742 
Q 1991 1309 1228 531 
z
" transform="scale(0.015625)"/>
        <path id="DejaVuSans-30" d="M 2034 4250 
Q 1547 4250 1301 3770 
Q 1056 3291 1056 2328 
Q 1056 1369 1301 889 
Q 1547 409 2034 409 
Q 2525 409 2770 889 
Q 3016 1369 3016 2328 
Q 3016 3291 2770 3770 
Q 2525 4250 2034 4250 
z
M 2034 4750 
Q 2819 4750 3233 4129 
Q 3647 3509 3647 2328 
Q 3647 1150 3233 529 
Q 2819 -91 2034 -91 
Q 1250 -91 836 529 
Q 422 1150 422 2328 
Q 422 3509 836 4129 
Q 1250 4750 2034 4750 
z
" transform="scale(0.015625)"/>
        <path id="DejaVuSans-31" d="M 794 531 
L 1825 531 
L 1825 4091 
L 703 3866 
L 703 4441 
L 1819 4666 
L 2450 4666 
L 2450 531 
L 3481 531 
L 3481 0 
L 794 0 
L 794 531 
z
" transform="scale(0.015625)"/>
        <path id="DejaVuSans-39" d="M 703 97 
L 703 672 
Q 941 559 1184 500 
Q 1428 441 1663 441 
Q 2288 441 2617 861 
Q 2947 1281 2994 2138 
Q 2813 1869 2534 1725 
Q 2256 1581 1919 1581 
Q 1219 1581 811 2004 
Q 403 2428 403 3163 
Q 403 3881 828 4315 
Q 1253 4750 1959 4750 
Q 2769 4750 3195 4129 
Q 3622 3509 3622 2328 
Q 3622 1225 3098 567 
Q 2575 -91 1691 -91 
Q 1453 -91 1209 -44 
Q 966 3 703 97 
z
M 1959 2075 
Q 2384 2075 2632 2365 
Q 2881 2656 2881 3163 
Q 2881 3666 2632 3958 
Q 2384 4250 1959 4250 
Q 1534 4250 1286 3958 
Q 1038 3666 1038 3163 
Q 1038 2656 1286 2365 
Q 1534 2075 1959 2075 
z
" transform="scale(0.015625)"/>
       </defs>
       <use xlink:href="#DejaVuSans-32"/>
       <use xlink:href="#DejaVuSans-30" x="63.623047"/>
       <use xlink:href="#DejaVuSans-31" x="127.246094"/>
       <use xlink:href="#DejaVuSans-39" x="190.869141"/>
      </g>
     </g>
    </g>
    <g id="xtick_2">
     <g id="line2d_2">
      <g>
       <use xlink:href="#m1ab2e5851a" x="214.598456" y="384.48" style="stroke: #000000; stroke-width: 0.8"/>
      </g>
     </g>
     <g id="text_2">
      <!-- 2020 -->
      <g transform="translate(207.551695 414.848774) rotate(-45) scale(0.1 -0.1)">
       <use xlink:href="#DejaVuSans-32"/>
       <use xlink:href="#DejaVuSans-30" x="63.623047"/>
       <use xlink:href="#DejaVuSans-32" x="127.246094"/>
       <use xlink:href="#DejaVuSans-30" x="190.869141"/>
      </g>
     </g>
    </g>
    <g id="xtick_3">
     <g id="line2d_3">
      <g>
       <use xlink:href="#m1ab2e5851a" x="334.071955" y="384.48" style="stroke: #000000; stroke-width: 0.8"/>
      </g>
     </g>
     <g id="text_3">
      <!-- 2021 -->
      <g transform="translate(327.025194 414.848774) rotate(-45) scale(0.1 -0.1)">
       <use xlink:href="#DejaVuSans-32"/>
       <use xlink:href="#DejaVuSans-30" x="63.623047"/>
       <use xlink:href="#DejaVuSans-32" x="127.246094"/>
       <use xlink:href="#DejaVuSans-31" x="190.869141"/>
      </g>
     </g>
    </g>
    <g id="xtick_4">
     <g id="line2d_4">
      <g>
       <use xlink:href="#m1ab2e5851a" x="453.219024" y="384.48" style="stroke: #000000; stroke-width: 0.8"/>
      </g>
     </g>
     <g id="text_4">
      <!-- 2022 -->
      <g transform="translate(446.172263 414.848774) rotate(-45) scale(0.1 -0.1)">
       <use xlink:href="#DejaVuSans-32"/>
       <use xlink:href="#DejaVuSans-30" x="63.623047"/>
       <use xlink:href="#DejaVuSans-32" x="127.246094"/>
       <use xlink:href="#DejaVuSans-32" x="190.869141"/>
      </g>
     </g>
    </g>
    <g id="xtick_5">
     <g id="line2d_5">
      <g>
       <use xlink:href="#m1ab2e5851a" x="572.366093" y="384.48" style="stroke: #000000; stroke-width: 0.8"/>
      </g>
     </g>
     <g id="text_5">
      <!-- 2023 -->
      <g transform="translate(565.319332 414.848774) rotate(-45) scale(0.1 -0.1)">
       <defs>
        <path id="DejaVuSans-33" d="M 2597 2516 
Q 3050 2419 3304 2112 
Q 3559 1806 3559 1356 
Q 3559 666 3084 287 
Q 2609 -91 1734 -91 
Q 1441 -91 1130 -33 
Q 819 25 488 141 
L 488 750 
Q 750 597 1062 519 
Q 1375 441 1716 441 
Q 2309 441 2620 675 
Q 2931 909 2931 1356 
Q 2931 1769 2642 2001 
Q 2353 2234 1838 2234 
L 1294 2234 
L 1294 2753 
L 1863 2753 
Q 2328 2753 2575 2939 
Q 2822 3125 2822 3475 
Q 2822 3834 2567 4026 
Q 2313 4219 1838 4219 
Q 1578 4219 1281 4162 
Q 984 4106 628 3988 
L 628 4550 
Q 988 4650 1302 4700 
Q 1616 4750 1894 4750 
Q 2613 4750 3031 4423 
Q 3450 4097 3450 3541 
Q 3450 3153 3228 2886 
Q 3006 2619 2597 2516 
z
" transform="scale(0.015625)"/>
       </defs>
       <use xlink:href="#DejaVuSans-32"/>
       <use xlink:href="#DejaVuSans-30" x="63.623047"/>
       <use xlink:href="#DejaVuSans-32" x="127.246094"/>
       <use xlink:href="#DejaVuSans-33" x="190.869141"/>
      </g>
     </g>
    </g>
    <g id="text_6">
     <!-- Date -->
     <g transform="translate(357.049219 427.917773) scale(0.1 -0.1)">
      <defs>
       <path id="DejaVuSans-44" d="M 1259 4147 
L 1259 519 
L 2022 519 
Q 2988 519 3436 956 
Q 3884 1394 3884 2338 
Q 3884 3275 3436 3711 
Q 2988 4147 2022 4147 
L 1259 4147 
z
M 628 4666 
L 1925 4666 
Q 3281 4666 3915 4102 
Q 4550 3538 4550 2338 
Q 4550 1131 3912 565 
Q 3275 0 1925 0 
L 628 0 
L 628 4666 
z
" transform="scale(0.015625)"/>
       <path id="DejaVuSans-61" d="M 2194 1759 
Q 1497 1759 1228 1600 
Q 959 1441 959 1056 
Q 959 750 1161 570 
Q 1363 391 1709 391 
Q 2188 391 2477 730 
Q 2766 1069 2766 1631 
L 2766 1759 
L 2194 1759 
z
M 3341 1997 
L 3341 0 
L 2766 0 
L 2766 531 
Q 2569 213 2275 61 
Q 1981 -91 1556 -91 
Q 1019 -91 701 211 
Q 384 513 384 1019 
Q 384 1609 779 1909 
Q 1175 2209 1959 2209 
L 2766 2209 
L 2766 2266 
Q 2766 2663 2505 2880 
Q 2244 3097 1772 3097 
Q 1472 3097 1187 3025 
Q 903 2953 641 2809 
L 641 3341 
Q 956 3463 1253 3523 
Q 1550 3584 1831 3584 
Q 2591 3584 2966 3190 
Q 3341 2797 3341 1997 
z
" transform="scale(0.015625)"/>
       <path id="DejaVuSans-74" d="M 1172 4494 
L 1172 3500 
L 2356 3500 
L 2356 3053 
L 1172 3053 
L 1172 1153 
Q 1172 725 1289 603 
Q 1406 481 1766 481 
L 2356 481 
L 2356 0 
L 1766 0 
Q 1100 0 847 248 
Q 594 497 594 1153 
L 594 3053 
L 172 3053 
L 172 3500 
L 594 3500 
L 594 4494 
L 1172 4494 
z
" transform="scale(0.015625)"/>
       <path id="DejaVuSans-65" d="M 3597 1894 
L 3597 1613 
L 953 1613 
Q 991 1019 1311 708 
Q 1631 397 2203 397 
Q 2534 397 2845 478 
Q 3156 559 3463 722 
L 3463 178 
Q 3153 47 2828 -22 
Q 2503 -91 2169 -91 
Q 1331 -91 842 396 
Q 353 884 353 1716 
Q 353 2575 817 3079 
Q 1281 3584 2069 3584 
Q 2775 3584 3186 3129 
Q 3597 2675 3597 1894 
z
M 3022 2063 
Q 3016 2534 2758 2815 
Q 2500 3097 2075 3097 
Q 1594 3097 1305 2825 
Q 1016 2553 972 2059 
L 3022 2063 
z
" transform="scale(0.015625)"/>
      </defs>
      <use xlink:href="#DejaVuSans-44"/>
      <use xlink:href="#DejaVuSans-61" x="77.001953"/>
      <use xlink:href="#DejaVuSans-74" x="138.28125"/>
      <use xlink:href="#DejaVuSans-65" x="177.490234"/>
     </g>
    </g>
   </g>
   <g id="matplotlib.axis_2">
    <g id="ytick_1">
     <g id="line2d_6">
      <path d="M 90 370.372255 
L 648 370.372255 
" clip-path="url(#p03720521d3)" style="fill: none; stroke: #b0b0b0; stroke-width: 0.8; stroke-linecap: square"/>
     </g>
     <g id="line2d_7">
      <defs>
       <path id="m36b8c825db" d="M 0 0 
L -3.5 0 
" style="stroke: #000000; stroke-width: 0.8"/>
      </defs>
      <g>
       <use xlink:href="#m36b8c825db" x="90" y="370.372255" style="stroke: #000000; stroke-width: 0.8"/>
      </g>
     </g>
     <g id="text_7">
      <!-- 0 -->
      <g transform="translate(76.6375 374.171474) scale(0.1 -0.1)">
       <use xlink:href="#DejaVuSans-30"/>
      </g>
     </g>
    </g>
    <g id="ytick_2">
     <g id="line2d_8">
      <path d="M 90 312.969784 
L 648 312.969784 
" clip-path="url(#p03720521d3)" style="fill: none; stroke: #b0b0b0; stroke-width: 0.8; stroke-linecap: square"/>
     </g>
     <g id="line2d_9">
      <g>
       <use xlink:href="#m36b8c825db" x="90" y="312.969784" style="stroke: #000000; stroke-width: 0.8"/>
      </g>
     </g>
     <g id="text_8">
      <!-- 1000 -->
      <g transform="translate(57.55 316.769003) scale(0.1 -0.1)">
       <use xlink:href="#DejaVuSans-31"/>
       <use xlink:href="#DejaVuSans-30" x="63.623047"/>
       <use xlink:href="#DejaVuSans-30" x="127.246094"/>
       <use xlink:href="#DejaVuSans-30" x="190.869141"/>
      </g>
     </g>
    </g>
    <g id="ytick_3">
     <g id="line2d_10">
      <path d="M 90 255.567312 
L 648 255.567312 
" clip-path="url(#p03720521d3)" style="fill: none; stroke: #b0b0b0; stroke-width: 0.8; stroke-linecap: square"/>
     </g>
     <g id="line2d_11">
      <g>
       <use xlink:href="#m36b8c825db" x="90" y="255.567312" style="stroke: #000000; stroke-width: 0.8"/>
      </g>
     </g>
     <g id="text_9">
      <!-- 2000 -->
      <g transform="translate(57.55 259.366531) scale(0.1 -0.1)">
       <use xlink:href="#DejaVuSans-32"/>
       <use xlink:href="#DejaVuSans-30" x="63.623047"/>
       <use xlink:href="#DejaVuSans-30" x="127.246094"/>
       <use xlink:href="#DejaVuSans-30" x="190.869141"/>
      </g>
     </g>
    </g>
    <g id="ytick_4">
     <g id="line2d_12">
      <path d="M 90 198.164841 
L 648 198.164841 
" clip-path="url(#p03720521d3)" style="fill: none; stroke: #b0b0b0; stroke-width: 0.8; stroke-linecap: square"/>
     </g>
     <g id="line2d_13">
      <g>
       <use xlink:href="#m36b8c825db" x="90" y="198.164841" style="stroke: #000000; stroke-width: 0.8"/>
      </g>
     </g>
     <g id="text_10">
      <!-- 3000 -->
      <g transform="translate(57.55 201.96406) scale(0.1 -0.1)">
       <use xlink:href="#DejaVuSans-33"/>
       <use xlink:href="#DejaVuSans-30" x="63.623047"/>
       <use xlink:href="#DejaVuSans-30" x="127.246094"/>
       <use xlink:href="#DejaVuSans-30" x="190.869141"/>
      </g>
     </g>
    </g>
    <g id="ytick_5">
     <g id="line2d_14">
      <path d="M 90 140.762369 
L 648 140.762369 
" clip-path="url(#p03720521d3)" style="fill: none; stroke: #b0b0b0; stroke-width: 0.8; stroke-linecap: square"/>
     </g>
     <g id="line2d_15">
      <g>
       <use xlink:href="#m36b8c825db" x="90" y="140.762369" style="stroke: #000000; stroke-width: 0.8"/>
      </g>
     </g>
     <g id="text_11">
      <!-- 4000 -->
      <g transform="translate(57.55 144.561588) scale(0.1 -0.1)">
       <defs>
        <path id="DejaVuSans-34" d="M 2419 4116 
L 825 1625 
L 2419 1625 
L 2419 4116 
z
M 2253 4666 
L 3047 4666 
L 3047 1625 
L 3713 1625 
L 3713 1100 
L 3047 1100 
L 3047 0 
L 2419 0 
L 2419 1100 
L 313 1100 
L 313 1709 
L 2253 4666 
z
" transform="scale(0.015625)"/>
       </defs>
       <use xlink:href="#DejaVuSans-34"/>
       <use xlink:href="#DejaVuSans-30" x="63.623047"/>
       <use xlink:href="#DejaVuSans-30" x="127.246094"/>
       <use xlink:href="#DejaVuSans-30" x="190.869141"/>
      </g>
     </g>
    </g>
    <g id="ytick_6">
     <g id="line2d_16">
      <path d="M 90 83.359898 
L 648 83.359898 
" clip-path="url(#p03720521d3)" style="fill: none; stroke: #b0b0b0; stroke-width: 0.8; stroke-linecap: square"/>
     </g>
     <g id="line2d_17">
      <g>
       <use xlink:href="#m36b8c825db" x="90" y="83.359898" style="stroke: #000000; stroke-width: 0.8"/>
      </g>
     </g>
     <g id="text_12">
      <!-- 5000 -->
      <g transform="translate(57.55 87.159117) scale(0.1 -0.1)">
       <defs>
        <path id="DejaVuSans-35" d="M 691 4666 
L 3169 4666 
L 3169 4134 
L 1269 4134 
L 1269 2991 
Q 1406 3038 1543 3061 
Q 1681 3084 1819 3084 
Q 2600 3084 3056 2656 
Q 3513 2228 3513 1497 
Q 3513 744 3044 326 
Q 2575 -91 1722 -91 
Q 1428 -91 1123 -41 
Q 819 9 494 109 
L 494 744 
Q 775 591 1075 516 
Q 1375 441 1709 441 
Q 2250 441 2565 725 
Q 2881 1009 2881 1497 
Q 2881 1984 2565 2268 
Q 2250 2553 1709 2553 
Q 1456 2553 1204 2497 
Q 953 2441 691 2322 
L 691 4666 
z
" transform="scale(0.015625)"/>
       </defs>
       <use xlink:href="#DejaVuSans-35"/>
       <use xlink:href="#DejaVuSans-30" x="63.623047"/>
       <use xlink:href="#DejaVuSans-30" x="127.246094"/>
       <use xlink:href="#DejaVuSans-30" x="190.869141"/>
      </g>
     </g>
    </g>
    <g id="text_13">
     <!-- Number of Interactions -->
     <g transform="translate(51.470312 275.974844) rotate(-90) scale(0.1 -0.1)">
      <defs>
       <path id="DejaVuSans-4e" d="M 628 4666 
L 1478 4666 
L 3547 763 
L 3547 4666 
L 4159 4666 
L 4159 0 
L 3309 0 
L 1241 3903 
L 1241 0 
L 628 0 
L 628 4666 
z
" transform="scale(0.015625)"/>
       <path id="DejaVuSans-75" d="M 544 1381 
L 544 3500 
L 1119 3500 
L 1119 1403 
Q 1119 906 1312 657 
Q 1506 409 1894 409 
Q 2359 409 2629 706 
Q 2900 1003 2900 1516 
L 2900 3500 
L 3475 3500 
L 3475 0 
L 2900 0 
L 2900 538 
Q 2691 219 2414 64 
Q 2138 -91 1772 -91 
Q 1169 -91 856 284 
Q 544 659 544 1381 
z
M 1991 3584 
L 1991 3584 
z
" transform="scale(0.015625)"/>
       <path id="DejaVuSans-6d" d="M 3328 2828 
Q 3544 3216 3844 3400 
Q 4144 3584 4550 3584 
Q 5097 3584 5394 3201 
Q 5691 2819 5691 2113 
L 5691 0 
L 5113 0 
L 5113 2094 
Q 5113 2597 4934 2840 
Q 4756 3084 4391 3084 
Q 3944 3084 3684 2787 
Q 3425 2491 3425 1978 
L 3425 0 
L 2847 0 
L 2847 2094 
Q 2847 2600 2669 2842 
Q 2491 3084 2119 3084 
Q 1678 3084 1418 2786 
Q 1159 2488 1159 1978 
L 1159 0 
L 581 0 
L 581 3500 
L 1159 3500 
L 1159 2956 
Q 1356 3278 1631 3431 
Q 1906 3584 2284 3584 
Q 2666 3584 2933 3390 
Q 3200 3197 3328 2828 
z
" transform="scale(0.015625)"/>
       <path id="DejaVuSans-62" d="M 3116 1747 
Q 3116 2381 2855 2742 
Q 2594 3103 2138 3103 
Q 1681 3103 1420 2742 
Q 1159 2381 1159 1747 
Q 1159 1113 1420 752 
Q 1681 391 2138 391 
Q 2594 391 2855 752 
Q 3116 1113 3116 1747 
z
M 1159 2969 
Q 1341 3281 1617 3432 
Q 1894 3584 2278 3584 
Q 2916 3584 3314 3078 
Q 3713 2572 3713 1747 
Q 3713 922 3314 415 
Q 2916 -91 2278 -91 
Q 1894 -91 1617 61 
Q 1341 213 1159 525 
L 1159 0 
L 581 0 
L 581 4863 
L 1159 4863 
L 1159 2969 
z
" transform="scale(0.015625)"/>
       <path id="DejaVuSans-72" d="M 2631 2963 
Q 2534 3019 2420 3045 
Q 2306 3072 2169 3072 
Q 1681 3072 1420 2755 
Q 1159 2438 1159 1844 
L 1159 0 
L 581 0 
L 581 3500 
L 1159 3500 
L 1159 2956 
Q 1341 3275 1631 3429 
Q 1922 3584 2338 3584 
Q 2397 3584 2469 3576 
Q 2541 3569 2628 3553 
L 2631 2963 
z
" transform="scale(0.015625)"/>
       <path id="DejaVuSans-20" transform="scale(0.015625)"/>
       <path id="DejaVuSans-6f" d="M 1959 3097 
Q 1497 3097 1228 2736 
Q 959 2375 959 1747 
Q 959 1119 1226 758 
Q 1494 397 1959 397 
Q 2419 397 2687 759 
Q 2956 1122 2956 1747 
Q 2956 2369 2687 2733 
Q 2419 3097 1959 3097 
z
M 1959 3584 
Q 2709 3584 3137 3096 
Q 3566 2609 3566 1747 
Q 3566 888 3137 398 
Q 2709 -91 1959 -91 
Q 1206 -91 779 398 
Q 353 888 353 1747 
Q 353 2609 779 3096 
Q 1206 3584 1959 3584 
z
" transform="scale(0.015625)"/>
       <path id="DejaVuSans-66" d="M 2375 4863 
L 2375 4384 
L 1825 4384 
Q 1516 4384 1395 4259 
Q 1275 4134 1275 3809 
L 1275 3500 
L 2222 3500 
L 2222 3053 
L 1275 3053 
L 1275 0 
L 697 0 
L 697 3053 
L 147 3053 
L 147 3500 
L 697 3500 
L 697 3744 
Q 697 4328 969 4595 
Q 1241 4863 1831 4863 
L 2375 4863 
z
" transform="scale(0.015625)"/>
       <path id="DejaVuSans-49" d="M 628 4666 
L 1259 4666 
L 1259 0 
L 628 0 
L 628 4666 
z
" transform="scale(0.015625)"/>
       <path id="DejaVuSans-6e" d="M 3513 2113 
L 3513 0 
L 2938 0 
L 2938 2094 
Q 2938 2591 2744 2837 
Q 2550 3084 2163 3084 
Q 1697 3084 1428 2787 
Q 1159 2491 1159 1978 
L 1159 0 
L 581 0 
L 581 3500 
L 1159 3500 
L 1159 2956 
Q 1366 3272 1645 3428 
Q 1925 3584 2291 3584 
Q 2894 3584 3203 3211 
Q 3513 2838 3513 2113 
z
" transform="scale(0.015625)"/>
       <path id="DejaVuSans-63" d="M 3122 3366 
L 3122 2828 
Q 2878 2963 2633 3030 
Q 2388 3097 2138 3097 
Q 1578 3097 1268 2742 
Q 959 2388 959 1747 
Q 959 1106 1268 751 
Q 1578 397 2138 397 
Q 2388 397 2633 464 
Q 2878 531 3122 666 
L 3122 134 
Q 2881 22 2623 -34 
Q 2366 -91 2075 -91 
Q 1284 -91 818 406 
Q 353 903 353 1747 
Q 353 2603 823 3093 
Q 1294 3584 2113 3584 
Q 2378 3584 2631 3529 
Q 2884 3475 3122 3366 
z
" transform="scale(0.015625)"/>
       <path id="DejaVuSans-69" d="M 603 3500 
L 1178 3500 
L 1178 0 
L 603 0 
L 603 3500 
z
M 603 4863 
L 1178 4863 
L 1178 4134 
L 603 4134 
L 603 4863 
z
" transform="scale(0.015625)"/>
       <path id="DejaVuSans-73" d="M 2834 3397 
L 2834 2853 
Q 2591 2978 2328 3040 
Q 2066 3103 1784 3103 
Q 1356 3103 1142 2972 
Q 928 2841 928 2578 
Q 928 2378 1081 2264 
Q 1234 2150 1697 2047 
L 1894 2003 
Q 2506 1872 2764 1633 
Q 3022 1394 3022 966 
Q 3022 478 2636 193 
Q 2250 -91 1575 -91 
Q 1294 -91 989 -36 
Q 684 19 347 128 
L 347 722 
Q 666 556 975 473 
Q 1284 391 1588 391 
Q 1994 391 2212 530 
Q 2431 669 2431 922 
Q 2431 1156 2273 1281 
Q 2116 1406 1581 1522 
L 1381 1569 
Q 847 1681 609 1914 
Q 372 2147 372 2553 
Q 372 3047 722 3315 
Q 1072 3584 1716 3584 
Q 2034 3584 2315 3537 
Q 2597 3491 2834 3397 
z
" transform="scale(0.015625)"/>
      </defs>
      <use xlink:href="#DejaVuSans-4e"/>
      <use xlink:href="#DejaVuSans-75" x="74.804688"/>
      <use xlink:href="#DejaVuSans-6d" x="138.183594"/>
      <use xlink:href="#DejaVuSans-62" x="235.595703"/>
      <use xlink:href="#DejaVuSans-65" x="299.072266"/>
      <use xlink:href="#DejaVuSans-72" x="360.595703"/>
      <use xlink:href="#DejaVuSans-20" x="401.708984"/>
      <use xlink:href="#DejaVuSans-6f" x="433.496094"/>
      <use xlink:href="#DejaVuSans-66" x="494.677734"/>
      <use xlink:href="#DejaVuSans-20" x="529.882812"/>
      <use xlink:href="#DejaVuSans-49" x="561.669922"/>
      <use xlink:href="#DejaVuSans-6e" x="591.162109"/>
      <use xlink:href="#DejaVuSans-74" x="654.541016"/>
      <use xlink:href="#DejaVuSans-65" x="693.75"/>
      <use xlink:href="#DejaVuSans-72" x="755.273438"/>
      <use xlink:href="#DejaVuSans-61" x="796.386719"/>
      <use xlink:href="#DejaVuSans-63" x="857.666016"/>
      <use xlink:href="#DejaVuSans-74" x="912.646484"/>
      <use xlink:href="#DejaVuSans-69" x="951.855469"/>
      <use xlink:href="#DejaVuSans-6f" x="979.638672"/>
      <use xlink:href="#DejaVuSans-6e" x="1040.820312"/>
      <use xlink:href="#DejaVuSans-73" x="1104.199219"/>
     </g>
    </g>
   </g>
   <g id="line2d_18">
    <path d="M 115.363636 291.386455 
L 117.648649 287.023867 
L 119.933661 281.111412 
L 122.218673 278.413496 
L 124.503686 281.685437 
L 126.788698 291.27165 
L 129.07371 290.869832 
L 131.358722 298.274751 
L 133.643735 282.603877 
L 135.928747 288.803343 
L 138.213759 281.915047 
L 140.498771 287.884904 
L 142.783784 292.878919 
L 145.068796 283.694523 
L 147.353808 286.105427 
L 149.638821 299.135788 
L 151.923833 303.900193 
L 154.208845 310.214465 
L 156.493857 294.199176 
L 158.77887 279.963363 
L 161.063882 289.434771 
L 163.348894 289.721783 
L 165.633907 303.268766 
L 167.918919 311.0181 
L 170.203931 301.546692 
L 172.488943 293.223334 
L 174.773956 296.265665 
L 177.058968 287.999709 
L 179.34398 293.739956 
L 181.628993 293.969566 
L 183.914005 282.718681 
L 186.199017 286.335037 
L 188.484029 282.890889 
L 190.769042 284.78517 
L 193.054054 269.975333 
L 195.339066 257.059777 
L 197.624079 278.356094 
L 199.909091 266.933002 
L 202.194103 280.537388 
L 204.479115 263.890671 
L 206.764128 279.67635 
L 209.04914 291.386455 
L 211.334152 283.579719 
L 213.619165 315.6677 
L 215.904177 288.860746 
L 218.189189 266.071965 
L 220.474201 287.884904 
L 222.759214 263.431451 
L 225.044226 285.818415 
L 227.329238 263.775866 
L 229.614251 270.14754 
L 231.899263 273.189871 
L 234.184275 281.341022 
L 236.469287 290.755027 
L 238.7543 291.616065 
L 241.039312 297.700727 
L 243.324324 296.38047 
L 245.609337 264.923915 
L 247.894349 226.923479 
L 250.179361 242.594354 
L 252.464373 240.929682 
L 254.749386 234.443203 
L 257.034398 149.487545 
L 261.604423 208.325078 
L 263.889435 185.765907 
L 266.174447 206.660407 
L 268.459459 197.246401 
L 270.744472 213.606106 
L 273.029484 162.977126 
L 275.314496 178.992416 
L 277.599509 226.062442 
L 279.884521 236.968912 
L 282.169533 234.500605 
L 284.454545 251.434335 
L 286.739558 229.449188 
L 289.02457 233.467361 
L 291.309582 228.645553 
L 293.594595 231.573079 
L 295.879607 236.854107 
L 298.164619 229.50659 
L 300.449631 253.673031 
L 302.734644 251.204725 
L 305.019656 230.941652 
L 307.304668 254.706275 
L 309.589681 273.763896 
L 311.874693 259.068863 
L 314.159705 258.322631 
L 316.444717 248.219796 
L 318.72973 256.600557 
L 321.014742 247.473564 
L 323.299754 243.512793 
L 325.584767 223.020111 
L 327.869779 231.917494 
L 330.154791 252.180567 
L 332.439803 266.760794 
L 334.724816 279.963363 
L 337.009828 262.053792 
L 339.29484 234.84502 
L 343.864865 227.956724 
L 346.149877 230.252823 
L 348.434889 259.011461 
L 350.719902 255.2803 
L 353.004914 260.61873 
L 355.289926 264.694305 
L 357.574939 223.249721 
L 359.859951 243.455391 
L 362.144963 232.606324 
L 364.429975 264.751708 
L 366.714988 244.373831 
L 369 232.548921 
L 371.285012 254.763678 
L 373.570025 250.86031 
L 375.855037 254.361861 
L 378.140049 260.331718 
L 380.425061 250.228883 
L 382.710074 227.554906 
L 384.995086 257.461594 
L 387.280098 237.026314 
L 389.565111 264.349891 
L 391.850123 257.576399 
L 394.135135 281.111412 
L 396.420147 256.141337 
L 398.70516 240.585267 
L 400.990172 242.364744 
L 403.275184 279.561546 
L 405.560197 261.250157 
L 407.845209 270.664162 
L 410.130221 272.845456 
L 412.415233 266.531185 
L 414.700246 285.24439 
L 416.985258 267.621831 
L 419.27027 230.769445 
L 421.555283 248.047589 
L 423.840295 262.857426 
L 426.125307 228.817761 
L 428.410319 216.361424 
L 430.695332 211.482214 
L 432.980344 243.972013 
L 435.265356 238.576181 
L 437.550369 268.597673 
L 439.835381 236.911509 
L 442.120393 217.911291 
L 444.405405 235.820862 
L 446.690418 246.440319 
L 448.97543 229.162176 
L 451.260442 278.413496 
L 453.545455 264.062878 
L 455.830467 235.99307 
L 458.115479 210.506372 
L 460.400491 236.452289 
L 462.685504 211.022995 
L 464.970516 220.838817 
L 467.255528 240.068645 
L 469.540541 217.452071 
L 471.825553 209.186116 
L 474.110565 223.192319 
L 476.395577 253.615628 
L 478.68059 234.902423 
L 480.965602 200.805355 
L 483.250614 223.020111 
L 485.535627 263.144439 
L 487.820639 273.649091 
L 490.105651 250.40109 
L 492.390663 266.18677 
L 494.675676 233.008141 
L 499.2457 248.564211 
L 501.530713 249.425248 
L 503.815725 254.419263 
L 506.100737 199.485098 
L 508.385749 235.07463 
L 510.670762 248.392004 
L 512.955774 286.507245 
L 515.240786 243.857208 
L 517.525799 278.700508 
L 519.810811 230.42503 
L 522.095823 288.114514 
L 524.380835 274.223116 
L 526.665848 257.576399 
L 528.95086 260.61873 
L 531.235872 295.117615 
L 533.520885 270.549358 
L 535.805897 198.911073 
L 538.090909 276.576617 
L 540.375921 277.322849 
L 542.660934 272.558444 
L 544.945946 240.240853 
L 547.230958 257.806009 
L 549.515971 273.362079 
L 551.800983 231.056457 
L 554.085995 239.035401 
L 556.371007 222.847904 
L 558.65602 247.071747 
L 560.941032 247.243954 
L 563.226044 258.781851 
L 565.511057 247.588369 
L 567.796069 261.479767 
L 570.081081 281.685437 
L 572.366093 254.878483 
L 574.651106 248.334601 
L 576.936118 231.860092 
L 579.22113 182.149551 
L 581.506143 266.760794 
L 583.791155 205.684565 
L 586.076167 251.032517 
L 588.361179 223.651538 
L 590.646192 223.364526 
L 592.931204 235.017228 
L 595.216216 230.65464 
L 597.501229 206.488199 
L 599.786241 249.195638 
L 602.071253 246.612527 
L 604.356265 230.42503 
L 606.641278 228.645553 
L 608.92629 241.561109 
L 611.211302 257.748606 
L 613.496314 229.50659 
L 615.781327 280.307778 
L 618.066339 181.747734 
L 620.351351 248.277199 
L 622.636364 319.743276 
L 622.636364 319.743276 
" clip-path="url(#p03720521d3)" style="fill: none; stroke: #000000; stroke-width: 1.5; stroke-linecap: square"/>
   </g>
   <g id="line2d_19">
    <path d="M 261.604423 281.341022 
L 263.889435 290.755027 
L 266.174447 291.616065 
L 268.459459 297.700727 
L 270.744472 296.38047 
L 273.029484 264.923915 
L 275.314496 226.923479 
L 277.599509 242.594354 
L 279.884521 240.929682 
L 282.169533 234.443203 
L 284.454545 149.487545 
L 286.739558 178.246183 
L 289.02457 208.325078 
L 291.309582 185.765907 
L 293.594595 206.660407 
L 295.879607 197.246401 
L 298.164619 213.606106 
L 300.449631 162.977126 
L 302.734644 178.992416 
L 305.019656 226.062442 
L 307.304668 236.968912 
L 309.589681 234.500605 
L 311.874693 251.434335 
L 314.159705 229.449188 
L 316.444717 233.467361 
L 318.72973 228.645553 
L 321.014742 231.573079 
L 323.299754 236.854107 
L 325.584767 229.50659 
L 327.869779 253.673031 
L 330.154791 251.204725 
L 332.439803 230.941652 
L 334.724816 254.706275 
L 337.009828 273.763896 
L 339.29484 259.068863 
L 341.579853 258.322631 
L 343.864865 248.219796 
L 346.149877 256.600557 
L 348.434889 247.473564 
L 350.719902 243.512793 
L 353.004914 223.020111 
L 355.289926 231.917494 
L 357.574939 252.180567 
L 359.859951 266.760794 
L 362.144963 279.963363 
L 364.429975 262.053792 
L 366.714988 234.84502 
L 369 231.343469 
L 371.285012 227.956724 
L 373.570025 230.252823 
L 375.855037 259.011461 
L 378.140049 255.2803 
" clip-path="url(#p03720521d3)" style="fill: none; stroke: #800080; stroke-width: 1.5; stroke-linecap: square"/>
   </g>
   <g id="line2d_20">
    <path d="M 234.184275 384.48 
L 234.184275 51.84 
" clip-path="url(#p03720521d3)" style="fill: none; stroke-dasharray: 5.55,2.4; stroke-dashoffset: 0; stroke: #000000; stroke-opacity: 0.5; stroke-width: 1.5"/>
   </g>
   <g id="patch_3">
    <path d="M 90 384.48 
L 90 51.84 
" style="fill: none; stroke: #000000; stroke-width: 0.8; stroke-linejoin: miter; stroke-linecap: square"/>
   </g>
   <g id="patch_4">
    <path d="M 648 384.48 
L 648 51.84 
" style="fill: none; stroke: #000000; stroke-width: 0.8; stroke-linejoin: miter; stroke-linecap: square"/>
   </g>
   <g id="patch_5">
    <path d="M 90 384.48 
L 648 384.48 
" style="fill: none; stroke: #000000; stroke-width: 0.8; stroke-linejoin: miter; stroke-linecap: square"/>
   </g>
   <g id="patch_6">
    <path d="M 90 51.84 
L 648 51.84 
" style="fill: none; stroke: #000000; stroke-width: 0.8; stroke-linejoin: miter; stroke-linecap: square"/>
   </g>
   <g id="text_14">
    <!-- IS_MENTAL_HEALTH -->
    <g transform="translate(310.214063 18.6315) scale(0.12 -0.12)">
     <defs>
      <path id="DejaVuSans-53" d="M 3425 4513 
L 3425 3897 
Q 3066 4069 2747 4153 
Q 2428 4238 2131 4238 
Q 1616 4238 1336 4038 
Q 1056 3838 1056 3469 
Q 1056 3159 1242 3001 
Q 1428 2844 1947 2747 
L 2328 2669 
Q 3034 2534 3370 2195 
Q 3706 1856 3706 1288 
Q 3706 609 3251 259 
Q 2797 -91 1919 -91 
Q 1588 -91 1214 -16 
Q 841 59 441 206 
L 441 856 
Q 825 641 1194 531 
Q 1563 422 1919 422 
Q 2459 422 2753 634 
Q 3047 847 3047 1241 
Q 3047 1584 2836 1778 
Q 2625 1972 2144 2069 
L 1759 2144 
Q 1053 2284 737 2584 
Q 422 2884 422 3419 
Q 422 4038 858 4394 
Q 1294 4750 2059 4750 
Q 2388 4750 2728 4690 
Q 3069 4631 3425 4513 
z
" transform="scale(0.015625)"/>
      <path id="DejaVuSans-5f" d="M 3263 -1063 
L 3263 -1509 
L -63 -1509 
L -63 -1063 
L 3263 -1063 
z
" transform="scale(0.015625)"/>
      <path id="DejaVuSans-4d" d="M 628 4666 
L 1569 4666 
L 2759 1491 
L 3956 4666 
L 4897 4666 
L 4897 0 
L 4281 0 
L 4281 4097 
L 3078 897 
L 2444 897 
L 1241 4097 
L 1241 0 
L 628 0 
L 628 4666 
z
" transform="scale(0.015625)"/>
      <path id="DejaVuSans-45" d="M 628 4666 
L 3578 4666 
L 3578 4134 
L 1259 4134 
L 1259 2753 
L 3481 2753 
L 3481 2222 
L 1259 2222 
L 1259 531 
L 3634 531 
L 3634 0 
L 628 0 
L 628 4666 
z
" transform="scale(0.015625)"/>
      <path id="DejaVuSans-54" d="M -19 4666 
L 3928 4666 
L 3928 4134 
L 2272 4134 
L 2272 0 
L 1638 0 
L 1638 4134 
L -19 4134 
L -19 4666 
z
" transform="scale(0.015625)"/>
      <path id="DejaVuSans-41" d="M 2188 4044 
L 1331 1722 
L 3047 1722 
L 2188 4044 
z
M 1831 4666 
L 2547 4666 
L 4325 0 
L 3669 0 
L 3244 1197 
L 1141 1197 
L 716 0 
L 50 0 
L 1831 4666 
z
" transform="scale(0.015625)"/>
      <path id="DejaVuSans-4c" d="M 628 4666 
L 1259 4666 
L 1259 531 
L 3531 531 
L 3531 0 
L 628 0 
L 628 4666 
z
" transform="scale(0.015625)"/>
      <path id="DejaVuSans-48" d="M 628 4666 
L 1259 4666 
L 1259 2753 
L 3553 2753 
L 3553 4666 
L 4184 4666 
L 4184 0 
L 3553 0 
L 3553 2222 
L 1259 2222 
L 1259 0 
L 628 0 
L 628 4666 
z
" transform="scale(0.015625)"/>
     </defs>
     <use xlink:href="#DejaVuSans-49"/>
     <use xlink:href="#DejaVuSans-53" x="29.492188"/>
     <use xlink:href="#DejaVuSans-5f" x="92.96875"/>
     <use xlink:href="#DejaVuSans-4d" x="142.96875"/>
     <use xlink:href="#DejaVuSans-45" x="229.248047"/>
     <use xlink:href="#DejaVuSans-4e" x="292.431641"/>
     <use xlink:href="#DejaVuSans-54" x="367.236328"/>
     <use xlink:href="#DejaVuSans-41" x="420.570312"/>
     <use xlink:href="#DejaVuSans-4c" x="488.978516"/>
     <use xlink:href="#DejaVuSans-5f" x="544.691406"/>
     <use xlink:href="#DejaVuSans-48" x="594.691406"/>
     <use xlink:href="#DejaVuSans-45" x="669.886719"/>
     <use xlink:href="#DejaVuSans-41" x="733.070312"/>
     <use xlink:href="#DejaVuSans-4c" x="801.478516"/>
     <use xlink:href="#DejaVuSans-54" x="843.441406"/>
     <use xlink:href="#DejaVuSans-48" x="904.525391"/>
    </g>
    <!-- Retrospective Forecast - 2020-03-01 - COVID-19 Wave#1  -->
    <g transform="translate(195.520313 32.402625) scale(0.12 -0.12)">
     <defs>
      <path id="DejaVuSans-52" d="M 2841 2188 
Q 3044 2119 3236 1894 
Q 3428 1669 3622 1275 
L 4263 0 
L 3584 0 
L 2988 1197 
Q 2756 1666 2539 1819 
Q 2322 1972 1947 1972 
L 1259 1972 
L 1259 0 
L 628 0 
L 628 4666 
L 2053 4666 
Q 2853 4666 3247 4331 
Q 3641 3997 3641 3322 
Q 3641 2881 3436 2590 
Q 3231 2300 2841 2188 
z
M 1259 4147 
L 1259 2491 
L 2053 2491 
Q 2509 2491 2742 2702 
Q 2975 2913 2975 3322 
Q 2975 3731 2742 3939 
Q 2509 4147 2053 4147 
L 1259 4147 
z
" transform="scale(0.015625)"/>
      <path id="DejaVuSans-70" d="M 1159 525 
L 1159 -1331 
L 581 -1331 
L 581 3500 
L 1159 3500 
L 1159 2969 
Q 1341 3281 1617 3432 
Q 1894 3584 2278 3584 
Q 2916 3584 3314 3078 
Q 3713 2572 3713 1747 
Q 3713 922 3314 415 
Q 2916 -91 2278 -91 
Q 1894 -91 1617 61 
Q 1341 213 1159 525 
z
M 3116 1747 
Q 3116 2381 2855 2742 
Q 2594 3103 2138 3103 
Q 1681 3103 1420 2742 
Q 1159 2381 1159 1747 
Q 1159 1113 1420 752 
Q 1681 391 2138 391 
Q 2594 391 2855 752 
Q 3116 1113 3116 1747 
z
" transform="scale(0.015625)"/>
      <path id="DejaVuSans-76" d="M 191 3500 
L 800 3500 
L 1894 563 
L 2988 3500 
L 3597 3500 
L 2284 0 
L 1503 0 
L 191 3500 
z
" transform="scale(0.015625)"/>
      <path id="DejaVuSans-46" d="M 628 4666 
L 3309 4666 
L 3309 4134 
L 1259 4134 
L 1259 2759 
L 3109 2759 
L 3109 2228 
L 1259 2228 
L 1259 0 
L 628 0 
L 628 4666 
z
" transform="scale(0.015625)"/>
      <path id="DejaVuSans-2d" d="M 313 2009 
L 1997 2009 
L 1997 1497 
L 313 1497 
L 313 2009 
z
" transform="scale(0.015625)"/>
      <path id="DejaVuSans-43" d="M 4122 4306 
L 4122 3641 
Q 3803 3938 3442 4084 
Q 3081 4231 2675 4231 
Q 1875 4231 1450 3742 
Q 1025 3253 1025 2328 
Q 1025 1406 1450 917 
Q 1875 428 2675 428 
Q 3081 428 3442 575 
Q 3803 722 4122 1019 
L 4122 359 
Q 3791 134 3420 21 
Q 3050 -91 2638 -91 
Q 1578 -91 968 557 
Q 359 1206 359 2328 
Q 359 3453 968 4101 
Q 1578 4750 2638 4750 
Q 3056 4750 3426 4639 
Q 3797 4528 4122 4306 
z
" transform="scale(0.015625)"/>
      <path id="DejaVuSans-4f" d="M 2522 4238 
Q 1834 4238 1429 3725 
Q 1025 3213 1025 2328 
Q 1025 1447 1429 934 
Q 1834 422 2522 422 
Q 3209 422 3611 934 
Q 4013 1447 4013 2328 
Q 4013 3213 3611 3725 
Q 3209 4238 2522 4238 
z
M 2522 4750 
Q 3503 4750 4090 4092 
Q 4678 3434 4678 2328 
Q 4678 1225 4090 567 
Q 3503 -91 2522 -91 
Q 1538 -91 948 565 
Q 359 1222 359 2328 
Q 359 3434 948 4092 
Q 1538 4750 2522 4750 
z
" transform="scale(0.015625)"/>
      <path id="DejaVuSans-56" d="M 1831 0 
L 50 4666 
L 709 4666 
L 2188 738 
L 3669 4666 
L 4325 4666 
L 2547 0 
L 1831 0 
z
" transform="scale(0.015625)"/>
      <path id="DejaVuSans-57" d="M 213 4666 
L 850 4666 
L 1831 722 
L 2809 4666 
L 3519 4666 
L 4500 722 
L 5478 4666 
L 6119 4666 
L 4947 0 
L 4153 0 
L 3169 4050 
L 2175 0 
L 1381 0 
L 213 4666 
z
" transform="scale(0.015625)"/>
      <path id="DejaVuSans-23" d="M 3272 2816 
L 2363 2816 
L 2100 1772 
L 3016 1772 
L 3272 2816 
z
M 2803 4594 
L 2478 3297 
L 3391 3297 
L 3719 4594 
L 4219 4594 
L 3897 3297 
L 4872 3297 
L 4872 2816 
L 3775 2816 
L 3519 1772 
L 4513 1772 
L 4513 1294 
L 3397 1294 
L 3072 0 
L 2572 0 
L 2894 1294 
L 1978 1294 
L 1656 0 
L 1153 0 
L 1478 1294 
L 494 1294 
L 494 1772 
L 1594 1772 
L 1856 2816 
L 850 2816 
L 850 3297 
L 1978 3297 
L 2297 4594 
L 2803 4594 
z
" transform="scale(0.015625)"/>
     </defs>
     <use xlink:href="#DejaVuSans-52"/>
     <use xlink:href="#DejaVuSans-65" x="64.982422"/>
     <use xlink:href="#DejaVuSans-74" x="126.505859"/>
     <use xlink:href="#DejaVuSans-72" x="165.714844"/>
     <use xlink:href="#DejaVuSans-6f" x="204.578125"/>
     <use xlink:href="#DejaVuSans-73" x="265.759766"/>
     <use xlink:href="#DejaVuSans-70" x="317.859375"/>
     <use xlink:href="#DejaVuSans-65" x="381.335938"/>
     <use xlink:href="#DejaVuSans-63" x="442.859375"/>
     <use xlink:href="#DejaVuSans-74" x="497.839844"/>
     <use xlink:href="#DejaVuSans-69" x="537.048828"/>
     <use xlink:href="#DejaVuSans-76" x="564.832031"/>
     <use xlink:href="#DejaVuSans-65" x="624.011719"/>
     <use xlink:href="#DejaVuSans-20" x="685.535156"/>
     <use xlink:href="#DejaVuSans-46" x="717.322266"/>
     <use xlink:href="#DejaVuSans-6f" x="771.216797"/>
     <use xlink:href="#DejaVuSans-72" x="832.398438"/>
     <use xlink:href="#DejaVuSans-65" x="871.261719"/>
     <use xlink:href="#DejaVuSans-63" x="932.785156"/>
     <use xlink:href="#DejaVuSans-61" x="987.765625"/>
     <use xlink:href="#DejaVuSans-73" x="1049.044922"/>
     <use xlink:href="#DejaVuSans-74" x="1101.144531"/>
     <use xlink:href="#DejaVuSans-20" x="1140.353516"/>
     <use xlink:href="#DejaVuSans-2d" x="1172.140625"/>
     <use xlink:href="#DejaVuSans-20" x="1208.224609"/>
     <use xlink:href="#DejaVuSans-32" x="1240.011719"/>
     <use xlink:href="#DejaVuSans-30" x="1303.634766"/>
     <use xlink:href="#DejaVuSans-32" x="1367.257812"/>
     <use xlink:href="#DejaVuSans-30" x="1430.880859"/>
     <use xlink:href="#DejaVuSans-2d" x="1494.503906"/>
     <use xlink:href="#DejaVuSans-30" x="1530.587891"/>
     <use xlink:href="#DejaVuSans-33" x="1594.210938"/>
     <use xlink:href="#DejaVuSans-2d" x="1657.833984"/>
     <use xlink:href="#DejaVuSans-30" x="1693.917969"/>
     <use xlink:href="#DejaVuSans-31" x="1757.541016"/>
     <use xlink:href="#DejaVuSans-20" x="1821.164062"/>
     <use xlink:href="#DejaVuSans-2d" x="1852.951172"/>
     <use xlink:href="#DejaVuSans-20" x="1889.035156"/>
     <use xlink:href="#DejaVuSans-43" x="1920.822266"/>
     <use xlink:href="#DejaVuSans-4f" x="1990.646484"/>
     <use xlink:href="#DejaVuSans-56" x="2067.607422"/>
     <use xlink:href="#DejaVuSans-49" x="2136.015625"/>
     <use xlink:href="#DejaVuSans-44" x="2165.507812"/>
     <use xlink:href="#DejaVuSans-2d" x="2242.509766"/>
     <use xlink:href="#DejaVuSans-31" x="2278.59375"/>
     <use xlink:href="#DejaVuSans-39" x="2342.216797"/>
     <use xlink:href="#DejaVuSans-20" x="2405.839844"/>
     <use xlink:href="#DejaVuSans-57" x="2437.626953"/>
     <use xlink:href="#DejaVuSans-61" x="2530.128906"/>
     <use xlink:href="#DejaVuSans-76" x="2591.408203"/>
     <use xlink:href="#DejaVuSans-65" x="2650.587891"/>
     <use xlink:href="#DejaVuSans-23" x="2712.111328"/>
     <use xlink:href="#DejaVuSans-31" x="2795.900391"/>
     <use xlink:href="#DejaVuSans-20" x="2859.523438"/>
    </g>
    <!-- Naive -->
    <g transform="translate(351.924375 45.84) scale(0.12 -0.12)">
     <use xlink:href="#DejaVuSans-4e"/>
     <use xlink:href="#DejaVuSans-61" x="74.804688"/>
     <use xlink:href="#DejaVuSans-69" x="136.083984"/>
     <use xlink:href="#DejaVuSans-76" x="163.867188"/>
     <use xlink:href="#DejaVuSans-65" x="223.046875"/>
    </g>
   </g>
   <g id="legend_1">
    <g id="patch_7">
     <path d="M 527.145313 118.5525 
L 641 118.5525 
Q 643 118.5525 643 116.5525 
L 643 58.84 
Q 643 56.84 641 56.84 
L 527.145313 56.84 
Q 525.145313 56.84 525.145313 58.84 
L 525.145313 116.5525 
Q 525.145313 118.5525 527.145313 118.5525 
z
" style="fill: #ffffff; opacity: 0.8; stroke: #cccccc; stroke-linejoin: miter"/>
    </g>
    <g id="line2d_21">
     <path d="M 529.145313 64.938438 
L 539.145313 64.938438 
L 549.145313 64.938438 
" style="fill: none; stroke: #000000; stroke-width: 1.5; stroke-linecap: square"/>
    </g>
    <g id="text_15">
     <!-- Ground Truth -->
     <g transform="translate(557.145313 68.438438) scale(0.1 -0.1)">
      <defs>
       <path id="DejaVuSans-47" d="M 3809 666 
L 3809 1919 
L 2778 1919 
L 2778 2438 
L 4434 2438 
L 4434 434 
Q 4069 175 3628 42 
Q 3188 -91 2688 -91 
Q 1594 -91 976 548 
Q 359 1188 359 2328 
Q 359 3472 976 4111 
Q 1594 4750 2688 4750 
Q 3144 4750 3555 4637 
Q 3966 4525 4313 4306 
L 4313 3634 
Q 3963 3931 3569 4081 
Q 3175 4231 2741 4231 
Q 1884 4231 1454 3753 
Q 1025 3275 1025 2328 
Q 1025 1384 1454 906 
Q 1884 428 2741 428 
Q 3075 428 3337 486 
Q 3600 544 3809 666 
z
" transform="scale(0.015625)"/>
       <path id="DejaVuSans-64" d="M 2906 2969 
L 2906 4863 
L 3481 4863 
L 3481 0 
L 2906 0 
L 2906 525 
Q 2725 213 2448 61 
Q 2172 -91 1784 -91 
Q 1150 -91 751 415 
Q 353 922 353 1747 
Q 353 2572 751 3078 
Q 1150 3584 1784 3584 
Q 2172 3584 2448 3432 
Q 2725 3281 2906 2969 
z
M 947 1747 
Q 947 1113 1208 752 
Q 1469 391 1925 391 
Q 2381 391 2643 752 
Q 2906 1113 2906 1747 
Q 2906 2381 2643 2742 
Q 2381 3103 1925 3103 
Q 1469 3103 1208 2742 
Q 947 2381 947 1747 
z
" transform="scale(0.015625)"/>
       <path id="DejaVuSans-68" d="M 3513 2113 
L 3513 0 
L 2938 0 
L 2938 2094 
Q 2938 2591 2744 2837 
Q 2550 3084 2163 3084 
Q 1697 3084 1428 2787 
Q 1159 2491 1159 1978 
L 1159 0 
L 581 0 
L 581 4863 
L 1159 4863 
L 1159 2956 
Q 1366 3272 1645 3428 
Q 1925 3584 2291 3584 
Q 2894 3584 3203 3211 
Q 3513 2838 3513 2113 
z
" transform="scale(0.015625)"/>
      </defs>
      <use xlink:href="#DejaVuSans-47"/>
      <use xlink:href="#DejaVuSans-72" x="77.490234"/>
      <use xlink:href="#DejaVuSans-6f" x="116.353516"/>
      <use xlink:href="#DejaVuSans-75" x="177.535156"/>
      <use xlink:href="#DejaVuSans-6e" x="240.914062"/>
      <use xlink:href="#DejaVuSans-64" x="304.292969"/>
      <use xlink:href="#DejaVuSans-20" x="367.769531"/>
      <use xlink:href="#DejaVuSans-54" x="399.556641"/>
      <use xlink:href="#DejaVuSans-72" x="445.890625"/>
      <use xlink:href="#DejaVuSans-75" x="487.003906"/>
      <use xlink:href="#DejaVuSans-74" x="550.382812"/>
      <use xlink:href="#DejaVuSans-68" x="589.591797"/>
     </g>
    </g>
    <g id="patch_8">
     <path d="M 529.145313 83.116563 
L 549.145313 83.116563 
L 549.145313 76.116563 
L 529.145313 76.116563 
z
" style="fill: #800080; fill-opacity: 0.5"/>
    </g>
    <g id="text_16">
     <!-- 95% Confidence -->
     <g transform="translate(557.145313 83.116563) scale(0.1 -0.1)">
      <defs>
       <path id="DejaVuSans-25" d="M 4653 2053 
Q 4381 2053 4226 1822 
Q 4072 1591 4072 1178 
Q 4072 772 4226 539 
Q 4381 306 4653 306 
Q 4919 306 5073 539 
Q 5228 772 5228 1178 
Q 5228 1588 5073 1820 
Q 4919 2053 4653 2053 
z
M 4653 2450 
Q 5147 2450 5437 2106 
Q 5728 1763 5728 1178 
Q 5728 594 5436 251 
Q 5144 -91 4653 -91 
Q 4153 -91 3862 251 
Q 3572 594 3572 1178 
Q 3572 1766 3864 2108 
Q 4156 2450 4653 2450 
z
M 1428 4353 
Q 1159 4353 1004 4120 
Q 850 3888 850 3481 
Q 850 3069 1003 2837 
Q 1156 2606 1428 2606 
Q 1700 2606 1854 2837 
Q 2009 3069 2009 3481 
Q 2009 3884 1853 4118 
Q 1697 4353 1428 4353 
z
M 4250 4750 
L 4750 4750 
L 1831 -91 
L 1331 -91 
L 4250 4750 
z
M 1428 4750 
Q 1922 4750 2215 4408 
Q 2509 4066 2509 3481 
Q 2509 2891 2217 2550 
Q 1925 2209 1428 2209 
Q 931 2209 642 2551 
Q 353 2894 353 3481 
Q 353 4063 643 4406 
Q 934 4750 1428 4750 
z
" transform="scale(0.015625)"/>
      </defs>
      <use xlink:href="#DejaVuSans-39"/>
      <use xlink:href="#DejaVuSans-35" x="63.623047"/>
      <use xlink:href="#DejaVuSans-25" x="127.246094"/>
      <use xlink:href="#DejaVuSans-20" x="222.265625"/>
      <use xlink:href="#DejaVuSans-43" x="254.052734"/>
      <use xlink:href="#DejaVuSans-6f" x="323.876953"/>
      <use xlink:href="#DejaVuSans-6e" x="385.058594"/>
      <use xlink:href="#DejaVuSans-66" x="448.4375"/>
      <use xlink:href="#DejaVuSans-69" x="483.642578"/>
      <use xlink:href="#DejaVuSans-64" x="511.425781"/>
      <use xlink:href="#DejaVuSans-65" x="574.902344"/>
      <use xlink:href="#DejaVuSans-6e" x="636.425781"/>
      <use xlink:href="#DejaVuSans-63" x="699.804688"/>
      <use xlink:href="#DejaVuSans-65" x="754.785156"/>
     </g>
    </g>
    <g id="line2d_22">
     <path d="M 529.145313 94.294688 
L 539.145313 94.294688 
L 549.145313 94.294688 
" style="fill: none; stroke: #800080; stroke-width: 1.5; stroke-linecap: square"/>
    </g>
    <g id="text_17">
     <!-- Median Forecast -->
     <g transform="translate(557.145313 97.794688) scale(0.1 -0.1)">
      <use xlink:href="#DejaVuSans-4d"/>
      <use xlink:href="#DejaVuSans-65" x="86.279297"/>
      <use xlink:href="#DejaVuSans-64" x="147.802734"/>
      <use xlink:href="#DejaVuSans-69" x="211.279297"/>
      <use xlink:href="#DejaVuSans-61" x="239.0625"/>
      <use xlink:href="#DejaVuSans-6e" x="300.341797"/>
      <use xlink:href="#DejaVuSans-20" x="363.720703"/>
      <use xlink:href="#DejaVuSans-46" x="395.507812"/>
      <use xlink:href="#DejaVuSans-6f" x="449.402344"/>
      <use xlink:href="#DejaVuSans-72" x="510.583984"/>
      <use xlink:href="#DejaVuSans-65" x="549.447266"/>
      <use xlink:href="#DejaVuSans-63" x="610.970703"/>
      <use xlink:href="#DejaVuSans-61" x="665.951172"/>
      <use xlink:href="#DejaVuSans-73" x="727.230469"/>
      <use xlink:href="#DejaVuSans-74" x="779.330078"/>
     </g>
    </g>
    <g id="line2d_23">
     <path d="M 529.145313 108.972813 
L 539.145313 108.972813 
L 549.145313 108.972813 
" style="fill: none; stroke-dasharray: 5.55,2.4; stroke-dashoffset: 0; stroke: #000000; stroke-opacity: 0.5; stroke-width: 1.5"/>
    </g>
    <g id="text_18">
     <!-- Cutoff Date -->
     <g transform="translate(557.145313 112.472813) scale(0.1 -0.1)">
      <use xlink:href="#DejaVuSans-43"/>
      <use xlink:href="#DejaVuSans-75" x="69.824219"/>
      <use xlink:href="#DejaVuSans-74" x="133.203125"/>
      <use xlink:href="#DejaVuSans-6f" x="172.412109"/>
      <use xlink:href="#DejaVuSans-66" x="233.59375"/>
      <use xlink:href="#DejaVuSans-66" x="268.798828"/>
      <use xlink:href="#DejaVuSans-20" x="304.003906"/>
      <use xlink:href="#DejaVuSans-44" x="335.791016"/>
      <use xlink:href="#DejaVuSans-61" x="412.792969"/>
      <use xlink:href="#DejaVuSans-74" x="474.072266"/>
      <use xlink:href="#DejaVuSans-65" x="513.28125"/>
     </g>
    </g>
   </g>
  </g>
 </g>
 <defs>
  <clipPath id="p03720521d3">
   <rect x="90" y="51.84" width="558" height="332.64"/>
  </clipPath>
 </defs>
</svg>
