<?xml version="1.0" encoding="utf-8" standalone="no"?>
<!DOCTYPE svg PUBLIC "-//W3C//DTD SVG 1.1//EN"
  "http://www.w3.org/Graphics/SVG/1.1/DTD/svg11.dtd">
<svg height="432pt" version="1.1" viewBox="0 0 720 432" width="720pt" xmlns="http://www.w3.org/2000/svg" xmlns:xlink="http://www.w3.org/1999/xlink">
 <metadata>
  <rdf:RDF xmlns:cc="http://creativecommons.org/ns#" xmlns:dc="http://purl.org/dc/elements/1.1/" xmlns:rdf="http://www.w3.org/1999/02/22-rdf-syntax-ns#">
   <cc:Work>
    <dc:type rdf:resource="http://purl.org/dc/dcmitype/StillImage"/>
    <dc:date>2023-11-03T13:30:37.021248</dc:date>
    <dc:format>image/svg+xml</dc:format>
    <dc:creator>
     <cc:Agent>
      <dc:title>Matplotlib v3.4.2, https://matplotlib.org/</dc:title>
     </cc:Agent>
    </dc:creator>
   </cc:Work>
  </rdf:RDF>
 </metadata>
 <defs>
  <style type="text/css">*{stroke-linecap:butt;stroke-linejoin:round;}</style>
 </defs>
 <g id="figure_1">
  <g id="patch_1">
   <path d="M 0 432 
L 720 432 
L 720 0 
L 0 0 
z
" style="fill:none;"/>
  </g>
  <g id="axes_1">
   <g id="patch_2">
    <path d="M 90 378 
L 648 378 
L 648 51.84 
L 90 51.84 
z
" style="fill:#ffffff;"/>
   </g>
   <g id="PolyCollection_1">
    <path clip-path="url(#p4bb7c9efd7)" d="M 335.132273 235.02135 
L 335.132273 267.798722 
L 338.423494 271.888424 
L 341.608547 271.395681 
L 344.899768 270.860216 
L 348.190989 270.287354 
L 351.163705 269.681401 
L 354.454926 269.045893 
L 357.639979 268.38378 
L 360.9312 267.697549 
L 364.116253 266.989323 
L 367.407474 266.260933 
L 370.698695 265.513965 
L 373.883747 264.749811 
L 377.174969 263.969696 
L 380.360021 263.174706 
L 383.651242 262.36581 
L 386.942464 261.543874 
L 389.915179 260.70968 
L 393.206401 259.863933 
L 396.391453 259.007275 
L 399.682674 258.14029 
L 402.867727 257.263509 
L 406.158948 256.377423 
L 409.450169 255.482481 
L 412.635222 254.579098 
L 415.926443 253.667656 
L 419.111496 252.748511 
L 422.402717 251.821992 
L 425.693938 250.888406 
L 428.666654 249.94804 
L 431.957875 249.00116 
L 435.142928 248.048017 
L 438.434149 247.088845 
L 441.619202 246.123865 
L 444.910423 245.153284 
L 448.201644 244.177297 
L 451.386697 243.196088 
L 454.677918 242.209831 
L 457.86297 241.218691 
L 461.154192 240.222822 
L 464.445413 239.222374 
L 467.524297 238.217485 
L 470.815518 237.208288 
L 474.000571 236.194912 
L 477.291792 235.177475 
L 480.476845 234.156093 
L 483.768066 233.130874 
L 487.059287 232.101925 
L 490.24434 231.069344 
L 493.535561 230.033227 
L 496.720613 228.993666 
L 500.011835 227.950747 
L 503.303056 226.904555 
L 506.275772 225.85517 
L 509.566993 224.80267 
L 512.752045 223.747128 
L 516.043266 222.688615 
L 519.228319 221.627201 
L 522.51954 220.562951 
L 525.810761 219.495928 
L 528.995814 218.426194 
L 532.287035 217.353808 
L 535.472088 216.278825 
L 538.763309 215.201302 
L 542.05453 214.121291 
L 545.027246 213.038843 
L 548.318467 211.954007 
L 551.50352 210.866832 
L 554.794741 209.777363 
L 557.979794 208.685645 
L 561.271015 207.591721 
L 564.562236 206.495633 
L 567.747289 205.397421 
L 571.03851 204.297126 
L 574.223563 203.194785 
L 577.514784 202.090434 
L 580.806005 200.98411 
L 583.778721 199.875848 
L 587.069942 198.765681 
L 590.254994 197.653643 
L 593.546216 196.539764 
L 596.731268 195.424077 
L 600.022489 194.306611 
L 603.313711 193.187395 
L 606.498763 192.066458 
L 609.789984 190.943828 
L 612.975037 189.819532 
L 616.266258 188.693596 
L 619.557479 187.566045 
L 622.636364 186.436906 
L 622.636364 66.665455 
L 622.636364 66.665455 
L 619.557479 68.40845 
L 616.266258 70.153034 
L 612.975037 71.899233 
L 609.789984 73.647072 
L 606.498763 75.396577 
L 603.313711 77.147776 
L 600.022489 78.900695 
L 596.731268 80.655364 
L 593.546216 82.411812 
L 590.254994 84.170068 
L 587.069942 85.930165 
L 583.778721 87.692133 
L 580.806005 89.456006 
L 577.514784 91.221817 
L 574.223563 92.989602 
L 571.03851 94.759396 
L 567.747289 96.531235 
L 564.562236 98.305159 
L 561.271015 100.081206 
L 557.979794 101.859417 
L 554.794741 103.639834 
L 551.50352 105.4225 
L 548.318467 107.20746 
L 545.027246 108.994759 
L 542.05453 110.784446 
L 538.763309 112.57657 
L 535.472088 114.371182 
L 532.287035 116.168335 
L 528.995814 117.968084 
L 525.810761 119.770485 
L 522.51954 121.575597 
L 519.228319 123.383482 
L 516.043266 125.194203 
L 512.752045 127.007826 
L 509.566993 128.824419 
L 506.275772 130.644053 
L 503.303056 132.466804 
L 500.011835 134.292747 
L 496.720613 136.121963 
L 493.535561 137.954537 
L 490.24434 139.790555 
L 487.059287 141.630109 
L 483.768066 143.473295 
L 480.476845 145.320212 
L 477.291792 147.170965 
L 474.000571 149.025663 
L 470.815518 150.884421 
L 467.524297 152.74736 
L 464.445413 154.614606 
L 461.154192 156.486292 
L 457.86297 158.362559 
L 454.677918 160.243554 
L 451.386697 162.129432 
L 448.201644 164.020358 
L 444.910423 165.916506 
L 441.619202 167.81806 
L 438.434149 169.725215 
L 435.142928 171.638179 
L 431.957875 173.557171 
L 428.666654 175.482426 
L 425.693938 177.414195 
L 422.402717 179.352744 
L 419.111496 181.29836 
L 415.926443 183.25135 
L 412.635222 185.212043 
L 409.450169 187.180795 
L 406.158948 189.157988 
L 402.867727 191.144037 
L 399.682674 193.139392 
L 396.391453 195.144541 
L 393.206401 197.160018 
L 389.915179 199.186407 
L 386.942464 201.224348 
L 383.651242 203.274547 
L 380.360021 205.337786 
L 377.174969 207.414931 
L 373.883747 209.506951 
L 370.698695 211.614932 
L 367.407474 213.7401 
L 364.116253 215.883844 
L 360.9312 218.047754 
L 357.639979 220.233658 
L 354.454926 222.443679 
L 351.163705 224.680307 
L 348.190989 226.946489 
L 344.899768 229.245762 
L 341.608547 231.582432 
L 338.423494 233.961824 
L 335.132273 235.02135 
z
" style="fill:#800080;fill-opacity:0.5;"/>
   </g>
   <g id="matplotlib.axis_1">
    <g id="xtick_1">
     <g id="line2d_1">
      <defs>
       <path d="M 0 0 
L 0 3.5 
" id="m61a4b20169" style="stroke:#000000;stroke-width:0.8;"/>
      </defs>
      <g>
       <use style="stroke:#000000;stroke-width:0.8;" x="112.178584" xlink:href="#m61a4b20169" y="378"/>
      </g>
     </g>
     <g id="text_1">
      <!-- 2015 -->
      <g transform="translate(105.131823 408.368774)rotate(-45)scale(0.1 -0.1)">
       <defs>
        <path d="M 1228 531 
L 3431 531 
L 3431 0 
L 469 0 
L 469 531 
Q 828 903 1448 1529 
Q 2069 2156 2228 2338 
Q 2531 2678 2651 2914 
Q 2772 3150 2772 3378 
Q 2772 3750 2511 3984 
Q 2250 4219 1831 4219 
Q 1534 4219 1204 4116 
Q 875 4013 500 3803 
L 500 4441 
Q 881 4594 1212 4672 
Q 1544 4750 1819 4750 
Q 2544 4750 2975 4387 
Q 3406 4025 3406 3419 
Q 3406 3131 3298 2873 
Q 3191 2616 2906 2266 
Q 2828 2175 2409 1742 
Q 1991 1309 1228 531 
z
" id="DejaVuSans-32" transform="scale(0.015625)"/>
        <path d="M 2034 4250 
Q 1547 4250 1301 3770 
Q 1056 3291 1056 2328 
Q 1056 1369 1301 889 
Q 1547 409 2034 409 
Q 2525 409 2770 889 
Q 3016 1369 3016 2328 
Q 3016 3291 2770 3770 
Q 2525 4250 2034 4250 
z
M 2034 4750 
Q 2819 4750 3233 4129 
Q 3647 3509 3647 2328 
Q 3647 1150 3233 529 
Q 2819 -91 2034 -91 
Q 1250 -91 836 529 
Q 422 1150 422 2328 
Q 422 3509 836 4129 
Q 1250 4750 2034 4750 
z
" id="DejaVuSans-30" transform="scale(0.015625)"/>
        <path d="M 794 531 
L 1825 531 
L 1825 4091 
L 703 3866 
L 703 4441 
L 1819 4666 
L 2450 4666 
L 2450 531 
L 3481 531 
L 3481 0 
L 794 0 
L 794 531 
z
" id="DejaVuSans-31" transform="scale(0.015625)"/>
        <path d="M 691 4666 
L 3169 4666 
L 3169 4134 
L 1269 4134 
L 1269 2991 
Q 1406 3038 1543 3061 
Q 1681 3084 1819 3084 
Q 2600 3084 3056 2656 
Q 3513 2228 3513 1497 
Q 3513 744 3044 326 
Q 2575 -91 1722 -91 
Q 1428 -91 1123 -41 
Q 819 9 494 109 
L 494 744 
Q 775 591 1075 516 
Q 1375 441 1709 441 
Q 2250 441 2565 725 
Q 2881 1009 2881 1497 
Q 2881 1984 2565 2268 
Q 2250 2553 1709 2553 
Q 1456 2553 1204 2497 
Q 953 2441 691 2322 
L 691 4666 
z
" id="DejaVuSans-35" transform="scale(0.015625)"/>
       </defs>
       <use xlink:href="#DejaVuSans-32"/>
       <use x="63.623047" xlink:href="#DejaVuSans-30"/>
       <use x="127.246094" xlink:href="#DejaVuSans-31"/>
       <use x="190.869141" xlink:href="#DejaVuSans-35"/>
      </g>
     </g>
    </g>
    <g id="xtick_2">
     <g id="line2d_2">
      <g>
       <use style="stroke:#000000;stroke-width:0.8;" x="150.930058" xlink:href="#m61a4b20169" y="378"/>
      </g>
     </g>
     <g id="text_2">
      <!-- 2016 -->
      <g transform="translate(143.883297 408.368774)rotate(-45)scale(0.1 -0.1)">
       <defs>
        <path d="M 2113 2584 
Q 1688 2584 1439 2293 
Q 1191 2003 1191 1497 
Q 1191 994 1439 701 
Q 1688 409 2113 409 
Q 2538 409 2786 701 
Q 3034 994 3034 1497 
Q 3034 2003 2786 2293 
Q 2538 2584 2113 2584 
z
M 3366 4563 
L 3366 3988 
Q 3128 4100 2886 4159 
Q 2644 4219 2406 4219 
Q 1781 4219 1451 3797 
Q 1122 3375 1075 2522 
Q 1259 2794 1537 2939 
Q 1816 3084 2150 3084 
Q 2853 3084 3261 2657 
Q 3669 2231 3669 1497 
Q 3669 778 3244 343 
Q 2819 -91 2113 -91 
Q 1303 -91 875 529 
Q 447 1150 447 2328 
Q 447 3434 972 4092 
Q 1497 4750 2381 4750 
Q 2619 4750 2861 4703 
Q 3103 4656 3366 4563 
z
" id="DejaVuSans-36" transform="scale(0.015625)"/>
       </defs>
       <use xlink:href="#DejaVuSans-32"/>
       <use x="63.623047" xlink:href="#DejaVuSans-30"/>
       <use x="127.246094" xlink:href="#DejaVuSans-31"/>
       <use x="190.869141" xlink:href="#DejaVuSans-36"/>
      </g>
     </g>
    </g>
    <g id="xtick_3">
     <g id="line2d_3">
      <g>
       <use style="stroke:#000000;stroke-width:0.8;" x="189.787701" xlink:href="#m61a4b20169" y="378"/>
      </g>
     </g>
     <g id="text_3">
      <!-- 2017 -->
      <g transform="translate(182.74094 408.368774)rotate(-45)scale(0.1 -0.1)">
       <defs>
        <path d="M 525 4666 
L 3525 4666 
L 3525 4397 
L 1831 0 
L 1172 0 
L 2766 4134 
L 525 4134 
L 525 4666 
z
" id="DejaVuSans-37" transform="scale(0.015625)"/>
       </defs>
       <use xlink:href="#DejaVuSans-32"/>
       <use x="63.623047" xlink:href="#DejaVuSans-30"/>
       <use x="127.246094" xlink:href="#DejaVuSans-31"/>
       <use x="190.869141" xlink:href="#DejaVuSans-37"/>
      </g>
     </g>
    </g>
    <g id="xtick_4">
     <g id="line2d_4">
      <g>
       <use style="stroke:#000000;stroke-width:0.8;" x="228.539176" xlink:href="#m61a4b20169" y="378"/>
      </g>
     </g>
     <g id="text_4">
      <!-- 2018 -->
      <g transform="translate(221.492415 408.368774)rotate(-45)scale(0.1 -0.1)">
       <defs>
        <path d="M 2034 2216 
Q 1584 2216 1326 1975 
Q 1069 1734 1069 1313 
Q 1069 891 1326 650 
Q 1584 409 2034 409 
Q 2484 409 2743 651 
Q 3003 894 3003 1313 
Q 3003 1734 2745 1975 
Q 2488 2216 2034 2216 
z
M 1403 2484 
Q 997 2584 770 2862 
Q 544 3141 544 3541 
Q 544 4100 942 4425 
Q 1341 4750 2034 4750 
Q 2731 4750 3128 4425 
Q 3525 4100 3525 3541 
Q 3525 3141 3298 2862 
Q 3072 2584 2669 2484 
Q 3125 2378 3379 2068 
Q 3634 1759 3634 1313 
Q 3634 634 3220 271 
Q 2806 -91 2034 -91 
Q 1263 -91 848 271 
Q 434 634 434 1313 
Q 434 1759 690 2068 
Q 947 2378 1403 2484 
z
M 1172 3481 
Q 1172 3119 1398 2916 
Q 1625 2713 2034 2713 
Q 2441 2713 2670 2916 
Q 2900 3119 2900 3481 
Q 2900 3844 2670 4047 
Q 2441 4250 2034 4250 
Q 1625 4250 1398 4047 
Q 1172 3844 1172 3481 
z
" id="DejaVuSans-38" transform="scale(0.015625)"/>
       </defs>
       <use xlink:href="#DejaVuSans-32"/>
       <use x="63.623047" xlink:href="#DejaVuSans-30"/>
       <use x="127.246094" xlink:href="#DejaVuSans-31"/>
       <use x="190.869141" xlink:href="#DejaVuSans-38"/>
      </g>
     </g>
    </g>
    <g id="xtick_5">
     <g id="line2d_5">
      <g>
       <use style="stroke:#000000;stroke-width:0.8;" x="267.29065" xlink:href="#m61a4b20169" y="378"/>
      </g>
     </g>
     <g id="text_5">
      <!-- 2019 -->
      <g transform="translate(260.243889 408.368774)rotate(-45)scale(0.1 -0.1)">
       <defs>
        <path d="M 703 97 
L 703 672 
Q 941 559 1184 500 
Q 1428 441 1663 441 
Q 2288 441 2617 861 
Q 2947 1281 2994 2138 
Q 2813 1869 2534 1725 
Q 2256 1581 1919 1581 
Q 1219 1581 811 2004 
Q 403 2428 403 3163 
Q 403 3881 828 4315 
Q 1253 4750 1959 4750 
Q 2769 4750 3195 4129 
Q 3622 3509 3622 2328 
Q 3622 1225 3098 567 
Q 2575 -91 1691 -91 
Q 1453 -91 1209 -44 
Q 966 3 703 97 
z
M 1959 2075 
Q 2384 2075 2632 2365 
Q 2881 2656 2881 3163 
Q 2881 3666 2632 3958 
Q 2384 4250 1959 4250 
Q 1534 4250 1286 3958 
Q 1038 3666 1038 3163 
Q 1038 2656 1286 2365 
Q 1534 2075 1959 2075 
z
" id="DejaVuSans-39" transform="scale(0.015625)"/>
       </defs>
       <use xlink:href="#DejaVuSans-32"/>
       <use x="63.623047" xlink:href="#DejaVuSans-30"/>
       <use x="127.246094" xlink:href="#DejaVuSans-31"/>
       <use x="190.869141" xlink:href="#DejaVuSans-39"/>
      </g>
     </g>
    </g>
    <g id="xtick_6">
     <g id="line2d_6">
      <g>
       <use style="stroke:#000000;stroke-width:0.8;" x="306.042125" xlink:href="#m61a4b20169" y="378"/>
      </g>
     </g>
     <g id="text_6">
      <!-- 2020 -->
      <g transform="translate(298.995364 408.368774)rotate(-45)scale(0.1 -0.1)">
       <use xlink:href="#DejaVuSans-32"/>
       <use x="63.623047" xlink:href="#DejaVuSans-30"/>
       <use x="127.246094" xlink:href="#DejaVuSans-32"/>
       <use x="190.869141" xlink:href="#DejaVuSans-30"/>
      </g>
     </g>
    </g>
    <g id="xtick_7">
     <g id="line2d_7">
      <g>
       <use style="stroke:#000000;stroke-width:0.8;" x="344.899768" xlink:href="#m61a4b20169" y="378"/>
      </g>
     </g>
     <g id="text_7">
      <!-- 2021 -->
      <g transform="translate(337.853007 408.368774)rotate(-45)scale(0.1 -0.1)">
       <use xlink:href="#DejaVuSans-32"/>
       <use x="63.623047" xlink:href="#DejaVuSans-30"/>
       <use x="127.246094" xlink:href="#DejaVuSans-32"/>
       <use x="190.869141" xlink:href="#DejaVuSans-31"/>
      </g>
     </g>
    </g>
    <g id="xtick_8">
     <g id="line2d_8">
      <g>
       <use style="stroke:#000000;stroke-width:0.8;" x="383.651242" xlink:href="#m61a4b20169" y="378"/>
      </g>
     </g>
     <g id="text_8">
      <!-- 2022 -->
      <g transform="translate(376.604481 408.368774)rotate(-45)scale(0.1 -0.1)">
       <use xlink:href="#DejaVuSans-32"/>
       <use x="63.623047" xlink:href="#DejaVuSans-30"/>
       <use x="127.246094" xlink:href="#DejaVuSans-32"/>
       <use x="190.869141" xlink:href="#DejaVuSans-32"/>
      </g>
     </g>
    </g>
    <g id="xtick_9">
     <g id="line2d_9">
      <g>
       <use style="stroke:#000000;stroke-width:0.8;" x="422.402717" xlink:href="#m61a4b20169" y="378"/>
      </g>
     </g>
     <g id="text_9">
      <!-- 2023 -->
      <g transform="translate(415.355956 408.368774)rotate(-45)scale(0.1 -0.1)">
       <defs>
        <path d="M 2597 2516 
Q 3050 2419 3304 2112 
Q 3559 1806 3559 1356 
Q 3559 666 3084 287 
Q 2609 -91 1734 -91 
Q 1441 -91 1130 -33 
Q 819 25 488 141 
L 488 750 
Q 750 597 1062 519 
Q 1375 441 1716 441 
Q 2309 441 2620 675 
Q 2931 909 2931 1356 
Q 2931 1769 2642 2001 
Q 2353 2234 1838 2234 
L 1294 2234 
L 1294 2753 
L 1863 2753 
Q 2328 2753 2575 2939 
Q 2822 3125 2822 3475 
Q 2822 3834 2567 4026 
Q 2313 4219 1838 4219 
Q 1578 4219 1281 4162 
Q 984 4106 628 3988 
L 628 4550 
Q 988 4650 1302 4700 
Q 1616 4750 1894 4750 
Q 2613 4750 3031 4423 
Q 3450 4097 3450 3541 
Q 3450 3153 3228 2886 
Q 3006 2619 2597 2516 
z
" id="DejaVuSans-33" transform="scale(0.015625)"/>
       </defs>
       <use xlink:href="#DejaVuSans-32"/>
       <use x="63.623047" xlink:href="#DejaVuSans-30"/>
       <use x="127.246094" xlink:href="#DejaVuSans-32"/>
       <use x="190.869141" xlink:href="#DejaVuSans-33"/>
      </g>
     </g>
    </g>
    <g id="xtick_10">
     <g id="line2d_10">
      <g>
       <use style="stroke:#000000;stroke-width:0.8;" x="461.154192" xlink:href="#m61a4b20169" y="378"/>
      </g>
     </g>
     <g id="text_10">
      <!-- 2024 -->
      <g transform="translate(454.107431 408.368774)rotate(-45)scale(0.1 -0.1)">
       <defs>
        <path d="M 2419 4116 
L 825 1625 
L 2419 1625 
L 2419 4116 
z
M 2253 4666 
L 3047 4666 
L 3047 1625 
L 3713 1625 
L 3713 1100 
L 3047 1100 
L 3047 0 
L 2419 0 
L 2419 1100 
L 313 1100 
L 313 1709 
L 2253 4666 
z
" id="DejaVuSans-34" transform="scale(0.015625)"/>
       </defs>
       <use xlink:href="#DejaVuSans-32"/>
       <use x="63.623047" xlink:href="#DejaVuSans-30"/>
       <use x="127.246094" xlink:href="#DejaVuSans-32"/>
       <use x="190.869141" xlink:href="#DejaVuSans-34"/>
      </g>
     </g>
    </g>
    <g id="xtick_11">
     <g id="line2d_11">
      <g>
       <use style="stroke:#000000;stroke-width:0.8;" x="500.011835" xlink:href="#m61a4b20169" y="378"/>
      </g>
     </g>
     <g id="text_11">
      <!-- 2025 -->
      <g transform="translate(492.965074 408.368774)rotate(-45)scale(0.1 -0.1)">
       <use xlink:href="#DejaVuSans-32"/>
       <use x="63.623047" xlink:href="#DejaVuSans-30"/>
       <use x="127.246094" xlink:href="#DejaVuSans-32"/>
       <use x="190.869141" xlink:href="#DejaVuSans-35"/>
      </g>
     </g>
    </g>
    <g id="xtick_12">
     <g id="line2d_12">
      <g>
       <use style="stroke:#000000;stroke-width:0.8;" x="538.763309" xlink:href="#m61a4b20169" y="378"/>
      </g>
     </g>
     <g id="text_12">
      <!-- 2026 -->
      <g transform="translate(531.716548 408.368774)rotate(-45)scale(0.1 -0.1)">
       <use xlink:href="#DejaVuSans-32"/>
       <use x="63.623047" xlink:href="#DejaVuSans-30"/>
       <use x="127.246094" xlink:href="#DejaVuSans-32"/>
       <use x="190.869141" xlink:href="#DejaVuSans-36"/>
      </g>
     </g>
    </g>
    <g id="xtick_13">
     <g id="line2d_13">
      <g>
       <use style="stroke:#000000;stroke-width:0.8;" x="577.514784" xlink:href="#m61a4b20169" y="378"/>
      </g>
     </g>
     <g id="text_13">
      <!-- 2027 -->
      <g transform="translate(570.468023 408.368774)rotate(-45)scale(0.1 -0.1)">
       <use xlink:href="#DejaVuSans-32"/>
       <use x="63.623047" xlink:href="#DejaVuSans-30"/>
       <use x="127.246094" xlink:href="#DejaVuSans-32"/>
       <use x="190.869141" xlink:href="#DejaVuSans-37"/>
      </g>
     </g>
    </g>
    <g id="xtick_14">
     <g id="line2d_14">
      <g>
       <use style="stroke:#000000;stroke-width:0.8;" x="616.266258" xlink:href="#m61a4b20169" y="378"/>
      </g>
     </g>
     <g id="text_14">
      <!-- 2028 -->
      <g transform="translate(609.219497 408.368774)rotate(-45)scale(0.1 -0.1)">
       <use xlink:href="#DejaVuSans-32"/>
       <use x="63.623047" xlink:href="#DejaVuSans-30"/>
       <use x="127.246094" xlink:href="#DejaVuSans-32"/>
       <use x="190.869141" xlink:href="#DejaVuSans-38"/>
      </g>
     </g>
    </g>
    <g id="text_15">
     <!-- Date -->
     <g transform="translate(357.049219 421.437773)scale(0.1 -0.1)">
      <defs>
       <path d="M 1259 4147 
L 1259 519 
L 2022 519 
Q 2988 519 3436 956 
Q 3884 1394 3884 2338 
Q 3884 3275 3436 3711 
Q 2988 4147 2022 4147 
L 1259 4147 
z
M 628 4666 
L 1925 4666 
Q 3281 4666 3915 4102 
Q 4550 3538 4550 2338 
Q 4550 1131 3912 565 
Q 3275 0 1925 0 
L 628 0 
L 628 4666 
z
" id="DejaVuSans-44" transform="scale(0.015625)"/>
       <path d="M 2194 1759 
Q 1497 1759 1228 1600 
Q 959 1441 959 1056 
Q 959 750 1161 570 
Q 1363 391 1709 391 
Q 2188 391 2477 730 
Q 2766 1069 2766 1631 
L 2766 1759 
L 2194 1759 
z
M 3341 1997 
L 3341 0 
L 2766 0 
L 2766 531 
Q 2569 213 2275 61 
Q 1981 -91 1556 -91 
Q 1019 -91 701 211 
Q 384 513 384 1019 
Q 384 1609 779 1909 
Q 1175 2209 1959 2209 
L 2766 2209 
L 2766 2266 
Q 2766 2663 2505 2880 
Q 2244 3097 1772 3097 
Q 1472 3097 1187 3025 
Q 903 2953 641 2809 
L 641 3341 
Q 956 3463 1253 3523 
Q 1550 3584 1831 3584 
Q 2591 3584 2966 3190 
Q 3341 2797 3341 1997 
z
" id="DejaVuSans-61" transform="scale(0.015625)"/>
       <path d="M 1172 4494 
L 1172 3500 
L 2356 3500 
L 2356 3053 
L 1172 3053 
L 1172 1153 
Q 1172 725 1289 603 
Q 1406 481 1766 481 
L 2356 481 
L 2356 0 
L 1766 0 
Q 1100 0 847 248 
Q 594 497 594 1153 
L 594 3053 
L 172 3053 
L 172 3500 
L 594 3500 
L 594 4494 
L 1172 4494 
z
" id="DejaVuSans-74" transform="scale(0.015625)"/>
       <path d="M 3597 1894 
L 3597 1613 
L 953 1613 
Q 991 1019 1311 708 
Q 1631 397 2203 397 
Q 2534 397 2845 478 
Q 3156 559 3463 722 
L 3463 178 
Q 3153 47 2828 -22 
Q 2503 -91 2169 -91 
Q 1331 -91 842 396 
Q 353 884 353 1716 
Q 353 2575 817 3079 
Q 1281 3584 2069 3584 
Q 2775 3584 3186 3129 
Q 3597 2675 3597 1894 
z
M 3022 2063 
Q 3016 2534 2758 2815 
Q 2500 3097 2075 3097 
Q 1594 3097 1305 2825 
Q 1016 2553 972 2059 
L 3022 2063 
z
" id="DejaVuSans-65" transform="scale(0.015625)"/>
      </defs>
      <use xlink:href="#DejaVuSans-44"/>
      <use x="77.001953" xlink:href="#DejaVuSans-61"/>
      <use x="138.28125" xlink:href="#DejaVuSans-74"/>
      <use x="177.490234" xlink:href="#DejaVuSans-65"/>
     </g>
    </g>
   </g>
   <g id="matplotlib.axis_2">
    <g id="ytick_1">
     <g id="line2d_15">
      <path clip-path="url(#p4bb7c9efd7)" d="M 90 328.097045 
L 648 328.097045 
" style="fill:none;stroke:#b0b0b0;stroke-linecap:square;stroke-width:0.8;"/>
     </g>
     <g id="line2d_16">
      <defs>
       <path d="M 0 0 
L -3.5 0 
" id="m7a6523709e" style="stroke:#000000;stroke-width:0.8;"/>
      </defs>
      <g>
       <use style="stroke:#000000;stroke-width:0.8;" x="90" xlink:href="#m7a6523709e" y="328.097045"/>
      </g>
     </g>
     <g id="text_16">
      <!-- 100 -->
      <g transform="translate(63.9125 331.896264)scale(0.1 -0.1)">
       <use xlink:href="#DejaVuSans-31"/>
       <use x="63.623047" xlink:href="#DejaVuSans-30"/>
       <use x="127.246094" xlink:href="#DejaVuSans-30"/>
      </g>
     </g>
    </g>
    <g id="ytick_2">
     <g id="line2d_17">
      <path clip-path="url(#p4bb7c9efd7)" d="M 90 256.51031 
L 648 256.51031 
" style="fill:none;stroke:#b0b0b0;stroke-linecap:square;stroke-width:0.8;"/>
     </g>
     <g id="line2d_18">
      <g>
       <use style="stroke:#000000;stroke-width:0.8;" x="90" xlink:href="#m7a6523709e" y="256.51031"/>
      </g>
     </g>
     <g id="text_17">
      <!-- 200 -->
      <g transform="translate(63.9125 260.309529)scale(0.1 -0.1)">
       <use xlink:href="#DejaVuSans-32"/>
       <use x="63.623047" xlink:href="#DejaVuSans-30"/>
       <use x="127.246094" xlink:href="#DejaVuSans-30"/>
      </g>
     </g>
    </g>
    <g id="ytick_3">
     <g id="line2d_19">
      <path clip-path="url(#p4bb7c9efd7)" d="M 90 184.923575 
L 648 184.923575 
" style="fill:none;stroke:#b0b0b0;stroke-linecap:square;stroke-width:0.8;"/>
     </g>
     <g id="line2d_20">
      <g>
       <use style="stroke:#000000;stroke-width:0.8;" x="90" xlink:href="#m7a6523709e" y="184.923575"/>
      </g>
     </g>
     <g id="text_18">
      <!-- 300 -->
      <g transform="translate(63.9125 188.722793)scale(0.1 -0.1)">
       <use xlink:href="#DejaVuSans-33"/>
       <use x="63.623047" xlink:href="#DejaVuSans-30"/>
       <use x="127.246094" xlink:href="#DejaVuSans-30"/>
      </g>
     </g>
    </g>
    <g id="ytick_4">
     <g id="line2d_21">
      <path clip-path="url(#p4bb7c9efd7)" d="M 90 113.336839 
L 648 113.336839 
" style="fill:none;stroke:#b0b0b0;stroke-linecap:square;stroke-width:0.8;"/>
     </g>
     <g id="line2d_22">
      <g>
       <use style="stroke:#000000;stroke-width:0.8;" x="90" xlink:href="#m7a6523709e" y="113.336839"/>
      </g>
     </g>
     <g id="text_19">
      <!-- 400 -->
      <g transform="translate(63.9125 117.136058)scale(0.1 -0.1)">
       <use xlink:href="#DejaVuSans-34"/>
       <use x="63.623047" xlink:href="#DejaVuSans-30"/>
       <use x="127.246094" xlink:href="#DejaVuSans-30"/>
      </g>
     </g>
    </g>
    <g id="text_20">
     <!-- CPI (% 2002 Prices) -->
     <g transform="translate(57.832812 263.848125)rotate(-90)scale(0.1 -0.1)">
      <defs>
       <path d="M 4122 4306 
L 4122 3641 
Q 3803 3938 3442 4084 
Q 3081 4231 2675 4231 
Q 1875 4231 1450 3742 
Q 1025 3253 1025 2328 
Q 1025 1406 1450 917 
Q 1875 428 2675 428 
Q 3081 428 3442 575 
Q 3803 722 4122 1019 
L 4122 359 
Q 3791 134 3420 21 
Q 3050 -91 2638 -91 
Q 1578 -91 968 557 
Q 359 1206 359 2328 
Q 359 3453 968 4101 
Q 1578 4750 2638 4750 
Q 3056 4750 3426 4639 
Q 3797 4528 4122 4306 
z
" id="DejaVuSans-43" transform="scale(0.015625)"/>
       <path d="M 1259 4147 
L 1259 2394 
L 2053 2394 
Q 2494 2394 2734 2622 
Q 2975 2850 2975 3272 
Q 2975 3691 2734 3919 
Q 2494 4147 2053 4147 
L 1259 4147 
z
M 628 4666 
L 2053 4666 
Q 2838 4666 3239 4311 
Q 3641 3956 3641 3272 
Q 3641 2581 3239 2228 
Q 2838 1875 2053 1875 
L 1259 1875 
L 1259 0 
L 628 0 
L 628 4666 
z
" id="DejaVuSans-50" transform="scale(0.015625)"/>
       <path d="M 628 4666 
L 1259 4666 
L 1259 0 
L 628 0 
L 628 4666 
z
" id="DejaVuSans-49" transform="scale(0.015625)"/>
       <path id="DejaVuSans-20" transform="scale(0.015625)"/>
       <path d="M 1984 4856 
Q 1566 4138 1362 3434 
Q 1159 2731 1159 2009 
Q 1159 1288 1364 580 
Q 1569 -128 1984 -844 
L 1484 -844 
Q 1016 -109 783 600 
Q 550 1309 550 2009 
Q 550 2706 781 3412 
Q 1013 4119 1484 4856 
L 1984 4856 
z
" id="DejaVuSans-28" transform="scale(0.015625)"/>
       <path d="M 4653 2053 
Q 4381 2053 4226 1822 
Q 4072 1591 4072 1178 
Q 4072 772 4226 539 
Q 4381 306 4653 306 
Q 4919 306 5073 539 
Q 5228 772 5228 1178 
Q 5228 1588 5073 1820 
Q 4919 2053 4653 2053 
z
M 4653 2450 
Q 5147 2450 5437 2106 
Q 5728 1763 5728 1178 
Q 5728 594 5436 251 
Q 5144 -91 4653 -91 
Q 4153 -91 3862 251 
Q 3572 594 3572 1178 
Q 3572 1766 3864 2108 
Q 4156 2450 4653 2450 
z
M 1428 4353 
Q 1159 4353 1004 4120 
Q 850 3888 850 3481 
Q 850 3069 1003 2837 
Q 1156 2606 1428 2606 
Q 1700 2606 1854 2837 
Q 2009 3069 2009 3481 
Q 2009 3884 1853 4118 
Q 1697 4353 1428 4353 
z
M 4250 4750 
L 4750 4750 
L 1831 -91 
L 1331 -91 
L 4250 4750 
z
M 1428 4750 
Q 1922 4750 2215 4408 
Q 2509 4066 2509 3481 
Q 2509 2891 2217 2550 
Q 1925 2209 1428 2209 
Q 931 2209 642 2551 
Q 353 2894 353 3481 
Q 353 4063 643 4406 
Q 934 4750 1428 4750 
z
" id="DejaVuSans-25" transform="scale(0.015625)"/>
       <path d="M 2631 2963 
Q 2534 3019 2420 3045 
Q 2306 3072 2169 3072 
Q 1681 3072 1420 2755 
Q 1159 2438 1159 1844 
L 1159 0 
L 581 0 
L 581 3500 
L 1159 3500 
L 1159 2956 
Q 1341 3275 1631 3429 
Q 1922 3584 2338 3584 
Q 2397 3584 2469 3576 
Q 2541 3569 2628 3553 
L 2631 2963 
z
" id="DejaVuSans-72" transform="scale(0.015625)"/>
       <path d="M 603 3500 
L 1178 3500 
L 1178 0 
L 603 0 
L 603 3500 
z
M 603 4863 
L 1178 4863 
L 1178 4134 
L 603 4134 
L 603 4863 
z
" id="DejaVuSans-69" transform="scale(0.015625)"/>
       <path d="M 3122 3366 
L 3122 2828 
Q 2878 2963 2633 3030 
Q 2388 3097 2138 3097 
Q 1578 3097 1268 2742 
Q 959 2388 959 1747 
Q 959 1106 1268 751 
Q 1578 397 2138 397 
Q 2388 397 2633 464 
Q 2878 531 3122 666 
L 3122 134 
Q 2881 22 2623 -34 
Q 2366 -91 2075 -91 
Q 1284 -91 818 406 
Q 353 903 353 1747 
Q 353 2603 823 3093 
Q 1294 3584 2113 3584 
Q 2378 3584 2631 3529 
Q 2884 3475 3122 3366 
z
" id="DejaVuSans-63" transform="scale(0.015625)"/>
       <path d="M 2834 3397 
L 2834 2853 
Q 2591 2978 2328 3040 
Q 2066 3103 1784 3103 
Q 1356 3103 1142 2972 
Q 928 2841 928 2578 
Q 928 2378 1081 2264 
Q 1234 2150 1697 2047 
L 1894 2003 
Q 2506 1872 2764 1633 
Q 3022 1394 3022 966 
Q 3022 478 2636 193 
Q 2250 -91 1575 -91 
Q 1294 -91 989 -36 
Q 684 19 347 128 
L 347 722 
Q 666 556 975 473 
Q 1284 391 1588 391 
Q 1994 391 2212 530 
Q 2431 669 2431 922 
Q 2431 1156 2273 1281 
Q 2116 1406 1581 1522 
L 1381 1569 
Q 847 1681 609 1914 
Q 372 2147 372 2553 
Q 372 3047 722 3315 
Q 1072 3584 1716 3584 
Q 2034 3584 2315 3537 
Q 2597 3491 2834 3397 
z
" id="DejaVuSans-73" transform="scale(0.015625)"/>
       <path d="M 513 4856 
L 1013 4856 
Q 1481 4119 1714 3412 
Q 1947 2706 1947 2009 
Q 1947 1309 1714 600 
Q 1481 -109 1013 -844 
L 513 -844 
Q 928 -128 1133 580 
Q 1338 1288 1338 2009 
Q 1338 2731 1133 3434 
Q 928 4138 513 4856 
z
" id="DejaVuSans-29" transform="scale(0.015625)"/>
      </defs>
      <use xlink:href="#DejaVuSans-43"/>
      <use x="69.824219" xlink:href="#DejaVuSans-50"/>
      <use x="130.126953" xlink:href="#DejaVuSans-49"/>
      <use x="159.619141" xlink:href="#DejaVuSans-20"/>
      <use x="191.40625" xlink:href="#DejaVuSans-28"/>
      <use x="230.419922" xlink:href="#DejaVuSans-25"/>
      <use x="325.439453" xlink:href="#DejaVuSans-20"/>
      <use x="357.226562" xlink:href="#DejaVuSans-32"/>
      <use x="420.849609" xlink:href="#DejaVuSans-30"/>
      <use x="484.472656" xlink:href="#DejaVuSans-30"/>
      <use x="548.095703" xlink:href="#DejaVuSans-32"/>
      <use x="611.71875" xlink:href="#DejaVuSans-20"/>
      <use x="643.505859" xlink:href="#DejaVuSans-50"/>
      <use x="702.058594" xlink:href="#DejaVuSans-72"/>
      <use x="743.171875" xlink:href="#DejaVuSans-69"/>
      <use x="770.955078" xlink:href="#DejaVuSans-63"/>
      <use x="825.935547" xlink:href="#DejaVuSans-65"/>
      <use x="887.458984" xlink:href="#DejaVuSans-73"/>
      <use x="939.558594" xlink:href="#DejaVuSans-29"/>
     </g>
    </g>
   </g>
   <g id="line2d_23">
    <path clip-path="url(#p4bb7c9efd7)" d="M 115.363636 348.533903 
L 118.336352 346.326096 
L 121.627573 347.333094 
L 124.812626 350.36052 
L 128.103847 353.290957 
L 131.2889 350.432107 
L 134.580121 351.18954 
L 137.871342 351.9285 
L 141.056395 349.048096 
L 144.347616 350.127286 
L 147.532669 346.924357 
L 150.82389 358.348214 
L 154.115111 343.430462 
L 157.193995 340.11868 
L 160.485216 343.869219 
L 163.670269 336.54428 
L 166.96149 338.927425 
L 170.146543 337.761254 
L 173.437764 339.966588 
L 176.728985 332.507712 
L 179.914038 333.012668 
L 183.205259 336.410343 
L 186.390312 329.886714 
L 189.681533 347.933499 
L 192.972754 331.0067 
L 195.94547 334.642118 
L 199.236691 331.653289 
L 202.421744 338.286224 
L 205.712965 334.609129 
L 208.898017 336.019311 
L 212.189239 341.329045 
L 215.48046 334.701499 
L 218.665512 331.032101 
L 221.956734 325.210483 
L 225.141786 313.851285 
L 228.433007 327.704473 
L 231.724228 311.886113 
L 234.696944 312.45023 
L 237.988165 296.991454 
L 241.173218 298.17379 
L 244.464439 303.24952 
L 247.649492 300.750912 
L 250.940713 294.659112 
L 254.231934 296.437234 
L 257.416987 304.163213 
L 260.708208 286.299629 
L 263.893261 294.260382 
L 267.184482 308.768627 
L 270.475703 286.484369 
L 273.448419 296.982382 
L 276.73964 288.470323 
L 279.924693 287.244882 
L 283.215914 292.488417 
L 286.400967 304.258662 
L 289.692188 292.580787 
L 292.983409 306.66721 
L 296.168462 288.29482 
L 299.459683 275.884913 
L 302.644735 275.00355 
L 305.935956 293.43521 
L 309.227178 275.446156 
L 312.306062 274.505734 
L 315.597283 302.810763 
L 318.782336 301.586091 
L 322.073557 277.478296 
L 325.25861 241.572544 
L 328.549831 247.781347 
L 331.841052 244.802415 
L 335.132273 275.122861 
L 338.423494 363.174545 
L 341.608547 129.801788 
L 344.899768 355.300005 
L 348.190989 196.377452 
L 351.163705 228.591483 
L 354.454926 218.56934 
L 357.639979 317.359035 
L 360.9312 260.805514 
L 364.116253 361.742811 
L 367.407474 289.440208 
L 370.698695 284.429137 
L 373.883747 316.643167 
L 377.174969 214.990003 
L 380.360021 213.558269 
L 383.651242 338.835055 
L 386.942464 175.617299 
L 389.915179 78.975206 
L 393.206401 202.820258 
L 396.391453 340.982658 
L 399.682674 285.145004 
L 402.867727 331.676382 
L 406.158948 289.440208 
L 409.450169 279.418065 
L 412.635222 357.447607 
L 415.926443 101.167094 
L 419.111496 259.373779 
L 422.402717 298.746484 
L 425.693938 282.997402 
L 428.666654 279.418065 
L 431.957875 337.403321 
L 435.142928 231.454952 
" style="fill:none;stroke:#000000;stroke-linecap:square;stroke-width:1.5;"/>
   </g>
   <g id="line2d_24">
    <path clip-path="url(#p4bb7c9efd7)" d="M 335.132273 251.410036 
L 338.423494 252.925124 
L 341.608547 251.489057 
L 344.899768 250.052989 
L 348.190989 248.616922 
L 351.163705 247.180854 
L 354.454926 245.744786 
L 357.639979 244.308719 
L 360.9312 242.872651 
L 364.116253 241.436584 
L 367.407474 240.000516 
L 370.698695 238.564449 
L 373.883747 237.128381 
L 377.174969 235.692314 
L 380.360021 234.256246 
L 383.651242 232.820179 
L 386.942464 231.384111 
L 389.915179 229.948043 
L 393.206401 228.511976 
L 396.391453 227.075908 
L 399.682674 225.639841 
L 402.867727 224.203773 
L 406.158948 222.767706 
L 409.450169 221.331638 
L 412.635222 219.895571 
L 415.926443 218.459503 
L 419.111496 217.023436 
L 422.402717 215.587368 
L 425.693938 214.1513 
L 428.666654 212.715233 
L 431.957875 211.279165 
L 435.142928 209.843098 
L 438.434149 208.40703 
L 441.619202 206.970963 
L 444.910423 205.534895 
L 448.201644 204.098828 
L 451.386697 202.66276 
L 454.677918 201.226692 
L 457.86297 199.790625 
L 461.154192 198.354557 
L 464.445413 196.91849 
L 467.524297 195.482422 
L 470.815518 194.046355 
L 474.000571 192.610287 
L 477.291792 191.17422 
L 480.476845 189.738152 
L 483.768066 188.302085 
L 487.059287 186.866017 
L 490.24434 185.429949 
L 493.535561 183.993882 
L 496.720613 182.557814 
L 500.011835 181.121747 
L 503.303056 179.685679 
L 506.275772 178.249612 
L 509.566993 176.813544 
L 512.752045 175.377477 
L 516.043266 173.941409 
L 519.228319 172.505342 
L 522.51954 171.069274 
L 525.810761 169.633206 
L 528.995814 168.197139 
L 532.287035 166.761071 
L 535.472088 165.325004 
L 538.763309 163.888936 
L 542.05453 162.452869 
L 545.027246 161.016801 
L 548.318467 159.580734 
L 551.50352 158.144666 
L 554.794741 156.708599 
L 557.979794 155.272531 
L 561.271015 153.836463 
L 564.562236 152.400396 
L 567.747289 150.964328 
L 571.03851 149.528261 
L 574.223563 148.092193 
L 577.514784 146.656126 
L 580.806005 145.220058 
L 583.778721 143.783991 
L 587.069942 142.347923 
L 590.254994 140.911856 
L 593.546216 139.475788 
L 596.731268 138.03972 
L 600.022489 136.603653 
L 603.313711 135.167585 
L 606.498763 133.731518 
L 609.789984 132.29545 
L 612.975037 130.859383 
L 616.266258 129.423315 
L 619.557479 127.987248 
L 622.636364 126.55118 
" style="fill:none;stroke:#800080;stroke-linecap:square;stroke-width:1.5;"/>
   </g>
   <g id="line2d_25">
    <path clip-path="url(#p4bb7c9efd7)" d="M 334.813768 378 
L 334.813768 51.84 
" style="fill:none;stroke:#000000;stroke-dasharray:5.55,2.4;stroke-dashoffset:0;stroke-opacity:0.5;stroke-width:1.5;"/>
   </g>
   <g id="patch_3">
    <path d="M 90 378 
L 90 51.84 
" style="fill:none;stroke:#000000;stroke-linecap:square;stroke-linejoin:miter;stroke-width:0.8;"/>
   </g>
   <g id="patch_4">
    <path d="M 648 378 
L 648 51.84 
" style="fill:none;stroke:#000000;stroke-linecap:square;stroke-linejoin:miter;stroke-width:0.8;"/>
   </g>
   <g id="patch_5">
    <path d="M 90 378 
L 648 378 
" style="fill:none;stroke:#000000;stroke-linecap:square;stroke-linejoin:miter;stroke-width:0.8;"/>
   </g>
   <g id="patch_6">
    <path d="M 90 51.84 
L 648 51.84 
" style="fill:none;stroke:#000000;stroke-linecap:square;stroke-linejoin:miter;stroke-width:0.8;"/>
   </g>
   <g id="text_21">
    <!-- IS_SUBSTANCE_ABUSE -->
    <g transform="translate(301.41375 32.068875)scale(0.12 -0.12)">
     <defs>
      <path d="M 3425 4513 
L 3425 3897 
Q 3066 4069 2747 4153 
Q 2428 4238 2131 4238 
Q 1616 4238 1336 4038 
Q 1056 3838 1056 3469 
Q 1056 3159 1242 3001 
Q 1428 2844 1947 2747 
L 2328 2669 
Q 3034 2534 3370 2195 
Q 3706 1856 3706 1288 
Q 3706 609 3251 259 
Q 2797 -91 1919 -91 
Q 1588 -91 1214 -16 
Q 841 59 441 206 
L 441 856 
Q 825 641 1194 531 
Q 1563 422 1919 422 
Q 2459 422 2753 634 
Q 3047 847 3047 1241 
Q 3047 1584 2836 1778 
Q 2625 1972 2144 2069 
L 1759 2144 
Q 1053 2284 737 2584 
Q 422 2884 422 3419 
Q 422 4038 858 4394 
Q 1294 4750 2059 4750 
Q 2388 4750 2728 4690 
Q 3069 4631 3425 4513 
z
" id="DejaVuSans-53" transform="scale(0.015625)"/>
      <path d="M 3263 -1063 
L 3263 -1509 
L -63 -1509 
L -63 -1063 
L 3263 -1063 
z
" id="DejaVuSans-5f" transform="scale(0.015625)"/>
      <path d="M 556 4666 
L 1191 4666 
L 1191 1831 
Q 1191 1081 1462 751 
Q 1734 422 2344 422 
Q 2950 422 3222 751 
Q 3494 1081 3494 1831 
L 3494 4666 
L 4128 4666 
L 4128 1753 
Q 4128 841 3676 375 
Q 3225 -91 2344 -91 
Q 1459 -91 1007 375 
Q 556 841 556 1753 
L 556 4666 
z
" id="DejaVuSans-55" transform="scale(0.015625)"/>
      <path d="M 1259 2228 
L 1259 519 
L 2272 519 
Q 2781 519 3026 730 
Q 3272 941 3272 1375 
Q 3272 1813 3026 2020 
Q 2781 2228 2272 2228 
L 1259 2228 
z
M 1259 4147 
L 1259 2741 
L 2194 2741 
Q 2656 2741 2882 2914 
Q 3109 3088 3109 3444 
Q 3109 3797 2882 3972 
Q 2656 4147 2194 4147 
L 1259 4147 
z
M 628 4666 
L 2241 4666 
Q 2963 4666 3353 4366 
Q 3744 4066 3744 3513 
Q 3744 3084 3544 2831 
Q 3344 2578 2956 2516 
Q 3422 2416 3680 2098 
Q 3938 1781 3938 1306 
Q 3938 681 3513 340 
Q 3088 0 2303 0 
L 628 0 
L 628 4666 
z
" id="DejaVuSans-42" transform="scale(0.015625)"/>
      <path d="M -19 4666 
L 3928 4666 
L 3928 4134 
L 2272 4134 
L 2272 0 
L 1638 0 
L 1638 4134 
L -19 4134 
L -19 4666 
z
" id="DejaVuSans-54" transform="scale(0.015625)"/>
      <path d="M 2188 4044 
L 1331 1722 
L 3047 1722 
L 2188 4044 
z
M 1831 4666 
L 2547 4666 
L 4325 0 
L 3669 0 
L 3244 1197 
L 1141 1197 
L 716 0 
L 50 0 
L 1831 4666 
z
" id="DejaVuSans-41" transform="scale(0.015625)"/>
      <path d="M 628 4666 
L 1478 4666 
L 3547 763 
L 3547 4666 
L 4159 4666 
L 4159 0 
L 3309 0 
L 1241 3903 
L 1241 0 
L 628 0 
L 628 4666 
z
" id="DejaVuSans-4e" transform="scale(0.015625)"/>
      <path d="M 628 4666 
L 3578 4666 
L 3578 4134 
L 1259 4134 
L 1259 2753 
L 3481 2753 
L 3481 2222 
L 1259 2222 
L 1259 531 
L 3634 531 
L 3634 0 
L 628 0 
L 628 4666 
z
" id="DejaVuSans-45" transform="scale(0.015625)"/>
     </defs>
     <use xlink:href="#DejaVuSans-49"/>
     <use x="29.492188" xlink:href="#DejaVuSans-53"/>
     <use x="92.96875" xlink:href="#DejaVuSans-5f"/>
     <use x="142.96875" xlink:href="#DejaVuSans-53"/>
     <use x="206.445312" xlink:href="#DejaVuSans-55"/>
     <use x="279.638672" xlink:href="#DejaVuSans-42"/>
     <use x="346.492188" xlink:href="#DejaVuSans-53"/>
     <use x="409.96875" xlink:href="#DejaVuSans-54"/>
     <use x="463.302734" xlink:href="#DejaVuSans-41"/>
     <use x="531.710938" xlink:href="#DejaVuSans-4e"/>
     <use x="606.515625" xlink:href="#DejaVuSans-43"/>
     <use x="676.339844" xlink:href="#DejaVuSans-45"/>
     <use x="739.523438" xlink:href="#DejaVuSans-5f"/>
     <use x="789.523438" xlink:href="#DejaVuSans-41"/>
     <use x="857.931641" xlink:href="#DejaVuSans-42"/>
     <use x="926.535156" xlink:href="#DejaVuSans-55"/>
     <use x="999.728516" xlink:href="#DejaVuSans-53"/>
     <use x="1063.205078" xlink:href="#DejaVuSans-45"/>
    </g>
    <!-- Retrospective Forecast - 2020-9-28 -->
    <g transform="translate(263.547188 45.84)scale(0.12 -0.12)">
     <defs>
      <path d="M 2841 2188 
Q 3044 2119 3236 1894 
Q 3428 1669 3622 1275 
L 4263 0 
L 3584 0 
L 2988 1197 
Q 2756 1666 2539 1819 
Q 2322 1972 1947 1972 
L 1259 1972 
L 1259 0 
L 628 0 
L 628 4666 
L 2053 4666 
Q 2853 4666 3247 4331 
Q 3641 3997 3641 3322 
Q 3641 2881 3436 2590 
Q 3231 2300 2841 2188 
z
M 1259 4147 
L 1259 2491 
L 2053 2491 
Q 2509 2491 2742 2702 
Q 2975 2913 2975 3322 
Q 2975 3731 2742 3939 
Q 2509 4147 2053 4147 
L 1259 4147 
z
" id="DejaVuSans-52" transform="scale(0.015625)"/>
      <path d="M 1959 3097 
Q 1497 3097 1228 2736 
Q 959 2375 959 1747 
Q 959 1119 1226 758 
Q 1494 397 1959 397 
Q 2419 397 2687 759 
Q 2956 1122 2956 1747 
Q 2956 2369 2687 2733 
Q 2419 3097 1959 3097 
z
M 1959 3584 
Q 2709 3584 3137 3096 
Q 3566 2609 3566 1747 
Q 3566 888 3137 398 
Q 2709 -91 1959 -91 
Q 1206 -91 779 398 
Q 353 888 353 1747 
Q 353 2609 779 3096 
Q 1206 3584 1959 3584 
z
" id="DejaVuSans-6f" transform="scale(0.015625)"/>
      <path d="M 1159 525 
L 1159 -1331 
L 581 -1331 
L 581 3500 
L 1159 3500 
L 1159 2969 
Q 1341 3281 1617 3432 
Q 1894 3584 2278 3584 
Q 2916 3584 3314 3078 
Q 3713 2572 3713 1747 
Q 3713 922 3314 415 
Q 2916 -91 2278 -91 
Q 1894 -91 1617 61 
Q 1341 213 1159 525 
z
M 3116 1747 
Q 3116 2381 2855 2742 
Q 2594 3103 2138 3103 
Q 1681 3103 1420 2742 
Q 1159 2381 1159 1747 
Q 1159 1113 1420 752 
Q 1681 391 2138 391 
Q 2594 391 2855 752 
Q 3116 1113 3116 1747 
z
" id="DejaVuSans-70" transform="scale(0.015625)"/>
      <path d="M 191 3500 
L 800 3500 
L 1894 563 
L 2988 3500 
L 3597 3500 
L 2284 0 
L 1503 0 
L 191 3500 
z
" id="DejaVuSans-76" transform="scale(0.015625)"/>
      <path d="M 628 4666 
L 3309 4666 
L 3309 4134 
L 1259 4134 
L 1259 2759 
L 3109 2759 
L 3109 2228 
L 1259 2228 
L 1259 0 
L 628 0 
L 628 4666 
z
" id="DejaVuSans-46" transform="scale(0.015625)"/>
      <path d="M 313 2009 
L 1997 2009 
L 1997 1497 
L 313 1497 
L 313 2009 
z
" id="DejaVuSans-2d" transform="scale(0.015625)"/>
     </defs>
     <use xlink:href="#DejaVuSans-52"/>
     <use x="64.982422" xlink:href="#DejaVuSans-65"/>
     <use x="126.505859" xlink:href="#DejaVuSans-74"/>
     <use x="165.714844" xlink:href="#DejaVuSans-72"/>
     <use x="204.578125" xlink:href="#DejaVuSans-6f"/>
     <use x="265.759766" xlink:href="#DejaVuSans-73"/>
     <use x="317.859375" xlink:href="#DejaVuSans-70"/>
     <use x="381.335938" xlink:href="#DejaVuSans-65"/>
     <use x="442.859375" xlink:href="#DejaVuSans-63"/>
     <use x="497.839844" xlink:href="#DejaVuSans-74"/>
     <use x="537.048828" xlink:href="#DejaVuSans-69"/>
     <use x="564.832031" xlink:href="#DejaVuSans-76"/>
     <use x="624.011719" xlink:href="#DejaVuSans-65"/>
     <use x="685.535156" xlink:href="#DejaVuSans-20"/>
     <use x="717.322266" xlink:href="#DejaVuSans-46"/>
     <use x="771.216797" xlink:href="#DejaVuSans-6f"/>
     <use x="832.398438" xlink:href="#DejaVuSans-72"/>
     <use x="871.261719" xlink:href="#DejaVuSans-65"/>
     <use x="932.785156" xlink:href="#DejaVuSans-63"/>
     <use x="987.765625" xlink:href="#DejaVuSans-61"/>
     <use x="1049.044922" xlink:href="#DejaVuSans-73"/>
     <use x="1101.144531" xlink:href="#DejaVuSans-74"/>
     <use x="1140.353516" xlink:href="#DejaVuSans-20"/>
     <use x="1172.140625" xlink:href="#DejaVuSans-2d"/>
     <use x="1208.224609" xlink:href="#DejaVuSans-20"/>
     <use x="1240.011719" xlink:href="#DejaVuSans-32"/>
     <use x="1303.634766" xlink:href="#DejaVuSans-30"/>
     <use x="1367.257812" xlink:href="#DejaVuSans-32"/>
     <use x="1430.880859" xlink:href="#DejaVuSans-30"/>
     <use x="1494.503906" xlink:href="#DejaVuSans-2d"/>
     <use x="1530.587891" xlink:href="#DejaVuSans-39"/>
     <use x="1594.210938" xlink:href="#DejaVuSans-2d"/>
     <use x="1630.294922" xlink:href="#DejaVuSans-32"/>
     <use x="1693.917969" xlink:href="#DejaVuSans-38"/>
    </g>
   </g>
   <g id="legend_1">
    <g id="patch_7">
     <path d="M 527.145313 118.5525 
L 641 118.5525 
Q 643 118.5525 643 116.5525 
L 643 58.84 
Q 643 56.84 641 56.84 
L 527.145313 56.84 
Q 525.145313 56.84 525.145313 58.84 
L 525.145313 116.5525 
Q 525.145313 118.5525 527.145313 118.5525 
z
" style="fill:#ffffff;opacity:0.8;stroke:#cccccc;stroke-linejoin:miter;"/>
    </g>
    <g id="line2d_26">
     <path d="M 529.145313 64.938438 
L 549.145313 64.938438 
" style="fill:none;stroke:#000000;stroke-linecap:square;stroke-width:1.5;"/>
    </g>
    <g id="line2d_27"/>
    <g id="text_22">
     <!-- Historical CPI -->
     <g transform="translate(557.145313 68.438438)scale(0.1 -0.1)">
      <defs>
       <path d="M 628 4666 
L 1259 4666 
L 1259 2753 
L 3553 2753 
L 3553 4666 
L 4184 4666 
L 4184 0 
L 3553 0 
L 3553 2222 
L 1259 2222 
L 1259 0 
L 628 0 
L 628 4666 
z
" id="DejaVuSans-48" transform="scale(0.015625)"/>
       <path d="M 603 4863 
L 1178 4863 
L 1178 0 
L 603 0 
L 603 4863 
z
" id="DejaVuSans-6c" transform="scale(0.015625)"/>
      </defs>
      <use xlink:href="#DejaVuSans-48"/>
      <use x="75.195312" xlink:href="#DejaVuSans-69"/>
      <use x="102.978516" xlink:href="#DejaVuSans-73"/>
      <use x="155.078125" xlink:href="#DejaVuSans-74"/>
      <use x="194.287109" xlink:href="#DejaVuSans-6f"/>
      <use x="255.46875" xlink:href="#DejaVuSans-72"/>
      <use x="296.582031" xlink:href="#DejaVuSans-69"/>
      <use x="324.365234" xlink:href="#DejaVuSans-63"/>
      <use x="379.345703" xlink:href="#DejaVuSans-61"/>
      <use x="440.625" xlink:href="#DejaVuSans-6c"/>
      <use x="468.408203" xlink:href="#DejaVuSans-20"/>
      <use x="500.195312" xlink:href="#DejaVuSans-43"/>
      <use x="570.019531" xlink:href="#DejaVuSans-50"/>
      <use x="630.322266" xlink:href="#DejaVuSans-49"/>
     </g>
    </g>
    <g id="line2d_28">
     <path d="M 529.145313 79.616563 
L 549.145313 79.616563 
" style="fill:none;stroke:#800080;stroke-linecap:square;stroke-width:1.5;"/>
    </g>
    <g id="line2d_29"/>
    <g id="text_23">
     <!-- Median Forecast -->
     <g transform="translate(557.145313 83.116563)scale(0.1 -0.1)">
      <defs>
       <path d="M 628 4666 
L 1569 4666 
L 2759 1491 
L 3956 4666 
L 4897 4666 
L 4897 0 
L 4281 0 
L 4281 4097 
L 3078 897 
L 2444 897 
L 1241 4097 
L 1241 0 
L 628 0 
L 628 4666 
z
" id="DejaVuSans-4d" transform="scale(0.015625)"/>
       <path d="M 2906 2969 
L 2906 4863 
L 3481 4863 
L 3481 0 
L 2906 0 
L 2906 525 
Q 2725 213 2448 61 
Q 2172 -91 1784 -91 
Q 1150 -91 751 415 
Q 353 922 353 1747 
Q 353 2572 751 3078 
Q 1150 3584 1784 3584 
Q 2172 3584 2448 3432 
Q 2725 3281 2906 2969 
z
M 947 1747 
Q 947 1113 1208 752 
Q 1469 391 1925 391 
Q 2381 391 2643 752 
Q 2906 1113 2906 1747 
Q 2906 2381 2643 2742 
Q 2381 3103 1925 3103 
Q 1469 3103 1208 2742 
Q 947 2381 947 1747 
z
" id="DejaVuSans-64" transform="scale(0.015625)"/>
       <path d="M 3513 2113 
L 3513 0 
L 2938 0 
L 2938 2094 
Q 2938 2591 2744 2837 
Q 2550 3084 2163 3084 
Q 1697 3084 1428 2787 
Q 1159 2491 1159 1978 
L 1159 0 
L 581 0 
L 581 3500 
L 1159 3500 
L 1159 2956 
Q 1366 3272 1645 3428 
Q 1925 3584 2291 3584 
Q 2894 3584 3203 3211 
Q 3513 2838 3513 2113 
z
" id="DejaVuSans-6e" transform="scale(0.015625)"/>
      </defs>
      <use xlink:href="#DejaVuSans-4d"/>
      <use x="86.279297" xlink:href="#DejaVuSans-65"/>
      <use x="147.802734" xlink:href="#DejaVuSans-64"/>
      <use x="211.279297" xlink:href="#DejaVuSans-69"/>
      <use x="239.0625" xlink:href="#DejaVuSans-61"/>
      <use x="300.341797" xlink:href="#DejaVuSans-6e"/>
      <use x="363.720703" xlink:href="#DejaVuSans-20"/>
      <use x="395.507812" xlink:href="#DejaVuSans-46"/>
      <use x="449.402344" xlink:href="#DejaVuSans-6f"/>
      <use x="510.583984" xlink:href="#DejaVuSans-72"/>
      <use x="549.447266" xlink:href="#DejaVuSans-65"/>
      <use x="610.970703" xlink:href="#DejaVuSans-63"/>
      <use x="665.951172" xlink:href="#DejaVuSans-61"/>
      <use x="727.230469" xlink:href="#DejaVuSans-73"/>
      <use x="779.330078" xlink:href="#DejaVuSans-74"/>
     </g>
    </g>
    <g id="line2d_30">
     <path d="M 529.145313 94.294688 
L 549.145313 94.294688 
" style="fill:none;stroke:#000000;stroke-dasharray:5.55,2.4;stroke-dashoffset:0;stroke-opacity:0.5;stroke-width:1.5;"/>
    </g>
    <g id="line2d_31"/>
    <g id="text_24">
     <!-- Cutoff Date -->
     <g transform="translate(557.145313 97.794688)scale(0.1 -0.1)">
      <defs>
       <path d="M 544 1381 
L 544 3500 
L 1119 3500 
L 1119 1403 
Q 1119 906 1312 657 
Q 1506 409 1894 409 
Q 2359 409 2629 706 
Q 2900 1003 2900 1516 
L 2900 3500 
L 3475 3500 
L 3475 0 
L 2900 0 
L 2900 538 
Q 2691 219 2414 64 
Q 2138 -91 1772 -91 
Q 1169 -91 856 284 
Q 544 659 544 1381 
z
M 1991 3584 
L 1991 3584 
z
" id="DejaVuSans-75" transform="scale(0.015625)"/>
       <path d="M 2375 4863 
L 2375 4384 
L 1825 4384 
Q 1516 4384 1395 4259 
Q 1275 4134 1275 3809 
L 1275 3500 
L 2222 3500 
L 2222 3053 
L 1275 3053 
L 1275 0 
L 697 0 
L 697 3053 
L 147 3053 
L 147 3500 
L 697 3500 
L 697 3744 
Q 697 4328 969 4595 
Q 1241 4863 1831 4863 
L 2375 4863 
z
" id="DejaVuSans-66" transform="scale(0.015625)"/>
      </defs>
      <use xlink:href="#DejaVuSans-43"/>
      <use x="69.824219" xlink:href="#DejaVuSans-75"/>
      <use x="133.203125" xlink:href="#DejaVuSans-74"/>
      <use x="172.412109" xlink:href="#DejaVuSans-6f"/>
      <use x="233.59375" xlink:href="#DejaVuSans-66"/>
      <use x="268.798828" xlink:href="#DejaVuSans-66"/>
      <use x="304.003906" xlink:href="#DejaVuSans-20"/>
      <use x="335.791016" xlink:href="#DejaVuSans-44"/>
      <use x="412.792969" xlink:href="#DejaVuSans-61"/>
      <use x="474.072266" xlink:href="#DejaVuSans-74"/>
      <use x="513.28125" xlink:href="#DejaVuSans-65"/>
     </g>
    </g>
    <g id="patch_8">
     <path d="M 529.145313 112.472813 
L 549.145313 112.472813 
L 549.145313 105.472813 
L 529.145313 105.472813 
z
" style="fill:#800080;opacity:0.5;"/>
    </g>
    <g id="text_25">
     <!-- 95% Confidence -->
     <g transform="translate(557.145313 112.472813)scale(0.1 -0.1)">
      <use xlink:href="#DejaVuSans-39"/>
      <use x="63.623047" xlink:href="#DejaVuSans-35"/>
      <use x="127.246094" xlink:href="#DejaVuSans-25"/>
      <use x="222.265625" xlink:href="#DejaVuSans-20"/>
      <use x="254.052734" xlink:href="#DejaVuSans-43"/>
      <use x="323.876953" xlink:href="#DejaVuSans-6f"/>
      <use x="385.058594" xlink:href="#DejaVuSans-6e"/>
      <use x="448.4375" xlink:href="#DejaVuSans-66"/>
      <use x="483.642578" xlink:href="#DejaVuSans-69"/>
      <use x="511.425781" xlink:href="#DejaVuSans-64"/>
      <use x="574.902344" xlink:href="#DejaVuSans-65"/>
      <use x="636.425781" xlink:href="#DejaVuSans-6e"/>
      <use x="699.804688" xlink:href="#DejaVuSans-63"/>
      <use x="754.785156" xlink:href="#DejaVuSans-65"/>
     </g>
    </g>
   </g>
  </g>
 </g>
 <defs>
  <clipPath id="p4bb7c9efd7">
   <rect height="326.16" width="558" x="90" y="51.84"/>
  </clipPath>
 </defs>
</svg>
