<?xml version="1.0" encoding="utf-8" standalone="no"?>
<!DOCTYPE svg PUBLIC "-//W3C//DTD SVG 1.1//EN"
  "http://www.w3.org/Graphics/SVG/1.1/DTD/svg11.dtd">
<svg xmlns:xlink="http://www.w3.org/1999/xlink" width="720pt" height="432pt" viewBox="0 0 720 432" xmlns="http://www.w3.org/2000/svg" version="1.1">
 <metadata>
  <rdf:RDF xmlns:dc="http://purl.org/dc/elements/1.1/" xmlns:cc="http://creativecommons.org/ns#" xmlns:rdf="http://www.w3.org/1999/02/22-rdf-syntax-ns#">
   <cc:Work>
    <dc:type rdf:resource="http://purl.org/dc/dcmitype/StillImage"/>
    <dc:date>2024-01-11T02:07:50.016011</dc:date>
    <dc:format>image/svg+xml</dc:format>
    <dc:creator>
     <cc:Agent>
      <dc:title>Matplotlib v3.8.1, https://matplotlib.org/</dc:title>
     </cc:Agent>
    </dc:creator>
   </cc:Work>
  </rdf:RDF>
 </metadata>
 <defs>
  <style type="text/css">*{stroke-linejoin: round; stroke-linecap: butt}</style>
 </defs>
 <g id="figure_1">
  <g id="patch_1">
   <path d="M 0 432 
L 720 432 
L 720 0 
L 0 0 
z
" style="fill: #ffffff"/>
  </g>
  <g id="axes_1">
   <g id="patch_2">
    <path d="M 90 384.48 
L 648 384.48 
L 648 51.84 
L 90 51.84 
z
" style="fill: #ffffff"/>
   </g>
   <g id="PolyCollection_1">
    <path d="M 234.184275 267.342434 
L 234.184275 337.531212 
L 236.469287 326.294757 
L 238.7543 323.91026 
L 241.039312 324.630198 
L 243.324324 330.791629 
L 245.609337 341.810373 
L 247.894349 349.673083 
L 250.179361 359.599906 
L 252.464373 363.637143 
L 254.749386 341.419841 
L 257.034398 286.743038 
L 259.31941 287.023987 
L 261.604423 280.664619 
L 263.889435 275.311844 
L 266.174447 184.824599 
L 268.459459 184.971761 
L 270.744472 212.772863 
L 273.029484 203.870725 
L 275.314496 221.317985 
L 277.599509 213.48885 
L 279.884521 230.425139 
L 282.169533 183.029359 
L 284.454545 186.169857 
L 286.739558 228.828541 
L 289.02457 266.395129 
L 291.309582 279.974927 
L 291.309582 157.410736 
L 291.309582 157.410736 
L 289.02457 141.987401 
L 286.739558 111.268064 
L 284.454545 72.756083 
L 282.169533 66.96 
L 279.884521 114.692673 
L 277.599509 98.360946 
L 275.314496 108.07958 
L 273.029484 90.53348 
L 270.744472 96.255011 
L 268.459459 68.237337 
L 266.174447 67.030555 
L 263.889435 182.085044 
L 261.604423 183.247119 
L 259.31941 194.276046 
L 257.034398 189.130521 
L 254.749386 269.003653 
L 252.464373 290.272533 
L 250.179361 286.518086 
L 247.894349 277.902468 
L 245.609337 270.972514 
L 243.324324 260.680989 
L 241.039312 254.125903 
L 238.7543 252.988386 
L 236.469287 255.350105 
L 234.184275 267.342434 
z
" clip-path="url(#pd03fa5a683)" style="fill: #800080; fill-opacity: 0.5"/>
   </g>
   <g id="matplotlib.axis_1">
    <g id="xtick_1">
     <g id="line2d_1">
      <defs>
       <path id="m753660ba64" d="M 0 0 
L 0 3.5 
" style="stroke: #000000; stroke-width: 0.8"/>
      </defs>
      <g>
       <use xlink:href="#m753660ba64" x="95.451386" y="384.48" style="stroke: #000000; stroke-width: 0.8"/>
      </g>
     </g>
     <g id="text_1">
      <!-- 2019 -->
      <g transform="translate(88.404625 414.848774) rotate(-45) scale(0.1 -0.1)">
       <defs>
        <path id="DejaVuSans-32" d="M 1228 531 
L 3431 531 
L 3431 0 
L 469 0 
L 469 531 
Q 828 903 1448 1529 
Q 2069 2156 2228 2338 
Q 2531 2678 2651 2914 
Q 2772 3150 2772 3378 
Q 2772 3750 2511 3984 
Q 2250 4219 1831 4219 
Q 1534 4219 1204 4116 
Q 875 4013 500 3803 
L 500 4441 
Q 881 4594 1212 4672 
Q 1544 4750 1819 4750 
Q 2544 4750 2975 4387 
Q 3406 4025 3406 3419 
Q 3406 3131 3298 2873 
Q 3191 2616 2906 2266 
Q 2828 2175 2409 1742 
Q 1991 1309 1228 531 
z
" transform="scale(0.015625)"/>
        <path id="DejaVuSans-30" d="M 2034 4250 
Q 1547 4250 1301 3770 
Q 1056 3291 1056 2328 
Q 1056 1369 1301 889 
Q 1547 409 2034 409 
Q 2525 409 2770 889 
Q 3016 1369 3016 2328 
Q 3016 3291 2770 3770 
Q 2525 4250 2034 4250 
z
M 2034 4750 
Q 2819 4750 3233 4129 
Q 3647 3509 3647 2328 
Q 3647 1150 3233 529 
Q 2819 -91 2034 -91 
Q 1250 -91 836 529 
Q 422 1150 422 2328 
Q 422 3509 836 4129 
Q 1250 4750 2034 4750 
z
" transform="scale(0.015625)"/>
        <path id="DejaVuSans-31" d="M 794 531 
L 1825 531 
L 1825 4091 
L 703 3866 
L 703 4441 
L 1819 4666 
L 2450 4666 
L 2450 531 
L 3481 531 
L 3481 0 
L 794 0 
L 794 531 
z
" transform="scale(0.015625)"/>
        <path id="DejaVuSans-39" d="M 703 97 
L 703 672 
Q 941 559 1184 500 
Q 1428 441 1663 441 
Q 2288 441 2617 861 
Q 2947 1281 2994 2138 
Q 2813 1869 2534 1725 
Q 2256 1581 1919 1581 
Q 1219 1581 811 2004 
Q 403 2428 403 3163 
Q 403 3881 828 4315 
Q 1253 4750 1959 4750 
Q 2769 4750 3195 4129 
Q 3622 3509 3622 2328 
Q 3622 1225 3098 567 
Q 2575 -91 1691 -91 
Q 1453 -91 1209 -44 
Q 966 3 703 97 
z
M 1959 2075 
Q 2384 2075 2632 2365 
Q 2881 2656 2881 3163 
Q 2881 3666 2632 3958 
Q 2384 4250 1959 4250 
Q 1534 4250 1286 3958 
Q 1038 3666 1038 3163 
Q 1038 2656 1286 2365 
Q 1534 2075 1959 2075 
z
" transform="scale(0.015625)"/>
       </defs>
       <use xlink:href="#DejaVuSans-32"/>
       <use xlink:href="#DejaVuSans-30" x="63.623047"/>
       <use xlink:href="#DejaVuSans-31" x="127.246094"/>
       <use xlink:href="#DejaVuSans-39" x="190.869141"/>
      </g>
     </g>
    </g>
    <g id="xtick_2">
     <g id="line2d_2">
      <g>
       <use xlink:href="#m753660ba64" x="214.598456" y="384.48" style="stroke: #000000; stroke-width: 0.8"/>
      </g>
     </g>
     <g id="text_2">
      <!-- 2020 -->
      <g transform="translate(207.551695 414.848774) rotate(-45) scale(0.1 -0.1)">
       <use xlink:href="#DejaVuSans-32"/>
       <use xlink:href="#DejaVuSans-30" x="63.623047"/>
       <use xlink:href="#DejaVuSans-32" x="127.246094"/>
       <use xlink:href="#DejaVuSans-30" x="190.869141"/>
      </g>
     </g>
    </g>
    <g id="xtick_3">
     <g id="line2d_3">
      <g>
       <use xlink:href="#m753660ba64" x="334.071955" y="384.48" style="stroke: #000000; stroke-width: 0.8"/>
      </g>
     </g>
     <g id="text_3">
      <!-- 2021 -->
      <g transform="translate(327.025194 414.848774) rotate(-45) scale(0.1 -0.1)">
       <use xlink:href="#DejaVuSans-32"/>
       <use xlink:href="#DejaVuSans-30" x="63.623047"/>
       <use xlink:href="#DejaVuSans-32" x="127.246094"/>
       <use xlink:href="#DejaVuSans-31" x="190.869141"/>
      </g>
     </g>
    </g>
    <g id="xtick_4">
     <g id="line2d_4">
      <g>
       <use xlink:href="#m753660ba64" x="453.219024" y="384.48" style="stroke: #000000; stroke-width: 0.8"/>
      </g>
     </g>
     <g id="text_4">
      <!-- 2022 -->
      <g transform="translate(446.172263 414.848774) rotate(-45) scale(0.1 -0.1)">
       <use xlink:href="#DejaVuSans-32"/>
       <use xlink:href="#DejaVuSans-30" x="63.623047"/>
       <use xlink:href="#DejaVuSans-32" x="127.246094"/>
       <use xlink:href="#DejaVuSans-32" x="190.869141"/>
      </g>
     </g>
    </g>
    <g id="xtick_5">
     <g id="line2d_5">
      <g>
       <use xlink:href="#m753660ba64" x="572.366093" y="384.48" style="stroke: #000000; stroke-width: 0.8"/>
      </g>
     </g>
     <g id="text_5">
      <!-- 2023 -->
      <g transform="translate(565.319332 414.848774) rotate(-45) scale(0.1 -0.1)">
       <defs>
        <path id="DejaVuSans-33" d="M 2597 2516 
Q 3050 2419 3304 2112 
Q 3559 1806 3559 1356 
Q 3559 666 3084 287 
Q 2609 -91 1734 -91 
Q 1441 -91 1130 -33 
Q 819 25 488 141 
L 488 750 
Q 750 597 1062 519 
Q 1375 441 1716 441 
Q 2309 441 2620 675 
Q 2931 909 2931 1356 
Q 2931 1769 2642 2001 
Q 2353 2234 1838 2234 
L 1294 2234 
L 1294 2753 
L 1863 2753 
Q 2328 2753 2575 2939 
Q 2822 3125 2822 3475 
Q 2822 3834 2567 4026 
Q 2313 4219 1838 4219 
Q 1578 4219 1281 4162 
Q 984 4106 628 3988 
L 628 4550 
Q 988 4650 1302 4700 
Q 1616 4750 1894 4750 
Q 2613 4750 3031 4423 
Q 3450 4097 3450 3541 
Q 3450 3153 3228 2886 
Q 3006 2619 2597 2516 
z
" transform="scale(0.015625)"/>
       </defs>
       <use xlink:href="#DejaVuSans-32"/>
       <use xlink:href="#DejaVuSans-30" x="63.623047"/>
       <use xlink:href="#DejaVuSans-32" x="127.246094"/>
       <use xlink:href="#DejaVuSans-33" x="190.869141"/>
      </g>
     </g>
    </g>
    <g id="text_6">
     <!-- Date -->
     <g transform="translate(357.049219 427.917773) scale(0.1 -0.1)">
      <defs>
       <path id="DejaVuSans-44" d="M 1259 4147 
L 1259 519 
L 2022 519 
Q 2988 519 3436 956 
Q 3884 1394 3884 2338 
Q 3884 3275 3436 3711 
Q 2988 4147 2022 4147 
L 1259 4147 
z
M 628 4666 
L 1925 4666 
Q 3281 4666 3915 4102 
Q 4550 3538 4550 2338 
Q 4550 1131 3912 565 
Q 3275 0 1925 0 
L 628 0 
L 628 4666 
z
" transform="scale(0.015625)"/>
       <path id="DejaVuSans-61" d="M 2194 1759 
Q 1497 1759 1228 1600 
Q 959 1441 959 1056 
Q 959 750 1161 570 
Q 1363 391 1709 391 
Q 2188 391 2477 730 
Q 2766 1069 2766 1631 
L 2766 1759 
L 2194 1759 
z
M 3341 1997 
L 3341 0 
L 2766 0 
L 2766 531 
Q 2569 213 2275 61 
Q 1981 -91 1556 -91 
Q 1019 -91 701 211 
Q 384 513 384 1019 
Q 384 1609 779 1909 
Q 1175 2209 1959 2209 
L 2766 2209 
L 2766 2266 
Q 2766 2663 2505 2880 
Q 2244 3097 1772 3097 
Q 1472 3097 1187 3025 
Q 903 2953 641 2809 
L 641 3341 
Q 956 3463 1253 3523 
Q 1550 3584 1831 3584 
Q 2591 3584 2966 3190 
Q 3341 2797 3341 1997 
z
" transform="scale(0.015625)"/>
       <path id="DejaVuSans-74" d="M 1172 4494 
L 1172 3500 
L 2356 3500 
L 2356 3053 
L 1172 3053 
L 1172 1153 
Q 1172 725 1289 603 
Q 1406 481 1766 481 
L 2356 481 
L 2356 0 
L 1766 0 
Q 1100 0 847 248 
Q 594 497 594 1153 
L 594 3053 
L 172 3053 
L 172 3500 
L 594 3500 
L 594 4494 
L 1172 4494 
z
" transform="scale(0.015625)"/>
       <path id="DejaVuSans-65" d="M 3597 1894 
L 3597 1613 
L 953 1613 
Q 991 1019 1311 708 
Q 1631 397 2203 397 
Q 2534 397 2845 478 
Q 3156 559 3463 722 
L 3463 178 
Q 3153 47 2828 -22 
Q 2503 -91 2169 -91 
Q 1331 -91 842 396 
Q 353 884 353 1716 
Q 353 2575 817 3079 
Q 1281 3584 2069 3584 
Q 2775 3584 3186 3129 
Q 3597 2675 3597 1894 
z
M 3022 2063 
Q 3016 2534 2758 2815 
Q 2500 3097 2075 3097 
Q 1594 3097 1305 2825 
Q 1016 2553 972 2059 
L 3022 2063 
z
" transform="scale(0.015625)"/>
      </defs>
      <use xlink:href="#DejaVuSans-44"/>
      <use xlink:href="#DejaVuSans-61" x="77.001953"/>
      <use xlink:href="#DejaVuSans-74" x="138.28125"/>
      <use xlink:href="#DejaVuSans-65" x="177.490234"/>
     </g>
    </g>
   </g>
   <g id="matplotlib.axis_2">
    <g id="ytick_1">
     <g id="line2d_6">
      <path d="M 90 358.048489 
L 648 358.048489 
" clip-path="url(#pd03fa5a683)" style="fill: none; stroke: #b0b0b0; stroke-width: 0.8; stroke-linecap: square"/>
     </g>
     <g id="line2d_7">
      <defs>
       <path id="m58b2f22535" d="M 0 0 
L -3.5 0 
" style="stroke: #000000; stroke-width: 0.8"/>
      </defs>
      <g>
       <use xlink:href="#m58b2f22535" x="90" y="358.048489" style="stroke: #000000; stroke-width: 0.8"/>
      </g>
     </g>
     <g id="text_7">
      <!-- 1000 -->
      <g transform="translate(57.55 361.847708) scale(0.1 -0.1)">
       <use xlink:href="#DejaVuSans-31"/>
       <use xlink:href="#DejaVuSans-30" x="63.623047"/>
       <use xlink:href="#DejaVuSans-30" x="127.246094"/>
       <use xlink:href="#DejaVuSans-30" x="190.869141"/>
      </g>
     </g>
    </g>
    <g id="ytick_2">
     <g id="line2d_8">
      <path d="M 90 310.11836 
L 648 310.11836 
" clip-path="url(#pd03fa5a683)" style="fill: none; stroke: #b0b0b0; stroke-width: 0.8; stroke-linecap: square"/>
     </g>
     <g id="line2d_9">
      <g>
       <use xlink:href="#m58b2f22535" x="90" y="310.11836" style="stroke: #000000; stroke-width: 0.8"/>
      </g>
     </g>
     <g id="text_8">
      <!-- 1500 -->
      <g transform="translate(57.55 313.917578) scale(0.1 -0.1)">
       <defs>
        <path id="DejaVuSans-35" d="M 691 4666 
L 3169 4666 
L 3169 4134 
L 1269 4134 
L 1269 2991 
Q 1406 3038 1543 3061 
Q 1681 3084 1819 3084 
Q 2600 3084 3056 2656 
Q 3513 2228 3513 1497 
Q 3513 744 3044 326 
Q 2575 -91 1722 -91 
Q 1428 -91 1123 -41 
Q 819 9 494 109 
L 494 744 
Q 775 591 1075 516 
Q 1375 441 1709 441 
Q 2250 441 2565 725 
Q 2881 1009 2881 1497 
Q 2881 1984 2565 2268 
Q 2250 2553 1709 2553 
Q 1456 2553 1204 2497 
Q 953 2441 691 2322 
L 691 4666 
z
" transform="scale(0.015625)"/>
       </defs>
       <use xlink:href="#DejaVuSans-31"/>
       <use xlink:href="#DejaVuSans-35" x="63.623047"/>
       <use xlink:href="#DejaVuSans-30" x="127.246094"/>
       <use xlink:href="#DejaVuSans-30" x="190.869141"/>
      </g>
     </g>
    </g>
    <g id="ytick_3">
     <g id="line2d_10">
      <path d="M 90 262.18823 
L 648 262.18823 
" clip-path="url(#pd03fa5a683)" style="fill: none; stroke: #b0b0b0; stroke-width: 0.8; stroke-linecap: square"/>
     </g>
     <g id="line2d_11">
      <g>
       <use xlink:href="#m58b2f22535" x="90" y="262.18823" style="stroke: #000000; stroke-width: 0.8"/>
      </g>
     </g>
     <g id="text_9">
      <!-- 2000 -->
      <g transform="translate(57.55 265.987449) scale(0.1 -0.1)">
       <use xlink:href="#DejaVuSans-32"/>
       <use xlink:href="#DejaVuSans-30" x="63.623047"/>
       <use xlink:href="#DejaVuSans-30" x="127.246094"/>
       <use xlink:href="#DejaVuSans-30" x="190.869141"/>
      </g>
     </g>
    </g>
    <g id="ytick_4">
     <g id="line2d_12">
      <path d="M 90 214.2581 
L 648 214.2581 
" clip-path="url(#pd03fa5a683)" style="fill: none; stroke: #b0b0b0; stroke-width: 0.8; stroke-linecap: square"/>
     </g>
     <g id="line2d_13">
      <g>
       <use xlink:href="#m58b2f22535" x="90" y="214.2581" style="stroke: #000000; stroke-width: 0.8"/>
      </g>
     </g>
     <g id="text_10">
      <!-- 2500 -->
      <g transform="translate(57.55 218.057319) scale(0.1 -0.1)">
       <use xlink:href="#DejaVuSans-32"/>
       <use xlink:href="#DejaVuSans-35" x="63.623047"/>
       <use xlink:href="#DejaVuSans-30" x="127.246094"/>
       <use xlink:href="#DejaVuSans-30" x="190.869141"/>
      </g>
     </g>
    </g>
    <g id="ytick_5">
     <g id="line2d_14">
      <path d="M 90 166.327971 
L 648 166.327971 
" clip-path="url(#pd03fa5a683)" style="fill: none; stroke: #b0b0b0; stroke-width: 0.8; stroke-linecap: square"/>
     </g>
     <g id="line2d_15">
      <g>
       <use xlink:href="#m58b2f22535" x="90" y="166.327971" style="stroke: #000000; stroke-width: 0.8"/>
      </g>
     </g>
     <g id="text_11">
      <!-- 3000 -->
      <g transform="translate(57.55 170.127189) scale(0.1 -0.1)">
       <use xlink:href="#DejaVuSans-33"/>
       <use xlink:href="#DejaVuSans-30" x="63.623047"/>
       <use xlink:href="#DejaVuSans-30" x="127.246094"/>
       <use xlink:href="#DejaVuSans-30" x="190.869141"/>
      </g>
     </g>
    </g>
    <g id="ytick_6">
     <g id="line2d_16">
      <path d="M 90 118.397841 
L 648 118.397841 
" clip-path="url(#pd03fa5a683)" style="fill: none; stroke: #b0b0b0; stroke-width: 0.8; stroke-linecap: square"/>
     </g>
     <g id="line2d_17">
      <g>
       <use xlink:href="#m58b2f22535" x="90" y="118.397841" style="stroke: #000000; stroke-width: 0.8"/>
      </g>
     </g>
     <g id="text_12">
      <!-- 3500 -->
      <g transform="translate(57.55 122.19706) scale(0.1 -0.1)">
       <use xlink:href="#DejaVuSans-33"/>
       <use xlink:href="#DejaVuSans-35" x="63.623047"/>
       <use xlink:href="#DejaVuSans-30" x="127.246094"/>
       <use xlink:href="#DejaVuSans-30" x="190.869141"/>
      </g>
     </g>
    </g>
    <g id="ytick_7">
     <g id="line2d_18">
      <path d="M 90 70.467711 
L 648 70.467711 
" clip-path="url(#pd03fa5a683)" style="fill: none; stroke: #b0b0b0; stroke-width: 0.8; stroke-linecap: square"/>
     </g>
     <g id="line2d_19">
      <g>
       <use xlink:href="#m58b2f22535" x="90" y="70.467711" style="stroke: #000000; stroke-width: 0.8"/>
      </g>
     </g>
     <g id="text_13">
      <!-- 4000 -->
      <g transform="translate(57.55 74.26693) scale(0.1 -0.1)">
       <defs>
        <path id="DejaVuSans-34" d="M 2419 4116 
L 825 1625 
L 2419 1625 
L 2419 4116 
z
M 2253 4666 
L 3047 4666 
L 3047 1625 
L 3713 1625 
L 3713 1100 
L 3047 1100 
L 3047 0 
L 2419 0 
L 2419 1100 
L 313 1100 
L 313 1709 
L 2253 4666 
z
" transform="scale(0.015625)"/>
       </defs>
       <use xlink:href="#DejaVuSans-34"/>
       <use xlink:href="#DejaVuSans-30" x="63.623047"/>
       <use xlink:href="#DejaVuSans-30" x="127.246094"/>
       <use xlink:href="#DejaVuSans-30" x="190.869141"/>
      </g>
     </g>
    </g>
    <g id="text_14">
     <!-- Number of Interactions -->
     <g transform="translate(51.470312 275.974844) rotate(-90) scale(0.1 -0.1)">
      <defs>
       <path id="DejaVuSans-4e" d="M 628 4666 
L 1478 4666 
L 3547 763 
L 3547 4666 
L 4159 4666 
L 4159 0 
L 3309 0 
L 1241 3903 
L 1241 0 
L 628 0 
L 628 4666 
z
" transform="scale(0.015625)"/>
       <path id="DejaVuSans-75" d="M 544 1381 
L 544 3500 
L 1119 3500 
L 1119 1403 
Q 1119 906 1312 657 
Q 1506 409 1894 409 
Q 2359 409 2629 706 
Q 2900 1003 2900 1516 
L 2900 3500 
L 3475 3500 
L 3475 0 
L 2900 0 
L 2900 538 
Q 2691 219 2414 64 
Q 2138 -91 1772 -91 
Q 1169 -91 856 284 
Q 544 659 544 1381 
z
M 1991 3584 
L 1991 3584 
z
" transform="scale(0.015625)"/>
       <path id="DejaVuSans-6d" d="M 3328 2828 
Q 3544 3216 3844 3400 
Q 4144 3584 4550 3584 
Q 5097 3584 5394 3201 
Q 5691 2819 5691 2113 
L 5691 0 
L 5113 0 
L 5113 2094 
Q 5113 2597 4934 2840 
Q 4756 3084 4391 3084 
Q 3944 3084 3684 2787 
Q 3425 2491 3425 1978 
L 3425 0 
L 2847 0 
L 2847 2094 
Q 2847 2600 2669 2842 
Q 2491 3084 2119 3084 
Q 1678 3084 1418 2786 
Q 1159 2488 1159 1978 
L 1159 0 
L 581 0 
L 581 3500 
L 1159 3500 
L 1159 2956 
Q 1356 3278 1631 3431 
Q 1906 3584 2284 3584 
Q 2666 3584 2933 3390 
Q 3200 3197 3328 2828 
z
" transform="scale(0.015625)"/>
       <path id="DejaVuSans-62" d="M 3116 1747 
Q 3116 2381 2855 2742 
Q 2594 3103 2138 3103 
Q 1681 3103 1420 2742 
Q 1159 2381 1159 1747 
Q 1159 1113 1420 752 
Q 1681 391 2138 391 
Q 2594 391 2855 752 
Q 3116 1113 3116 1747 
z
M 1159 2969 
Q 1341 3281 1617 3432 
Q 1894 3584 2278 3584 
Q 2916 3584 3314 3078 
Q 3713 2572 3713 1747 
Q 3713 922 3314 415 
Q 2916 -91 2278 -91 
Q 1894 -91 1617 61 
Q 1341 213 1159 525 
L 1159 0 
L 581 0 
L 581 4863 
L 1159 4863 
L 1159 2969 
z
" transform="scale(0.015625)"/>
       <path id="DejaVuSans-72" d="M 2631 2963 
Q 2534 3019 2420 3045 
Q 2306 3072 2169 3072 
Q 1681 3072 1420 2755 
Q 1159 2438 1159 1844 
L 1159 0 
L 581 0 
L 581 3500 
L 1159 3500 
L 1159 2956 
Q 1341 3275 1631 3429 
Q 1922 3584 2338 3584 
Q 2397 3584 2469 3576 
Q 2541 3569 2628 3553 
L 2631 2963 
z
" transform="scale(0.015625)"/>
       <path id="DejaVuSans-20" transform="scale(0.015625)"/>
       <path id="DejaVuSans-6f" d="M 1959 3097 
Q 1497 3097 1228 2736 
Q 959 2375 959 1747 
Q 959 1119 1226 758 
Q 1494 397 1959 397 
Q 2419 397 2687 759 
Q 2956 1122 2956 1747 
Q 2956 2369 2687 2733 
Q 2419 3097 1959 3097 
z
M 1959 3584 
Q 2709 3584 3137 3096 
Q 3566 2609 3566 1747 
Q 3566 888 3137 398 
Q 2709 -91 1959 -91 
Q 1206 -91 779 398 
Q 353 888 353 1747 
Q 353 2609 779 3096 
Q 1206 3584 1959 3584 
z
" transform="scale(0.015625)"/>
       <path id="DejaVuSans-66" d="M 2375 4863 
L 2375 4384 
L 1825 4384 
Q 1516 4384 1395 4259 
Q 1275 4134 1275 3809 
L 1275 3500 
L 2222 3500 
L 2222 3053 
L 1275 3053 
L 1275 0 
L 697 0 
L 697 3053 
L 147 3053 
L 147 3500 
L 697 3500 
L 697 3744 
Q 697 4328 969 4595 
Q 1241 4863 1831 4863 
L 2375 4863 
z
" transform="scale(0.015625)"/>
       <path id="DejaVuSans-49" d="M 628 4666 
L 1259 4666 
L 1259 0 
L 628 0 
L 628 4666 
z
" transform="scale(0.015625)"/>
       <path id="DejaVuSans-6e" d="M 3513 2113 
L 3513 0 
L 2938 0 
L 2938 2094 
Q 2938 2591 2744 2837 
Q 2550 3084 2163 3084 
Q 1697 3084 1428 2787 
Q 1159 2491 1159 1978 
L 1159 0 
L 581 0 
L 581 3500 
L 1159 3500 
L 1159 2956 
Q 1366 3272 1645 3428 
Q 1925 3584 2291 3584 
Q 2894 3584 3203 3211 
Q 3513 2838 3513 2113 
z
" transform="scale(0.015625)"/>
       <path id="DejaVuSans-63" d="M 3122 3366 
L 3122 2828 
Q 2878 2963 2633 3030 
Q 2388 3097 2138 3097 
Q 1578 3097 1268 2742 
Q 959 2388 959 1747 
Q 959 1106 1268 751 
Q 1578 397 2138 397 
Q 2388 397 2633 464 
Q 2878 531 3122 666 
L 3122 134 
Q 2881 22 2623 -34 
Q 2366 -91 2075 -91 
Q 1284 -91 818 406 
Q 353 903 353 1747 
Q 353 2603 823 3093 
Q 1294 3584 2113 3584 
Q 2378 3584 2631 3529 
Q 2884 3475 3122 3366 
z
" transform="scale(0.015625)"/>
       <path id="DejaVuSans-69" d="M 603 3500 
L 1178 3500 
L 1178 0 
L 603 0 
L 603 3500 
z
M 603 4863 
L 1178 4863 
L 1178 4134 
L 603 4134 
L 603 4863 
z
" transform="scale(0.015625)"/>
       <path id="DejaVuSans-73" d="M 2834 3397 
L 2834 2853 
Q 2591 2978 2328 3040 
Q 2066 3103 1784 3103 
Q 1356 3103 1142 2972 
Q 928 2841 928 2578 
Q 928 2378 1081 2264 
Q 1234 2150 1697 2047 
L 1894 2003 
Q 2506 1872 2764 1633 
Q 3022 1394 3022 966 
Q 3022 478 2636 193 
Q 2250 -91 1575 -91 
Q 1294 -91 989 -36 
Q 684 19 347 128 
L 347 722 
Q 666 556 975 473 
Q 1284 391 1588 391 
Q 1994 391 2212 530 
Q 2431 669 2431 922 
Q 2431 1156 2273 1281 
Q 2116 1406 1581 1522 
L 1381 1569 
Q 847 1681 609 1914 
Q 372 2147 372 2553 
Q 372 3047 722 3315 
Q 1072 3584 1716 3584 
Q 2034 3584 2315 3537 
Q 2597 3491 2834 3397 
z
" transform="scale(0.015625)"/>
      </defs>
      <use xlink:href="#DejaVuSans-4e"/>
      <use xlink:href="#DejaVuSans-75" x="74.804688"/>
      <use xlink:href="#DejaVuSans-6d" x="138.183594"/>
      <use xlink:href="#DejaVuSans-62" x="235.595703"/>
      <use xlink:href="#DejaVuSans-65" x="299.072266"/>
      <use xlink:href="#DejaVuSans-72" x="360.595703"/>
      <use xlink:href="#DejaVuSans-20" x="401.708984"/>
      <use xlink:href="#DejaVuSans-6f" x="433.496094"/>
      <use xlink:href="#DejaVuSans-66" x="494.677734"/>
      <use xlink:href="#DejaVuSans-20" x="529.882812"/>
      <use xlink:href="#DejaVuSans-49" x="561.669922"/>
      <use xlink:href="#DejaVuSans-6e" x="591.162109"/>
      <use xlink:href="#DejaVuSans-74" x="654.541016"/>
      <use xlink:href="#DejaVuSans-65" x="693.75"/>
      <use xlink:href="#DejaVuSans-72" x="755.273438"/>
      <use xlink:href="#DejaVuSans-61" x="796.386719"/>
      <use xlink:href="#DejaVuSans-63" x="857.666016"/>
      <use xlink:href="#DejaVuSans-74" x="912.646484"/>
      <use xlink:href="#DejaVuSans-69" x="951.855469"/>
      <use xlink:href="#DejaVuSans-6f" x="979.638672"/>
      <use xlink:href="#DejaVuSans-6e" x="1040.820312"/>
      <use xlink:href="#DejaVuSans-73" x="1104.199219"/>
     </g>
    </g>
   </g>
   <g id="line2d_20">
    <path d="M 115.363636 322.005032 
L 117.648649 314.719652 
L 119.933661 304.846045 
L 122.218673 300.340613 
L 124.503686 305.804648 
L 126.788698 321.813311 
L 129.07371 321.14229 
L 131.358722 333.508263 
L 133.643735 307.338412 
L 135.928747 317.69132 
L 138.213759 306.188089 
L 140.498771 316.157556 
L 142.783784 324.497399 
L 145.068796 309.159757 
L 147.353808 313.185888 
L 149.638821 334.946167 
L 151.923833 342.902568 
L 154.208845 353.447197 
L 156.493857 326.702185 
L 158.77887 302.92884 
L 161.063882 318.745783 
L 163.348894 319.225084 
L 165.633907 341.848106 
L 167.918919 354.789241 
L 170.203931 338.972298 
L 172.488943 325.07256 
L 174.773956 330.153154 
L 177.058968 316.349277 
L 179.34398 325.935302 
L 181.628993 326.318744 
L 183.914005 307.530133 
L 186.199017 313.569329 
L 188.484029 307.817713 
L 190.769042 310.981102 
L 193.054054 286.249155 
L 195.339066 264.680597 
L 197.624079 300.244753 
L 199.909091 281.168561 
L 202.194103 303.887443 
L 204.479115 276.087968 
L 206.764128 302.449539 
L 209.04914 322.005032 
L 211.334152 308.968037 
L 213.619165 362.553922 
L 215.904177 317.78718 
L 218.189189 279.730657 
L 220.474201 316.157556 
L 222.759214 275.321086 
L 225.044226 312.706587 
L 227.329238 275.896247 
L 229.614251 286.536736 
L 231.899263 291.61733 
L 234.184275 305.229486 
L 236.469287 320.950569 
L 238.7543 322.388473 
L 241.039312 332.54966 
L 243.324324 330.344874 
L 245.609337 277.813452 
L 247.894349 214.353961 
L 250.179361 240.523811 
L 252.464373 237.743864 
L 254.749386 226.911655 
L 257.034398 85.038471 
L 261.604423 183.295236 
L 263.889435 145.622155 
L 266.174447 180.515289 
L 268.459459 164.794206 
L 270.744472 192.11438 
L 273.029484 107.565632 
L 275.314496 134.310644 
L 277.599509 212.916057 
L 279.884521 231.129506 
L 282.169533 227.007515 
L 284.454545 255.286291 
L 286.739558 218.571812 
L 289.02457 225.28203 
L 291.309582 217.229768 
L 293.594595 222.118642 
L 295.879607 230.937785 
L 298.164619 218.667672 
L 300.449631 259.024841 
L 302.734644 254.90285 
L 305.019656 221.064179 
L 307.304668 260.750326 
L 309.589681 292.575932 
L 311.874693 268.035706 
L 314.159705 266.789522 
L 316.444717 249.918117 
L 318.72973 263.913715 
L 321.014742 248.671933 
L 323.299754 242.057576 
L 325.584767 207.835463 
L 327.869779 222.693803 
L 330.154791 256.532475 
L 332.439803 280.880981 
L 334.724816 302.92884 
L 337.009828 273.020439 
L 339.29484 227.582676 
L 343.864865 216.079445 
L 346.149877 219.913856 
L 348.434889 267.939846 
L 350.719902 261.708929 
L 353.004914 270.623933 
L 355.289926 277.430011 
L 357.574939 208.218904 
L 359.859951 241.961715 
L 362.144963 223.844126 
L 364.429975 277.525871 
L 366.714988 243.495479 
L 369 223.748266 
L 371.285012 260.846186 
L 373.570025 254.327689 
L 375.855037 260.175165 
L 378.140049 270.144632 
L 380.425061 253.273226 
L 382.710074 215.408423 
L 384.995086 265.351619 
L 387.280098 231.225366 
L 389.565111 276.85485 
L 391.850123 265.543339 
L 394.135135 304.846045 
L 396.420147 263.146833 
L 398.70516 237.168702 
L 400.990172 240.14037 
L 403.275184 302.257818 
L 405.560197 271.678396 
L 407.845209 287.399478 
L 410.130221 291.042168 
L 412.415233 280.49754 
L 414.700246 311.747984 
L 416.985258 282.318884 
L 419.27027 220.776598 
L 421.555283 249.630536 
L 423.840295 274.362483 
L 426.125307 217.517349 
L 428.410319 196.715673 
L 430.695332 188.567551 
L 432.980344 242.824458 
L 435.265356 233.813593 
L 437.550369 283.948509 
L 439.835381 231.033646 
L 442.120393 199.3039 
L 444.405405 229.212301 
L 446.690418 246.946449 
L 448.97543 218.092511 
L 451.260442 300.340613 
L 453.545455 276.375548 
L 455.830467 229.499882 
L 458.115479 186.937926 
L 460.400491 230.266764 
L 462.685504 187.800669 
L 464.970516 204.192773 
L 467.255528 236.30596 
L 469.540541 198.537018 
L 471.825553 184.73314 
L 474.110565 208.123044 
L 476.395577 258.928981 
L 478.68059 227.678537 
L 480.965602 170.737543 
L 483.250614 207.835463 
L 485.535627 274.841784 
L 487.820639 292.384212 
L 490.105651 253.560807 
L 492.390663 279.922378 
L 494.675676 224.515148 
L 496.960688 237.839724 
L 499.2457 250.493278 
L 501.530713 251.931182 
L 503.815725 260.271025 
L 506.100737 168.532757 
L 508.385749 227.966117 
L 510.670762 250.205698 
L 512.955774 313.85691 
L 515.240786 242.632737 
L 517.525799 300.819915 
L 519.810811 220.201436 
L 522.095823 316.540997 
L 524.380835 293.342814 
L 526.665848 265.543339 
L 528.95086 270.623933 
L 531.235872 328.235949 
L 533.520885 287.207758 
L 535.805897 167.574154 
L 538.090909 297.273085 
L 540.375921 298.519268 
L 542.660934 290.562867 
L 544.945946 236.593541 
L 547.230958 265.92678 
L 549.515971 291.90491 
L 551.800983 221.255899 
L 554.085995 234.580475 
L 556.371007 207.547882 
L 558.65602 248.000912 
L 560.941032 248.288492 
L 563.226044 267.556405 
L 565.511057 248.863654 
L 567.796069 272.061837 
L 570.081081 305.804648 
L 572.366093 261.037907 
L 574.651106 250.109837 
L 576.936118 222.597943 
L 579.22113 139.582958 
L 581.506143 280.880981 
L 583.791155 178.885665 
L 586.076167 254.615269 
L 588.361179 208.889926 
L 590.646192 208.410624 
L 592.931204 227.870257 
L 595.216216 220.584877 
L 597.501229 180.227708 
L 599.786241 251.547741 
L 602.071253 247.23403 
L 604.356265 220.201436 
L 606.641278 217.229768 
L 608.92629 238.798327 
L 611.211302 265.83092 
L 613.496314 218.667672 
L 615.781327 303.504002 
L 618.066339 138.911936 
L 620.351351 250.013977 
L 622.636364 369.36 
L 622.636364 369.36 
" clip-path="url(#pd03fa5a683)" style="fill: none; stroke: #000000; stroke-width: 1.5; stroke-linecap: square"/>
   </g>
   <g id="line2d_21">
    <path d="M 234.184275 302.436823 
L 236.469287 290.822431 
L 238.7543 288.449323 
L 241.039312 289.378051 
L 243.324324 295.736309 
L 245.609337 306.391444 
L 247.894349 313.787776 
L 250.179361 323.058996 
L 252.464373 326.954838 
L 254.749386 305.211747 
L 257.034398 237.93678 
L 259.31941 240.650016 
L 261.604423 231.955869 
L 263.889435 228.698444 
L 266.174447 125.927577 
L 268.459459 126.604549 
L 270.744472 154.513937 
L 273.029484 147.202102 
L 275.314496 164.698782 
L 277.599509 155.924898 
L 279.884521 172.558906 
L 282.169533 124.99468 
L 284.454545 129.46297 
L 286.739558 170.048302 
L 289.02457 204.191265 
L 291.309582 218.692831 
" clip-path="url(#pd03fa5a683)" style="fill: none; stroke: #800080; stroke-width: 1.5; stroke-linecap: square"/>
   </g>
   <g id="line2d_22">
    <path d="M 234.184275 384.48 
L 234.184275 51.84 
" clip-path="url(#pd03fa5a683)" style="fill: none; stroke-dasharray: 5.55,2.4; stroke-dashoffset: 0; stroke: #000000; stroke-opacity: 0.5; stroke-width: 1.5"/>
   </g>
   <g id="patch_3">
    <path d="M 90 384.48 
L 90 51.84 
" style="fill: none; stroke: #000000; stroke-width: 0.8; stroke-linejoin: miter; stroke-linecap: square"/>
   </g>
   <g id="patch_4">
    <path d="M 648 384.48 
L 648 51.84 
" style="fill: none; stroke: #000000; stroke-width: 0.8; stroke-linejoin: miter; stroke-linecap: square"/>
   </g>
   <g id="patch_5">
    <path d="M 90 384.48 
L 648 384.48 
" style="fill: none; stroke: #000000; stroke-width: 0.8; stroke-linejoin: miter; stroke-linecap: square"/>
   </g>
   <g id="patch_6">
    <path d="M 90 51.84 
L 648 51.84 
" style="fill: none; stroke: #000000; stroke-width: 0.8; stroke-linejoin: miter; stroke-linecap: square"/>
   </g>
   <g id="text_15">
    <!-- IS_MENTAL_HEALTH -->
    <g transform="translate(310.214063 18.6315) scale(0.12 -0.12)">
     <defs>
      <path id="DejaVuSans-53" d="M 3425 4513 
L 3425 3897 
Q 3066 4069 2747 4153 
Q 2428 4238 2131 4238 
Q 1616 4238 1336 4038 
Q 1056 3838 1056 3469 
Q 1056 3159 1242 3001 
Q 1428 2844 1947 2747 
L 2328 2669 
Q 3034 2534 3370 2195 
Q 3706 1856 3706 1288 
Q 3706 609 3251 259 
Q 2797 -91 1919 -91 
Q 1588 -91 1214 -16 
Q 841 59 441 206 
L 441 856 
Q 825 641 1194 531 
Q 1563 422 1919 422 
Q 2459 422 2753 634 
Q 3047 847 3047 1241 
Q 3047 1584 2836 1778 
Q 2625 1972 2144 2069 
L 1759 2144 
Q 1053 2284 737 2584 
Q 422 2884 422 3419 
Q 422 4038 858 4394 
Q 1294 4750 2059 4750 
Q 2388 4750 2728 4690 
Q 3069 4631 3425 4513 
z
" transform="scale(0.015625)"/>
      <path id="DejaVuSans-5f" d="M 3263 -1063 
L 3263 -1509 
L -63 -1509 
L -63 -1063 
L 3263 -1063 
z
" transform="scale(0.015625)"/>
      <path id="DejaVuSans-4d" d="M 628 4666 
L 1569 4666 
L 2759 1491 
L 3956 4666 
L 4897 4666 
L 4897 0 
L 4281 0 
L 4281 4097 
L 3078 897 
L 2444 897 
L 1241 4097 
L 1241 0 
L 628 0 
L 628 4666 
z
" transform="scale(0.015625)"/>
      <path id="DejaVuSans-45" d="M 628 4666 
L 3578 4666 
L 3578 4134 
L 1259 4134 
L 1259 2753 
L 3481 2753 
L 3481 2222 
L 1259 2222 
L 1259 531 
L 3634 531 
L 3634 0 
L 628 0 
L 628 4666 
z
" transform="scale(0.015625)"/>
      <path id="DejaVuSans-54" d="M -19 4666 
L 3928 4666 
L 3928 4134 
L 2272 4134 
L 2272 0 
L 1638 0 
L 1638 4134 
L -19 4134 
L -19 4666 
z
" transform="scale(0.015625)"/>
      <path id="DejaVuSans-41" d="M 2188 4044 
L 1331 1722 
L 3047 1722 
L 2188 4044 
z
M 1831 4666 
L 2547 4666 
L 4325 0 
L 3669 0 
L 3244 1197 
L 1141 1197 
L 716 0 
L 50 0 
L 1831 4666 
z
" transform="scale(0.015625)"/>
      <path id="DejaVuSans-4c" d="M 628 4666 
L 1259 4666 
L 1259 531 
L 3531 531 
L 3531 0 
L 628 0 
L 628 4666 
z
" transform="scale(0.015625)"/>
      <path id="DejaVuSans-48" d="M 628 4666 
L 1259 4666 
L 1259 2753 
L 3553 2753 
L 3553 4666 
L 4184 4666 
L 4184 0 
L 3553 0 
L 3553 2222 
L 1259 2222 
L 1259 0 
L 628 0 
L 628 4666 
z
" transform="scale(0.015625)"/>
     </defs>
     <use xlink:href="#DejaVuSans-49"/>
     <use xlink:href="#DejaVuSans-53" x="29.492188"/>
     <use xlink:href="#DejaVuSans-5f" x="92.96875"/>
     <use xlink:href="#DejaVuSans-4d" x="142.96875"/>
     <use xlink:href="#DejaVuSans-45" x="229.248047"/>
     <use xlink:href="#DejaVuSans-4e" x="292.431641"/>
     <use xlink:href="#DejaVuSans-54" x="367.236328"/>
     <use xlink:href="#DejaVuSans-41" x="420.570312"/>
     <use xlink:href="#DejaVuSans-4c" x="488.978516"/>
     <use xlink:href="#DejaVuSans-5f" x="544.691406"/>
     <use xlink:href="#DejaVuSans-48" x="594.691406"/>
     <use xlink:href="#DejaVuSans-45" x="669.886719"/>
     <use xlink:href="#DejaVuSans-41" x="733.070312"/>
     <use xlink:href="#DejaVuSans-4c" x="801.478516"/>
     <use xlink:href="#DejaVuSans-54" x="843.441406"/>
     <use xlink:href="#DejaVuSans-48" x="904.525391"/>
    </g>
    <!-- Retrospective Forecast - 2020-03-01 - COVID-19 Wave#1  -->
    <g transform="translate(195.520313 32.402625) scale(0.12 -0.12)">
     <defs>
      <path id="DejaVuSans-52" d="M 2841 2188 
Q 3044 2119 3236 1894 
Q 3428 1669 3622 1275 
L 4263 0 
L 3584 0 
L 2988 1197 
Q 2756 1666 2539 1819 
Q 2322 1972 1947 1972 
L 1259 1972 
L 1259 0 
L 628 0 
L 628 4666 
L 2053 4666 
Q 2853 4666 3247 4331 
Q 3641 3997 3641 3322 
Q 3641 2881 3436 2590 
Q 3231 2300 2841 2188 
z
M 1259 4147 
L 1259 2491 
L 2053 2491 
Q 2509 2491 2742 2702 
Q 2975 2913 2975 3322 
Q 2975 3731 2742 3939 
Q 2509 4147 2053 4147 
L 1259 4147 
z
" transform="scale(0.015625)"/>
      <path id="DejaVuSans-70" d="M 1159 525 
L 1159 -1331 
L 581 -1331 
L 581 3500 
L 1159 3500 
L 1159 2969 
Q 1341 3281 1617 3432 
Q 1894 3584 2278 3584 
Q 2916 3584 3314 3078 
Q 3713 2572 3713 1747 
Q 3713 922 3314 415 
Q 2916 -91 2278 -91 
Q 1894 -91 1617 61 
Q 1341 213 1159 525 
z
M 3116 1747 
Q 3116 2381 2855 2742 
Q 2594 3103 2138 3103 
Q 1681 3103 1420 2742 
Q 1159 2381 1159 1747 
Q 1159 1113 1420 752 
Q 1681 391 2138 391 
Q 2594 391 2855 752 
Q 3116 1113 3116 1747 
z
" transform="scale(0.015625)"/>
      <path id="DejaVuSans-76" d="M 191 3500 
L 800 3500 
L 1894 563 
L 2988 3500 
L 3597 3500 
L 2284 0 
L 1503 0 
L 191 3500 
z
" transform="scale(0.015625)"/>
      <path id="DejaVuSans-46" d="M 628 4666 
L 3309 4666 
L 3309 4134 
L 1259 4134 
L 1259 2759 
L 3109 2759 
L 3109 2228 
L 1259 2228 
L 1259 0 
L 628 0 
L 628 4666 
z
" transform="scale(0.015625)"/>
      <path id="DejaVuSans-2d" d="M 313 2009 
L 1997 2009 
L 1997 1497 
L 313 1497 
L 313 2009 
z
" transform="scale(0.015625)"/>
      <path id="DejaVuSans-43" d="M 4122 4306 
L 4122 3641 
Q 3803 3938 3442 4084 
Q 3081 4231 2675 4231 
Q 1875 4231 1450 3742 
Q 1025 3253 1025 2328 
Q 1025 1406 1450 917 
Q 1875 428 2675 428 
Q 3081 428 3442 575 
Q 3803 722 4122 1019 
L 4122 359 
Q 3791 134 3420 21 
Q 3050 -91 2638 -91 
Q 1578 -91 968 557 
Q 359 1206 359 2328 
Q 359 3453 968 4101 
Q 1578 4750 2638 4750 
Q 3056 4750 3426 4639 
Q 3797 4528 4122 4306 
z
" transform="scale(0.015625)"/>
      <path id="DejaVuSans-4f" d="M 2522 4238 
Q 1834 4238 1429 3725 
Q 1025 3213 1025 2328 
Q 1025 1447 1429 934 
Q 1834 422 2522 422 
Q 3209 422 3611 934 
Q 4013 1447 4013 2328 
Q 4013 3213 3611 3725 
Q 3209 4238 2522 4238 
z
M 2522 4750 
Q 3503 4750 4090 4092 
Q 4678 3434 4678 2328 
Q 4678 1225 4090 567 
Q 3503 -91 2522 -91 
Q 1538 -91 948 565 
Q 359 1222 359 2328 
Q 359 3434 948 4092 
Q 1538 4750 2522 4750 
z
" transform="scale(0.015625)"/>
      <path id="DejaVuSans-56" d="M 1831 0 
L 50 4666 
L 709 4666 
L 2188 738 
L 3669 4666 
L 4325 4666 
L 2547 0 
L 1831 0 
z
" transform="scale(0.015625)"/>
      <path id="DejaVuSans-57" d="M 213 4666 
L 850 4666 
L 1831 722 
L 2809 4666 
L 3519 4666 
L 4500 722 
L 5478 4666 
L 6119 4666 
L 4947 0 
L 4153 0 
L 3169 4050 
L 2175 0 
L 1381 0 
L 213 4666 
z
" transform="scale(0.015625)"/>
      <path id="DejaVuSans-23" d="M 3272 2816 
L 2363 2816 
L 2100 1772 
L 3016 1772 
L 3272 2816 
z
M 2803 4594 
L 2478 3297 
L 3391 3297 
L 3719 4594 
L 4219 4594 
L 3897 3297 
L 4872 3297 
L 4872 2816 
L 3775 2816 
L 3519 1772 
L 4513 1772 
L 4513 1294 
L 3397 1294 
L 3072 0 
L 2572 0 
L 2894 1294 
L 1978 1294 
L 1656 0 
L 1153 0 
L 1478 1294 
L 494 1294 
L 494 1772 
L 1594 1772 
L 1856 2816 
L 850 2816 
L 850 3297 
L 1978 3297 
L 2297 4594 
L 2803 4594 
z
" transform="scale(0.015625)"/>
     </defs>
     <use xlink:href="#DejaVuSans-52"/>
     <use xlink:href="#DejaVuSans-65" x="64.982422"/>
     <use xlink:href="#DejaVuSans-74" x="126.505859"/>
     <use xlink:href="#DejaVuSans-72" x="165.714844"/>
     <use xlink:href="#DejaVuSans-6f" x="204.578125"/>
     <use xlink:href="#DejaVuSans-73" x="265.759766"/>
     <use xlink:href="#DejaVuSans-70" x="317.859375"/>
     <use xlink:href="#DejaVuSans-65" x="381.335938"/>
     <use xlink:href="#DejaVuSans-63" x="442.859375"/>
     <use xlink:href="#DejaVuSans-74" x="497.839844"/>
     <use xlink:href="#DejaVuSans-69" x="537.048828"/>
     <use xlink:href="#DejaVuSans-76" x="564.832031"/>
     <use xlink:href="#DejaVuSans-65" x="624.011719"/>
     <use xlink:href="#DejaVuSans-20" x="685.535156"/>
     <use xlink:href="#DejaVuSans-46" x="717.322266"/>
     <use xlink:href="#DejaVuSans-6f" x="771.216797"/>
     <use xlink:href="#DejaVuSans-72" x="832.398438"/>
     <use xlink:href="#DejaVuSans-65" x="871.261719"/>
     <use xlink:href="#DejaVuSans-63" x="932.785156"/>
     <use xlink:href="#DejaVuSans-61" x="987.765625"/>
     <use xlink:href="#DejaVuSans-73" x="1049.044922"/>
     <use xlink:href="#DejaVuSans-74" x="1101.144531"/>
     <use xlink:href="#DejaVuSans-20" x="1140.353516"/>
     <use xlink:href="#DejaVuSans-2d" x="1172.140625"/>
     <use xlink:href="#DejaVuSans-20" x="1208.224609"/>
     <use xlink:href="#DejaVuSans-32" x="1240.011719"/>
     <use xlink:href="#DejaVuSans-30" x="1303.634766"/>
     <use xlink:href="#DejaVuSans-32" x="1367.257812"/>
     <use xlink:href="#DejaVuSans-30" x="1430.880859"/>
     <use xlink:href="#DejaVuSans-2d" x="1494.503906"/>
     <use xlink:href="#DejaVuSans-30" x="1530.587891"/>
     <use xlink:href="#DejaVuSans-33" x="1594.210938"/>
     <use xlink:href="#DejaVuSans-2d" x="1657.833984"/>
     <use xlink:href="#DejaVuSans-30" x="1693.917969"/>
     <use xlink:href="#DejaVuSans-31" x="1757.541016"/>
     <use xlink:href="#DejaVuSans-20" x="1821.164062"/>
     <use xlink:href="#DejaVuSans-2d" x="1852.951172"/>
     <use xlink:href="#DejaVuSans-20" x="1889.035156"/>
     <use xlink:href="#DejaVuSans-43" x="1920.822266"/>
     <use xlink:href="#DejaVuSans-4f" x="1990.646484"/>
     <use xlink:href="#DejaVuSans-56" x="2067.607422"/>
     <use xlink:href="#DejaVuSans-49" x="2136.015625"/>
     <use xlink:href="#DejaVuSans-44" x="2165.507812"/>
     <use xlink:href="#DejaVuSans-2d" x="2242.509766"/>
     <use xlink:href="#DejaVuSans-31" x="2278.59375"/>
     <use xlink:href="#DejaVuSans-39" x="2342.216797"/>
     <use xlink:href="#DejaVuSans-20" x="2405.839844"/>
     <use xlink:href="#DejaVuSans-57" x="2437.626953"/>
     <use xlink:href="#DejaVuSans-61" x="2530.128906"/>
     <use xlink:href="#DejaVuSans-76" x="2591.408203"/>
     <use xlink:href="#DejaVuSans-65" x="2650.587891"/>
     <use xlink:href="#DejaVuSans-23" x="2712.111328"/>
     <use xlink:href="#DejaVuSans-31" x="2795.900391"/>
     <use xlink:href="#DejaVuSans-20" x="2859.523438"/>
    </g>
    <!-- ETS -->
    <g transform="translate(357.735 45.84) scale(0.12 -0.12)">
     <use xlink:href="#DejaVuSans-45"/>
     <use xlink:href="#DejaVuSans-54" x="63.183594"/>
     <use xlink:href="#DejaVuSans-53" x="124.267578"/>
    </g>
   </g>
   <g id="legend_1">
    <g id="patch_7">
     <path d="M 527.145313 118.5525 
L 641 118.5525 
Q 643 118.5525 643 116.5525 
L 643 58.84 
Q 643 56.84 641 56.84 
L 527.145313 56.84 
Q 525.145313 56.84 525.145313 58.84 
L 525.145313 116.5525 
Q 525.145313 118.5525 527.145313 118.5525 
z
" style="fill: #ffffff; opacity: 0.8; stroke: #cccccc; stroke-linejoin: miter"/>
    </g>
    <g id="line2d_23">
     <path d="M 529.145313 64.938438 
L 539.145313 64.938438 
L 549.145313 64.938438 
" style="fill: none; stroke: #000000; stroke-width: 1.5; stroke-linecap: square"/>
    </g>
    <g id="text_16">
     <!-- Ground Truth -->
     <g transform="translate(557.145313 68.438438) scale(0.1 -0.1)">
      <defs>
       <path id="DejaVuSans-47" d="M 3809 666 
L 3809 1919 
L 2778 1919 
L 2778 2438 
L 4434 2438 
L 4434 434 
Q 4069 175 3628 42 
Q 3188 -91 2688 -91 
Q 1594 -91 976 548 
Q 359 1188 359 2328 
Q 359 3472 976 4111 
Q 1594 4750 2688 4750 
Q 3144 4750 3555 4637 
Q 3966 4525 4313 4306 
L 4313 3634 
Q 3963 3931 3569 4081 
Q 3175 4231 2741 4231 
Q 1884 4231 1454 3753 
Q 1025 3275 1025 2328 
Q 1025 1384 1454 906 
Q 1884 428 2741 428 
Q 3075 428 3337 486 
Q 3600 544 3809 666 
z
" transform="scale(0.015625)"/>
       <path id="DejaVuSans-64" d="M 2906 2969 
L 2906 4863 
L 3481 4863 
L 3481 0 
L 2906 0 
L 2906 525 
Q 2725 213 2448 61 
Q 2172 -91 1784 -91 
Q 1150 -91 751 415 
Q 353 922 353 1747 
Q 353 2572 751 3078 
Q 1150 3584 1784 3584 
Q 2172 3584 2448 3432 
Q 2725 3281 2906 2969 
z
M 947 1747 
Q 947 1113 1208 752 
Q 1469 391 1925 391 
Q 2381 391 2643 752 
Q 2906 1113 2906 1747 
Q 2906 2381 2643 2742 
Q 2381 3103 1925 3103 
Q 1469 3103 1208 2742 
Q 947 2381 947 1747 
z
" transform="scale(0.015625)"/>
       <path id="DejaVuSans-68" d="M 3513 2113 
L 3513 0 
L 2938 0 
L 2938 2094 
Q 2938 2591 2744 2837 
Q 2550 3084 2163 3084 
Q 1697 3084 1428 2787 
Q 1159 2491 1159 1978 
L 1159 0 
L 581 0 
L 581 4863 
L 1159 4863 
L 1159 2956 
Q 1366 3272 1645 3428 
Q 1925 3584 2291 3584 
Q 2894 3584 3203 3211 
Q 3513 2838 3513 2113 
z
" transform="scale(0.015625)"/>
      </defs>
      <use xlink:href="#DejaVuSans-47"/>
      <use xlink:href="#DejaVuSans-72" x="77.490234"/>
      <use xlink:href="#DejaVuSans-6f" x="116.353516"/>
      <use xlink:href="#DejaVuSans-75" x="177.535156"/>
      <use xlink:href="#DejaVuSans-6e" x="240.914062"/>
      <use xlink:href="#DejaVuSans-64" x="304.292969"/>
      <use xlink:href="#DejaVuSans-20" x="367.769531"/>
      <use xlink:href="#DejaVuSans-54" x="399.556641"/>
      <use xlink:href="#DejaVuSans-72" x="445.890625"/>
      <use xlink:href="#DejaVuSans-75" x="487.003906"/>
      <use xlink:href="#DejaVuSans-74" x="550.382812"/>
      <use xlink:href="#DejaVuSans-68" x="589.591797"/>
     </g>
    </g>
    <g id="patch_8">
     <path d="M 529.145313 83.116563 
L 549.145313 83.116563 
L 549.145313 76.116563 
L 529.145313 76.116563 
z
" style="fill: #800080; fill-opacity: 0.5"/>
    </g>
    <g id="text_17">
     <!-- 95% Confidence -->
     <g transform="translate(557.145313 83.116563) scale(0.1 -0.1)">
      <defs>
       <path id="DejaVuSans-25" d="M 4653 2053 
Q 4381 2053 4226 1822 
Q 4072 1591 4072 1178 
Q 4072 772 4226 539 
Q 4381 306 4653 306 
Q 4919 306 5073 539 
Q 5228 772 5228 1178 
Q 5228 1588 5073 1820 
Q 4919 2053 4653 2053 
z
M 4653 2450 
Q 5147 2450 5437 2106 
Q 5728 1763 5728 1178 
Q 5728 594 5436 251 
Q 5144 -91 4653 -91 
Q 4153 -91 3862 251 
Q 3572 594 3572 1178 
Q 3572 1766 3864 2108 
Q 4156 2450 4653 2450 
z
M 1428 4353 
Q 1159 4353 1004 4120 
Q 850 3888 850 3481 
Q 850 3069 1003 2837 
Q 1156 2606 1428 2606 
Q 1700 2606 1854 2837 
Q 2009 3069 2009 3481 
Q 2009 3884 1853 4118 
Q 1697 4353 1428 4353 
z
M 4250 4750 
L 4750 4750 
L 1831 -91 
L 1331 -91 
L 4250 4750 
z
M 1428 4750 
Q 1922 4750 2215 4408 
Q 2509 4066 2509 3481 
Q 2509 2891 2217 2550 
Q 1925 2209 1428 2209 
Q 931 2209 642 2551 
Q 353 2894 353 3481 
Q 353 4063 643 4406 
Q 934 4750 1428 4750 
z
" transform="scale(0.015625)"/>
      </defs>
      <use xlink:href="#DejaVuSans-39"/>
      <use xlink:href="#DejaVuSans-35" x="63.623047"/>
      <use xlink:href="#DejaVuSans-25" x="127.246094"/>
      <use xlink:href="#DejaVuSans-20" x="222.265625"/>
      <use xlink:href="#DejaVuSans-43" x="254.052734"/>
      <use xlink:href="#DejaVuSans-6f" x="323.876953"/>
      <use xlink:href="#DejaVuSans-6e" x="385.058594"/>
      <use xlink:href="#DejaVuSans-66" x="448.4375"/>
      <use xlink:href="#DejaVuSans-69" x="483.642578"/>
      <use xlink:href="#DejaVuSans-64" x="511.425781"/>
      <use xlink:href="#DejaVuSans-65" x="574.902344"/>
      <use xlink:href="#DejaVuSans-6e" x="636.425781"/>
      <use xlink:href="#DejaVuSans-63" x="699.804688"/>
      <use xlink:href="#DejaVuSans-65" x="754.785156"/>
     </g>
    </g>
    <g id="line2d_24">
     <path d="M 529.145313 94.294688 
L 539.145313 94.294688 
L 549.145313 94.294688 
" style="fill: none; stroke: #800080; stroke-width: 1.5; stroke-linecap: square"/>
    </g>
    <g id="text_18">
     <!-- Median Forecast -->
     <g transform="translate(557.145313 97.794688) scale(0.1 -0.1)">
      <use xlink:href="#DejaVuSans-4d"/>
      <use xlink:href="#DejaVuSans-65" x="86.279297"/>
      <use xlink:href="#DejaVuSans-64" x="147.802734"/>
      <use xlink:href="#DejaVuSans-69" x="211.279297"/>
      <use xlink:href="#DejaVuSans-61" x="239.0625"/>
      <use xlink:href="#DejaVuSans-6e" x="300.341797"/>
      <use xlink:href="#DejaVuSans-20" x="363.720703"/>
      <use xlink:href="#DejaVuSans-46" x="395.507812"/>
      <use xlink:href="#DejaVuSans-6f" x="449.402344"/>
      <use xlink:href="#DejaVuSans-72" x="510.583984"/>
      <use xlink:href="#DejaVuSans-65" x="549.447266"/>
      <use xlink:href="#DejaVuSans-63" x="610.970703"/>
      <use xlink:href="#DejaVuSans-61" x="665.951172"/>
      <use xlink:href="#DejaVuSans-73" x="727.230469"/>
      <use xlink:href="#DejaVuSans-74" x="779.330078"/>
     </g>
    </g>
    <g id="line2d_25">
     <path d="M 529.145313 108.972813 
L 539.145313 108.972813 
L 549.145313 108.972813 
" style="fill: none; stroke-dasharray: 5.55,2.4; stroke-dashoffset: 0; stroke: #000000; stroke-opacity: 0.5; stroke-width: 1.5"/>
    </g>
    <g id="text_19">
     <!-- Cutoff Date -->
     <g transform="translate(557.145313 112.472813) scale(0.1 -0.1)">
      <use xlink:href="#DejaVuSans-43"/>
      <use xlink:href="#DejaVuSans-75" x="69.824219"/>
      <use xlink:href="#DejaVuSans-74" x="133.203125"/>
      <use xlink:href="#DejaVuSans-6f" x="172.412109"/>
      <use xlink:href="#DejaVuSans-66" x="233.59375"/>
      <use xlink:href="#DejaVuSans-66" x="268.798828"/>
      <use xlink:href="#DejaVuSans-20" x="304.003906"/>
      <use xlink:href="#DejaVuSans-44" x="335.791016"/>
      <use xlink:href="#DejaVuSans-61" x="412.792969"/>
      <use xlink:href="#DejaVuSans-74" x="474.072266"/>
      <use xlink:href="#DejaVuSans-65" x="513.28125"/>
     </g>
    </g>
   </g>
  </g>
 </g>
 <defs>
  <clipPath id="pd03fa5a683">
   <rect x="90" y="51.84" width="558" height="332.64"/>
  </clipPath>
 </defs>
</svg>
