<?xml version="1.0" encoding="utf-8" standalone="no"?>
<!DOCTYPE svg PUBLIC "-//W3C//DTD SVG 1.1//EN"
  "http://www.w3.org/Graphics/SVG/1.1/DTD/svg11.dtd">
<svg height="432pt" version="1.1" viewBox="0 0 720 432" width="720pt" xmlns="http://www.w3.org/2000/svg" xmlns:xlink="http://www.w3.org/1999/xlink">
 <metadata>
  <rdf:RDF xmlns:cc="http://creativecommons.org/ns#" xmlns:dc="http://purl.org/dc/elements/1.1/" xmlns:rdf="http://www.w3.org/1999/02/22-rdf-syntax-ns#">
   <cc:Work>
    <dc:type rdf:resource="http://purl.org/dc/dcmitype/StillImage"/>
    <dc:date>2023-11-03T13:30:47.892587</dc:date>
    <dc:format>image/svg+xml</dc:format>
    <dc:creator>
     <cc:Agent>
      <dc:title>Matplotlib v3.4.2, https://matplotlib.org/</dc:title>
     </cc:Agent>
    </dc:creator>
   </cc:Work>
  </rdf:RDF>
 </metadata>
 <defs>
  <style type="text/css">*{stroke-linecap:butt;stroke-linejoin:round;}</style>
 </defs>
 <g id="figure_1">
  <g id="patch_1">
   <path d="M 0 432 
L 720 432 
L 720 0 
L 0 0 
z
" style="fill:none;"/>
  </g>
  <g id="axes_1">
   <g id="patch_2">
    <path d="M 90 378 
L 648 378 
L 648 51.84 
L 90 51.84 
z
" style="fill:#ffffff;"/>
   </g>
   <g id="PolyCollection_1">
    <path clip-path="url(#p3e448a49a5)" d="M 364.571958 235.430879 
L 364.571958 271.65366 
L 367.428759 272.381951 
L 370.380787 272.944449 
L 373.237589 273.378166 
L 376.189617 273.708101 
L 379.141645 273.952079 
L 381.998447 274.123344 
L 384.950475 274.232048 
L 387.807277 274.286184 
L 390.759305 274.292173 
L 393.711333 274.255268 
L 396.377681 274.179831 
L 399.32971 274.069531 
L 402.186511 273.927491 
L 405.13854 273.756392 
L 407.995341 273.558558 
L 410.947369 273.336018 
L 413.899398 273.090559 
L 416.756199 272.823761 
L 419.708227 272.537029 
L 422.565029 272.231623 
L 425.517057 271.908674 
L 428.469085 271.569203 
L 431.23066 271.214137 
L 434.182689 270.844317 
L 437.03949 270.460515 
L 439.991518 270.063433 
L 442.84832 269.653721 
L 445.800348 269.231974 
L 448.752376 268.798743 
L 451.609178 268.354539 
L 454.561206 267.899834 
L 457.418008 267.435071 
L 460.370036 266.960658 
L 463.322064 266.476979 
L 465.988412 265.984393 
L 468.940441 265.483235 
L 471.797242 264.973822 
L 474.74927 264.45645 
L 477.606072 263.931397 
L 480.5581 263.398927 
L 483.510129 262.859289 
L 486.36693 262.312717 
L 489.318958 261.759434 
L 492.17576 261.199651 
L 495.127788 260.633568 
L 498.079816 260.061374 
L 500.746164 259.48325 
L 503.698193 258.899368 
L 506.554994 258.309891 
L 509.507023 257.714976 
L 512.363824 257.114772 
L 515.315852 256.509421 
L 518.267881 255.899058 
L 521.124682 255.283815 
L 524.07671 254.663815 
L 526.933512 254.039178 
L 529.88554 253.410018 
L 532.837568 252.776446 
L 535.503917 252.138567 
L 538.455945 251.496481 
L 541.312746 250.850287 
L 544.264775 250.200078 
L 547.121576 249.545944 
L 550.073604 248.887973 
L 553.025633 248.226248 
L 555.882434 247.560849 
L 558.834463 246.891855 
L 561.691264 246.21934 
L 564.643292 245.543378 
L 567.595321 244.864037 
L 570.356895 244.181387 
L 573.308924 243.495493 
L 576.165725 242.806418 
L 579.117753 242.114223 
L 581.974555 241.418967 
L 584.926583 240.720709 
L 587.878612 240.019505 
L 590.735413 239.315407 
L 593.687441 238.608469 
L 596.544243 237.898741 
L 599.496271 237.186273 
L 602.448299 236.471113 
L 605.114648 235.753307 
L 608.066676 235.032901 
L 610.923477 234.309938 
L 613.875506 233.584461 
L 616.732307 232.856511 
L 619.684335 232.12613 
L 622.636364 231.393357 
L 622.636364 66.665455 
L 622.636364 66.665455 
L 619.684335 68.281285 
L 616.732307 69.899507 
L 613.875506 71.520162 
L 610.923477 73.143288 
L 608.066676 74.768929 
L 605.114648 76.397126 
L 602.448299 78.027924 
L 599.496271 79.661367 
L 596.544243 81.297503 
L 593.687441 82.936379 
L 590.735413 84.578045 
L 587.878612 86.222551 
L 584.926583 87.86995 
L 581.974555 89.520295 
L 579.117753 91.173644 
L 576.165725 92.830052 
L 573.308924 94.489581 
L 570.356895 96.15229 
L 567.595321 97.818244 
L 564.643292 99.487507 
L 561.691264 101.160149 
L 558.834463 102.836238 
L 555.882434 104.515847 
L 553.025633 106.199052 
L 550.073604 107.88593 
L 547.121576 109.576562 
L 544.264775 111.271033 
L 541.312746 112.969427 
L 538.455945 114.671837 
L 535.503917 116.378355 
L 532.837568 118.089079 
L 529.88554 119.804111 
L 526.933512 121.523555 
L 524.07671 123.247522 
L 521.124682 124.976125 
L 518.267881 126.709486 
L 515.315852 128.447727 
L 512.363824 130.190979 
L 509.507023 131.939379 
L 506.554994 133.693067 
L 503.698193 135.452195 
L 500.746164 137.216916 
L 498.079816 138.987396 
L 495.127788 140.763806 
L 492.17576 142.546326 
L 489.318958 144.335146 
L 486.36693 146.130467 
L 483.510129 147.932499 
L 480.5581 149.741465 
L 477.606072 151.557599 
L 474.74927 153.381149 
L 471.797242 155.212381 
L 468.940441 157.051571 
L 465.988412 158.899017 
L 463.322064 160.755035 
L 460.370036 162.61996 
L 457.418008 164.494151 
L 454.561206 166.377991 
L 451.609178 168.27189 
L 448.752376 170.176289 
L 445.800348 172.091662 
L 442.84832 174.018519 
L 439.991518 175.95741 
L 437.03949 177.908932 
L 434.182689 179.873733 
L 431.23066 181.852518 
L 428.469085 183.846055 
L 425.517057 185.855188 
L 422.565029 187.880842 
L 419.708227 189.92404 
L 416.756199 191.985912 
L 413.899398 194.067717 
L 410.947369 196.170862 
L 407.995341 198.296926 
L 405.13854 200.447696 
L 402.186511 202.6252 
L 399.32971 204.831764 
L 396.377681 207.070068 
L 393.711333 209.343235 
L 390.759305 211.654933 
L 387.807277 214.009525 
L 384.950475 216.412265 
L 381.998447 218.869573 
L 379.141645 221.389441 
L 376.189617 223.982024 
L 373.237589 226.660562 
L 370.380787 229.442883 
L 367.428759 232.353985 
L 364.571958 235.430879 
z
" style="fill:#800080;fill-opacity:0.5;"/>
   </g>
   <g id="matplotlib.axis_1">
    <g id="xtick_1">
     <g id="line2d_1">
      <defs>
       <path d="M 0 0 
L 0 3.5 
" id="mc30035f69d" style="stroke:#000000;stroke-width:0.8;"/>
      </defs>
      <g>
       <use style="stroke:#000000;stroke-width:0.8;" x="112.506835" xlink:href="#mc30035f69d" y="378"/>
      </g>
     </g>
     <g id="text_1">
      <!-- 2015 -->
      <g transform="translate(105.460074 408.368774)rotate(-45)scale(0.1 -0.1)">
       <defs>
        <path d="M 1228 531 
L 3431 531 
L 3431 0 
L 469 0 
L 469 531 
Q 828 903 1448 1529 
Q 2069 2156 2228 2338 
Q 2531 2678 2651 2914 
Q 2772 3150 2772 3378 
Q 2772 3750 2511 3984 
Q 2250 4219 1831 4219 
Q 1534 4219 1204 4116 
Q 875 4013 500 3803 
L 500 4441 
Q 881 4594 1212 4672 
Q 1544 4750 1819 4750 
Q 2544 4750 2975 4387 
Q 3406 4025 3406 3419 
Q 3406 3131 3298 2873 
Q 3191 2616 2906 2266 
Q 2828 2175 2409 1742 
Q 1991 1309 1228 531 
z
" id="DejaVuSans-32" transform="scale(0.015625)"/>
        <path d="M 2034 4250 
Q 1547 4250 1301 3770 
Q 1056 3291 1056 2328 
Q 1056 1369 1301 889 
Q 1547 409 2034 409 
Q 2525 409 2770 889 
Q 3016 1369 3016 2328 
Q 3016 3291 2770 3770 
Q 2525 4250 2034 4250 
z
M 2034 4750 
Q 2819 4750 3233 4129 
Q 3647 3509 3647 2328 
Q 3647 1150 3233 529 
Q 2819 -91 2034 -91 
Q 1250 -91 836 529 
Q 422 1150 422 2328 
Q 422 3509 836 4129 
Q 1250 4750 2034 4750 
z
" id="DejaVuSans-30" transform="scale(0.015625)"/>
        <path d="M 794 531 
L 1825 531 
L 1825 4091 
L 703 3866 
L 703 4441 
L 1819 4666 
L 2450 4666 
L 2450 531 
L 3481 531 
L 3481 0 
L 794 0 
L 794 531 
z
" id="DejaVuSans-31" transform="scale(0.015625)"/>
        <path d="M 691 4666 
L 3169 4666 
L 3169 4134 
L 1269 4134 
L 1269 2991 
Q 1406 3038 1543 3061 
Q 1681 3084 1819 3084 
Q 2600 3084 3056 2656 
Q 3513 2228 3513 1497 
Q 3513 744 3044 326 
Q 2575 -91 1722 -91 
Q 1428 -91 1123 -41 
Q 819 9 494 109 
L 494 744 
Q 775 591 1075 516 
Q 1375 441 1709 441 
Q 2250 441 2565 725 
Q 2881 1009 2881 1497 
Q 2881 1984 2565 2268 
Q 2250 2553 1709 2553 
Q 1456 2553 1204 2497 
Q 953 2441 691 2322 
L 691 4666 
z
" id="DejaVuSans-35" transform="scale(0.015625)"/>
       </defs>
       <use xlink:href="#DejaVuSans-32"/>
       <use x="63.623047" xlink:href="#DejaVuSans-30"/>
       <use x="127.246094" xlink:href="#DejaVuSans-31"/>
       <use x="190.869141" xlink:href="#DejaVuSans-35"/>
      </g>
     </g>
    </g>
    <g id="xtick_2">
     <g id="line2d_2">
      <g>
       <use style="stroke:#000000;stroke-width:0.8;" x="147.264587" xlink:href="#mc30035f69d" y="378"/>
      </g>
     </g>
     <g id="text_2">
      <!-- 2016 -->
      <g transform="translate(140.217826 408.368774)rotate(-45)scale(0.1 -0.1)">
       <defs>
        <path d="M 2113 2584 
Q 1688 2584 1439 2293 
Q 1191 2003 1191 1497 
Q 1191 994 1439 701 
Q 1688 409 2113 409 
Q 2538 409 2786 701 
Q 3034 994 3034 1497 
Q 3034 2003 2786 2293 
Q 2538 2584 2113 2584 
z
M 3366 4563 
L 3366 3988 
Q 3128 4100 2886 4159 
Q 2644 4219 2406 4219 
Q 1781 4219 1451 3797 
Q 1122 3375 1075 2522 
Q 1259 2794 1537 2939 
Q 1816 3084 2150 3084 
Q 2853 3084 3261 2657 
Q 3669 2231 3669 1497 
Q 3669 778 3244 343 
Q 2819 -91 2113 -91 
Q 1303 -91 875 529 
Q 447 1150 447 2328 
Q 447 3434 972 4092 
Q 1497 4750 2381 4750 
Q 2619 4750 2861 4703 
Q 3103 4656 3366 4563 
z
" id="DejaVuSans-36" transform="scale(0.015625)"/>
       </defs>
       <use xlink:href="#DejaVuSans-32"/>
       <use x="63.623047" xlink:href="#DejaVuSans-30"/>
       <use x="127.246094" xlink:href="#DejaVuSans-31"/>
       <use x="190.869141" xlink:href="#DejaVuSans-36"/>
      </g>
     </g>
    </g>
    <g id="xtick_3">
     <g id="line2d_3">
      <g>
       <use style="stroke:#000000;stroke-width:0.8;" x="182.117566" xlink:href="#mc30035f69d" y="378"/>
      </g>
     </g>
     <g id="text_3">
      <!-- 2017 -->
      <g transform="translate(175.070805 408.368774)rotate(-45)scale(0.1 -0.1)">
       <defs>
        <path d="M 525 4666 
L 3525 4666 
L 3525 4397 
L 1831 0 
L 1172 0 
L 2766 4134 
L 525 4134 
L 525 4666 
z
" id="DejaVuSans-37" transform="scale(0.015625)"/>
       </defs>
       <use xlink:href="#DejaVuSans-32"/>
       <use x="63.623047" xlink:href="#DejaVuSans-30"/>
       <use x="127.246094" xlink:href="#DejaVuSans-31"/>
       <use x="190.869141" xlink:href="#DejaVuSans-37"/>
      </g>
     </g>
    </g>
    <g id="xtick_4">
     <g id="line2d_4">
      <g>
       <use style="stroke:#000000;stroke-width:0.8;" x="216.875318" xlink:href="#mc30035f69d" y="378"/>
      </g>
     </g>
     <g id="text_4">
      <!-- 2018 -->
      <g transform="translate(209.828557 408.368774)rotate(-45)scale(0.1 -0.1)">
       <defs>
        <path d="M 2034 2216 
Q 1584 2216 1326 1975 
Q 1069 1734 1069 1313 
Q 1069 891 1326 650 
Q 1584 409 2034 409 
Q 2484 409 2743 651 
Q 3003 894 3003 1313 
Q 3003 1734 2745 1975 
Q 2488 2216 2034 2216 
z
M 1403 2484 
Q 997 2584 770 2862 
Q 544 3141 544 3541 
Q 544 4100 942 4425 
Q 1341 4750 2034 4750 
Q 2731 4750 3128 4425 
Q 3525 4100 3525 3541 
Q 3525 3141 3298 2862 
Q 3072 2584 2669 2484 
Q 3125 2378 3379 2068 
Q 3634 1759 3634 1313 
Q 3634 634 3220 271 
Q 2806 -91 2034 -91 
Q 1263 -91 848 271 
Q 434 634 434 1313 
Q 434 1759 690 2068 
Q 947 2378 1403 2484 
z
M 1172 3481 
Q 1172 3119 1398 2916 
Q 1625 2713 2034 2713 
Q 2441 2713 2670 2916 
Q 2900 3119 2900 3481 
Q 2900 3844 2670 4047 
Q 2441 4250 2034 4250 
Q 1625 4250 1398 4047 
Q 1172 3844 1172 3481 
z
" id="DejaVuSans-38" transform="scale(0.015625)"/>
       </defs>
       <use xlink:href="#DejaVuSans-32"/>
       <use x="63.623047" xlink:href="#DejaVuSans-30"/>
       <use x="127.246094" xlink:href="#DejaVuSans-31"/>
       <use x="190.869141" xlink:href="#DejaVuSans-38"/>
      </g>
     </g>
    </g>
    <g id="xtick_5">
     <g id="line2d_5">
      <g>
       <use style="stroke:#000000;stroke-width:0.8;" x="251.63307" xlink:href="#mc30035f69d" y="378"/>
      </g>
     </g>
     <g id="text_5">
      <!-- 2019 -->
      <g transform="translate(244.586309 408.368774)rotate(-45)scale(0.1 -0.1)">
       <defs>
        <path d="M 703 97 
L 703 672 
Q 941 559 1184 500 
Q 1428 441 1663 441 
Q 2288 441 2617 861 
Q 2947 1281 2994 2138 
Q 2813 1869 2534 1725 
Q 2256 1581 1919 1581 
Q 1219 1581 811 2004 
Q 403 2428 403 3163 
Q 403 3881 828 4315 
Q 1253 4750 1959 4750 
Q 2769 4750 3195 4129 
Q 3622 3509 3622 2328 
Q 3622 1225 3098 567 
Q 2575 -91 1691 -91 
Q 1453 -91 1209 -44 
Q 966 3 703 97 
z
M 1959 2075 
Q 2384 2075 2632 2365 
Q 2881 2656 2881 3163 
Q 2881 3666 2632 3958 
Q 2384 4250 1959 4250 
Q 1534 4250 1286 3958 
Q 1038 3666 1038 3163 
Q 1038 2656 1286 2365 
Q 1534 2075 1959 2075 
z
" id="DejaVuSans-39" transform="scale(0.015625)"/>
       </defs>
       <use xlink:href="#DejaVuSans-32"/>
       <use x="63.623047" xlink:href="#DejaVuSans-30"/>
       <use x="127.246094" xlink:href="#DejaVuSans-31"/>
       <use x="190.869141" xlink:href="#DejaVuSans-39"/>
      </g>
     </g>
    </g>
    <g id="xtick_6">
     <g id="line2d_6">
      <g>
       <use style="stroke:#000000;stroke-width:0.8;" x="286.390822" xlink:href="#mc30035f69d" y="378"/>
      </g>
     </g>
     <g id="text_6">
      <!-- 2020 -->
      <g transform="translate(279.344061 408.368774)rotate(-45)scale(0.1 -0.1)">
       <use xlink:href="#DejaVuSans-32"/>
       <use x="63.623047" xlink:href="#DejaVuSans-30"/>
       <use x="127.246094" xlink:href="#DejaVuSans-32"/>
       <use x="190.869141" xlink:href="#DejaVuSans-30"/>
      </g>
     </g>
    </g>
    <g id="xtick_7">
     <g id="line2d_7">
      <g>
       <use style="stroke:#000000;stroke-width:0.8;" x="321.243801" xlink:href="#mc30035f69d" y="378"/>
      </g>
     </g>
     <g id="text_7">
      <!-- 2021 -->
      <g transform="translate(314.19704 408.368774)rotate(-45)scale(0.1 -0.1)">
       <use xlink:href="#DejaVuSans-32"/>
       <use x="63.623047" xlink:href="#DejaVuSans-30"/>
       <use x="127.246094" xlink:href="#DejaVuSans-32"/>
       <use x="190.869141" xlink:href="#DejaVuSans-31"/>
      </g>
     </g>
    </g>
    <g id="xtick_8">
     <g id="line2d_8">
      <g>
       <use style="stroke:#000000;stroke-width:0.8;" x="356.001553" xlink:href="#mc30035f69d" y="378"/>
      </g>
     </g>
     <g id="text_8">
      <!-- 2022 -->
      <g transform="translate(348.954792 408.368774)rotate(-45)scale(0.1 -0.1)">
       <use xlink:href="#DejaVuSans-32"/>
       <use x="63.623047" xlink:href="#DejaVuSans-30"/>
       <use x="127.246094" xlink:href="#DejaVuSans-32"/>
       <use x="190.869141" xlink:href="#DejaVuSans-32"/>
      </g>
     </g>
    </g>
    <g id="xtick_9">
     <g id="line2d_9">
      <g>
       <use style="stroke:#000000;stroke-width:0.8;" x="390.759305" xlink:href="#mc30035f69d" y="378"/>
      </g>
     </g>
     <g id="text_9">
      <!-- 2023 -->
      <g transform="translate(383.712544 408.368774)rotate(-45)scale(0.1 -0.1)">
       <defs>
        <path d="M 2597 2516 
Q 3050 2419 3304 2112 
Q 3559 1806 3559 1356 
Q 3559 666 3084 287 
Q 2609 -91 1734 -91 
Q 1441 -91 1130 -33 
Q 819 25 488 141 
L 488 750 
Q 750 597 1062 519 
Q 1375 441 1716 441 
Q 2309 441 2620 675 
Q 2931 909 2931 1356 
Q 2931 1769 2642 2001 
Q 2353 2234 1838 2234 
L 1294 2234 
L 1294 2753 
L 1863 2753 
Q 2328 2753 2575 2939 
Q 2822 3125 2822 3475 
Q 2822 3834 2567 4026 
Q 2313 4219 1838 4219 
Q 1578 4219 1281 4162 
Q 984 4106 628 3988 
L 628 4550 
Q 988 4650 1302 4700 
Q 1616 4750 1894 4750 
Q 2613 4750 3031 4423 
Q 3450 4097 3450 3541 
Q 3450 3153 3228 2886 
Q 3006 2619 2597 2516 
z
" id="DejaVuSans-33" transform="scale(0.015625)"/>
       </defs>
       <use xlink:href="#DejaVuSans-32"/>
       <use x="63.623047" xlink:href="#DejaVuSans-30"/>
       <use x="127.246094" xlink:href="#DejaVuSans-32"/>
       <use x="190.869141" xlink:href="#DejaVuSans-33"/>
      </g>
     </g>
    </g>
    <g id="xtick_10">
     <g id="line2d_10">
      <g>
       <use style="stroke:#000000;stroke-width:0.8;" x="425.517057" xlink:href="#mc30035f69d" y="378"/>
      </g>
     </g>
     <g id="text_10">
      <!-- 2024 -->
      <g transform="translate(418.470296 408.368774)rotate(-45)scale(0.1 -0.1)">
       <defs>
        <path d="M 2419 4116 
L 825 1625 
L 2419 1625 
L 2419 4116 
z
M 2253 4666 
L 3047 4666 
L 3047 1625 
L 3713 1625 
L 3713 1100 
L 3047 1100 
L 3047 0 
L 2419 0 
L 2419 1100 
L 313 1100 
L 313 1709 
L 2253 4666 
z
" id="DejaVuSans-34" transform="scale(0.015625)"/>
       </defs>
       <use xlink:href="#DejaVuSans-32"/>
       <use x="63.623047" xlink:href="#DejaVuSans-30"/>
       <use x="127.246094" xlink:href="#DejaVuSans-32"/>
       <use x="190.869141" xlink:href="#DejaVuSans-34"/>
      </g>
     </g>
    </g>
    <g id="xtick_11">
     <g id="line2d_11">
      <g>
       <use style="stroke:#000000;stroke-width:0.8;" x="460.370036" xlink:href="#mc30035f69d" y="378"/>
      </g>
     </g>
     <g id="text_11">
      <!-- 2025 -->
      <g transform="translate(453.323275 408.368774)rotate(-45)scale(0.1 -0.1)">
       <use xlink:href="#DejaVuSans-32"/>
       <use x="63.623047" xlink:href="#DejaVuSans-30"/>
       <use x="127.246094" xlink:href="#DejaVuSans-32"/>
       <use x="190.869141" xlink:href="#DejaVuSans-35"/>
      </g>
     </g>
    </g>
    <g id="xtick_12">
     <g id="line2d_12">
      <g>
       <use style="stroke:#000000;stroke-width:0.8;" x="495.127788" xlink:href="#mc30035f69d" y="378"/>
      </g>
     </g>
     <g id="text_12">
      <!-- 2026 -->
      <g transform="translate(488.081027 408.368774)rotate(-45)scale(0.1 -0.1)">
       <use xlink:href="#DejaVuSans-32"/>
       <use x="63.623047" xlink:href="#DejaVuSans-30"/>
       <use x="127.246094" xlink:href="#DejaVuSans-32"/>
       <use x="190.869141" xlink:href="#DejaVuSans-36"/>
      </g>
     </g>
    </g>
    <g id="xtick_13">
     <g id="line2d_13">
      <g>
       <use style="stroke:#000000;stroke-width:0.8;" x="529.88554" xlink:href="#mc30035f69d" y="378"/>
      </g>
     </g>
     <g id="text_13">
      <!-- 2027 -->
      <g transform="translate(522.838779 408.368774)rotate(-45)scale(0.1 -0.1)">
       <use xlink:href="#DejaVuSans-32"/>
       <use x="63.623047" xlink:href="#DejaVuSans-30"/>
       <use x="127.246094" xlink:href="#DejaVuSans-32"/>
       <use x="190.869141" xlink:href="#DejaVuSans-37"/>
      </g>
     </g>
    </g>
    <g id="xtick_14">
     <g id="line2d_14">
      <g>
       <use style="stroke:#000000;stroke-width:0.8;" x="564.643292" xlink:href="#mc30035f69d" y="378"/>
      </g>
     </g>
     <g id="text_14">
      <!-- 2028 -->
      <g transform="translate(557.596531 408.368774)rotate(-45)scale(0.1 -0.1)">
       <use xlink:href="#DejaVuSans-32"/>
       <use x="63.623047" xlink:href="#DejaVuSans-30"/>
       <use x="127.246094" xlink:href="#DejaVuSans-32"/>
       <use x="190.869141" xlink:href="#DejaVuSans-38"/>
      </g>
     </g>
    </g>
    <g id="xtick_15">
     <g id="line2d_15">
      <g>
       <use style="stroke:#000000;stroke-width:0.8;" x="599.496271" xlink:href="#mc30035f69d" y="378"/>
      </g>
     </g>
     <g id="text_15">
      <!-- 2029 -->
      <g transform="translate(592.44951 408.368774)rotate(-45)scale(0.1 -0.1)">
       <use xlink:href="#DejaVuSans-32"/>
       <use x="63.623047" xlink:href="#DejaVuSans-30"/>
       <use x="127.246094" xlink:href="#DejaVuSans-32"/>
       <use x="190.869141" xlink:href="#DejaVuSans-39"/>
      </g>
     </g>
    </g>
    <g id="xtick_16">
     <g id="line2d_16">
      <g>
       <use style="stroke:#000000;stroke-width:0.8;" x="634.254023" xlink:href="#mc30035f69d" y="378"/>
      </g>
     </g>
     <g id="text_16">
      <!-- 2030 -->
      <g transform="translate(627.207262 408.368774)rotate(-45)scale(0.1 -0.1)">
       <use xlink:href="#DejaVuSans-32"/>
       <use x="63.623047" xlink:href="#DejaVuSans-30"/>
       <use x="127.246094" xlink:href="#DejaVuSans-33"/>
       <use x="190.869141" xlink:href="#DejaVuSans-30"/>
      </g>
     </g>
    </g>
    <g id="text_17">
     <!-- Date -->
     <g transform="translate(357.049219 421.437773)scale(0.1 -0.1)">
      <defs>
       <path d="M 1259 4147 
L 1259 519 
L 2022 519 
Q 2988 519 3436 956 
Q 3884 1394 3884 2338 
Q 3884 3275 3436 3711 
Q 2988 4147 2022 4147 
L 1259 4147 
z
M 628 4666 
L 1925 4666 
Q 3281 4666 3915 4102 
Q 4550 3538 4550 2338 
Q 4550 1131 3912 565 
Q 3275 0 1925 0 
L 628 0 
L 628 4666 
z
" id="DejaVuSans-44" transform="scale(0.015625)"/>
       <path d="M 2194 1759 
Q 1497 1759 1228 1600 
Q 959 1441 959 1056 
Q 959 750 1161 570 
Q 1363 391 1709 391 
Q 2188 391 2477 730 
Q 2766 1069 2766 1631 
L 2766 1759 
L 2194 1759 
z
M 3341 1997 
L 3341 0 
L 2766 0 
L 2766 531 
Q 2569 213 2275 61 
Q 1981 -91 1556 -91 
Q 1019 -91 701 211 
Q 384 513 384 1019 
Q 384 1609 779 1909 
Q 1175 2209 1959 2209 
L 2766 2209 
L 2766 2266 
Q 2766 2663 2505 2880 
Q 2244 3097 1772 3097 
Q 1472 3097 1187 3025 
Q 903 2953 641 2809 
L 641 3341 
Q 956 3463 1253 3523 
Q 1550 3584 1831 3584 
Q 2591 3584 2966 3190 
Q 3341 2797 3341 1997 
z
" id="DejaVuSans-61" transform="scale(0.015625)"/>
       <path d="M 1172 4494 
L 1172 3500 
L 2356 3500 
L 2356 3053 
L 1172 3053 
L 1172 1153 
Q 1172 725 1289 603 
Q 1406 481 1766 481 
L 2356 481 
L 2356 0 
L 1766 0 
Q 1100 0 847 248 
Q 594 497 594 1153 
L 594 3053 
L 172 3053 
L 172 3500 
L 594 3500 
L 594 4494 
L 1172 4494 
z
" id="DejaVuSans-74" transform="scale(0.015625)"/>
       <path d="M 3597 1894 
L 3597 1613 
L 953 1613 
Q 991 1019 1311 708 
Q 1631 397 2203 397 
Q 2534 397 2845 478 
Q 3156 559 3463 722 
L 3463 178 
Q 3153 47 2828 -22 
Q 2503 -91 2169 -91 
Q 1331 -91 842 396 
Q 353 884 353 1716 
Q 353 2575 817 3079 
Q 1281 3584 2069 3584 
Q 2775 3584 3186 3129 
Q 3597 2675 3597 1894 
z
M 3022 2063 
Q 3016 2534 2758 2815 
Q 2500 3097 2075 3097 
Q 1594 3097 1305 2825 
Q 1016 2553 972 2059 
L 3022 2063 
z
" id="DejaVuSans-65" transform="scale(0.015625)"/>
      </defs>
      <use xlink:href="#DejaVuSans-44"/>
      <use x="77.001953" xlink:href="#DejaVuSans-61"/>
      <use x="138.28125" xlink:href="#DejaVuSans-74"/>
      <use x="177.490234" xlink:href="#DejaVuSans-65"/>
     </g>
    </g>
   </g>
   <g id="matplotlib.axis_2">
    <g id="ytick_1">
     <g id="line2d_17">
      <path clip-path="url(#p3e448a49a5)" d="M 90 333.430795 
L 648 333.430795 
" style="fill:none;stroke:#b0b0b0;stroke-linecap:square;stroke-width:0.8;"/>
     </g>
     <g id="line2d_18">
      <defs>
       <path d="M 0 0 
L -3.5 0 
" id="m61971f91fb" style="stroke:#000000;stroke-width:0.8;"/>
      </defs>
      <g>
       <use style="stroke:#000000;stroke-width:0.8;" x="90" xlink:href="#m61971f91fb" y="333.430795"/>
      </g>
     </g>
     <g id="text_18">
      <!-- 100 -->
      <g transform="translate(63.9125 337.230013)scale(0.1 -0.1)">
       <use xlink:href="#DejaVuSans-31"/>
       <use x="63.623047" xlink:href="#DejaVuSans-30"/>
       <use x="127.246094" xlink:href="#DejaVuSans-30"/>
      </g>
     </g>
    </g>
    <g id="ytick_2">
     <g id="line2d_19">
      <path clip-path="url(#p3e448a49a5)" d="M 90 263.044819 
L 648 263.044819 
" style="fill:none;stroke:#b0b0b0;stroke-linecap:square;stroke-width:0.8;"/>
     </g>
     <g id="line2d_20">
      <g>
       <use style="stroke:#000000;stroke-width:0.8;" x="90" xlink:href="#m61971f91fb" y="263.044819"/>
      </g>
     </g>
     <g id="text_19">
      <!-- 200 -->
      <g transform="translate(63.9125 266.844038)scale(0.1 -0.1)">
       <use xlink:href="#DejaVuSans-32"/>
       <use x="63.623047" xlink:href="#DejaVuSans-30"/>
       <use x="127.246094" xlink:href="#DejaVuSans-30"/>
      </g>
     </g>
    </g>
    <g id="ytick_3">
     <g id="line2d_21">
      <path clip-path="url(#p3e448a49a5)" d="M 90 192.658844 
L 648 192.658844 
" style="fill:none;stroke:#b0b0b0;stroke-linecap:square;stroke-width:0.8;"/>
     </g>
     <g id="line2d_22">
      <g>
       <use style="stroke:#000000;stroke-width:0.8;" x="90" xlink:href="#m61971f91fb" y="192.658844"/>
      </g>
     </g>
     <g id="text_20">
      <!-- 300 -->
      <g transform="translate(63.9125 196.458063)scale(0.1 -0.1)">
       <use xlink:href="#DejaVuSans-33"/>
       <use x="63.623047" xlink:href="#DejaVuSans-30"/>
       <use x="127.246094" xlink:href="#DejaVuSans-30"/>
      </g>
     </g>
    </g>
    <g id="ytick_4">
     <g id="line2d_23">
      <path clip-path="url(#p3e448a49a5)" d="M 90 122.272869 
L 648 122.272869 
" style="fill:none;stroke:#b0b0b0;stroke-linecap:square;stroke-width:0.8;"/>
     </g>
     <g id="line2d_24">
      <g>
       <use style="stroke:#000000;stroke-width:0.8;" x="90" xlink:href="#m61971f91fb" y="122.272869"/>
      </g>
     </g>
     <g id="text_21">
      <!-- 400 -->
      <g transform="translate(63.9125 126.072088)scale(0.1 -0.1)">
       <use xlink:href="#DejaVuSans-34"/>
       <use x="63.623047" xlink:href="#DejaVuSans-30"/>
       <use x="127.246094" xlink:href="#DejaVuSans-30"/>
      </g>
     </g>
    </g>
    <g id="ytick_5">
     <g id="line2d_25">
      <path clip-path="url(#p3e448a49a5)" d="M 90 51.886894 
L 648 51.886894 
" style="fill:none;stroke:#b0b0b0;stroke-linecap:square;stroke-width:0.8;"/>
     </g>
     <g id="line2d_26">
      <g>
       <use style="stroke:#000000;stroke-width:0.8;" x="90" xlink:href="#m61971f91fb" y="51.886894"/>
      </g>
     </g>
     <g id="text_22">
      <!-- 500 -->
      <g transform="translate(63.9125 55.686112)scale(0.1 -0.1)">
       <use xlink:href="#DejaVuSans-35"/>
       <use x="63.623047" xlink:href="#DejaVuSans-30"/>
       <use x="127.246094" xlink:href="#DejaVuSans-30"/>
      </g>
     </g>
    </g>
    <g id="text_23">
     <!-- CPI (% 2002 Prices) -->
     <g transform="translate(57.832812 263.848125)rotate(-90)scale(0.1 -0.1)">
      <defs>
       <path d="M 4122 4306 
L 4122 3641 
Q 3803 3938 3442 4084 
Q 3081 4231 2675 4231 
Q 1875 4231 1450 3742 
Q 1025 3253 1025 2328 
Q 1025 1406 1450 917 
Q 1875 428 2675 428 
Q 3081 428 3442 575 
Q 3803 722 4122 1019 
L 4122 359 
Q 3791 134 3420 21 
Q 3050 -91 2638 -91 
Q 1578 -91 968 557 
Q 359 1206 359 2328 
Q 359 3453 968 4101 
Q 1578 4750 2638 4750 
Q 3056 4750 3426 4639 
Q 3797 4528 4122 4306 
z
" id="DejaVuSans-43" transform="scale(0.015625)"/>
       <path d="M 1259 4147 
L 1259 2394 
L 2053 2394 
Q 2494 2394 2734 2622 
Q 2975 2850 2975 3272 
Q 2975 3691 2734 3919 
Q 2494 4147 2053 4147 
L 1259 4147 
z
M 628 4666 
L 2053 4666 
Q 2838 4666 3239 4311 
Q 3641 3956 3641 3272 
Q 3641 2581 3239 2228 
Q 2838 1875 2053 1875 
L 1259 1875 
L 1259 0 
L 628 0 
L 628 4666 
z
" id="DejaVuSans-50" transform="scale(0.015625)"/>
       <path d="M 628 4666 
L 1259 4666 
L 1259 0 
L 628 0 
L 628 4666 
z
" id="DejaVuSans-49" transform="scale(0.015625)"/>
       <path id="DejaVuSans-20" transform="scale(0.015625)"/>
       <path d="M 1984 4856 
Q 1566 4138 1362 3434 
Q 1159 2731 1159 2009 
Q 1159 1288 1364 580 
Q 1569 -128 1984 -844 
L 1484 -844 
Q 1016 -109 783 600 
Q 550 1309 550 2009 
Q 550 2706 781 3412 
Q 1013 4119 1484 4856 
L 1984 4856 
z
" id="DejaVuSans-28" transform="scale(0.015625)"/>
       <path d="M 4653 2053 
Q 4381 2053 4226 1822 
Q 4072 1591 4072 1178 
Q 4072 772 4226 539 
Q 4381 306 4653 306 
Q 4919 306 5073 539 
Q 5228 772 5228 1178 
Q 5228 1588 5073 1820 
Q 4919 2053 4653 2053 
z
M 4653 2450 
Q 5147 2450 5437 2106 
Q 5728 1763 5728 1178 
Q 5728 594 5436 251 
Q 5144 -91 4653 -91 
Q 4153 -91 3862 251 
Q 3572 594 3572 1178 
Q 3572 1766 3864 2108 
Q 4156 2450 4653 2450 
z
M 1428 4353 
Q 1159 4353 1004 4120 
Q 850 3888 850 3481 
Q 850 3069 1003 2837 
Q 1156 2606 1428 2606 
Q 1700 2606 1854 2837 
Q 2009 3069 2009 3481 
Q 2009 3884 1853 4118 
Q 1697 4353 1428 4353 
z
M 4250 4750 
L 4750 4750 
L 1831 -91 
L 1331 -91 
L 4250 4750 
z
M 1428 4750 
Q 1922 4750 2215 4408 
Q 2509 4066 2509 3481 
Q 2509 2891 2217 2550 
Q 1925 2209 1428 2209 
Q 931 2209 642 2551 
Q 353 2894 353 3481 
Q 353 4063 643 4406 
Q 934 4750 1428 4750 
z
" id="DejaVuSans-25" transform="scale(0.015625)"/>
       <path d="M 2631 2963 
Q 2534 3019 2420 3045 
Q 2306 3072 2169 3072 
Q 1681 3072 1420 2755 
Q 1159 2438 1159 1844 
L 1159 0 
L 581 0 
L 581 3500 
L 1159 3500 
L 1159 2956 
Q 1341 3275 1631 3429 
Q 1922 3584 2338 3584 
Q 2397 3584 2469 3576 
Q 2541 3569 2628 3553 
L 2631 2963 
z
" id="DejaVuSans-72" transform="scale(0.015625)"/>
       <path d="M 603 3500 
L 1178 3500 
L 1178 0 
L 603 0 
L 603 3500 
z
M 603 4863 
L 1178 4863 
L 1178 4134 
L 603 4134 
L 603 4863 
z
" id="DejaVuSans-69" transform="scale(0.015625)"/>
       <path d="M 3122 3366 
L 3122 2828 
Q 2878 2963 2633 3030 
Q 2388 3097 2138 3097 
Q 1578 3097 1268 2742 
Q 959 2388 959 1747 
Q 959 1106 1268 751 
Q 1578 397 2138 397 
Q 2388 397 2633 464 
Q 2878 531 3122 666 
L 3122 134 
Q 2881 22 2623 -34 
Q 2366 -91 2075 -91 
Q 1284 -91 818 406 
Q 353 903 353 1747 
Q 353 2603 823 3093 
Q 1294 3584 2113 3584 
Q 2378 3584 2631 3529 
Q 2884 3475 3122 3366 
z
" id="DejaVuSans-63" transform="scale(0.015625)"/>
       <path d="M 2834 3397 
L 2834 2853 
Q 2591 2978 2328 3040 
Q 2066 3103 1784 3103 
Q 1356 3103 1142 2972 
Q 928 2841 928 2578 
Q 928 2378 1081 2264 
Q 1234 2150 1697 2047 
L 1894 2003 
Q 2506 1872 2764 1633 
Q 3022 1394 3022 966 
Q 3022 478 2636 193 
Q 2250 -91 1575 -91 
Q 1294 -91 989 -36 
Q 684 19 347 128 
L 347 722 
Q 666 556 975 473 
Q 1284 391 1588 391 
Q 1994 391 2212 530 
Q 2431 669 2431 922 
Q 2431 1156 2273 1281 
Q 2116 1406 1581 1522 
L 1381 1569 
Q 847 1681 609 1914 
Q 372 2147 372 2553 
Q 372 3047 722 3315 
Q 1072 3584 1716 3584 
Q 2034 3584 2315 3537 
Q 2597 3491 2834 3397 
z
" id="DejaVuSans-73" transform="scale(0.015625)"/>
       <path d="M 513 4856 
L 1013 4856 
Q 1481 4119 1714 3412 
Q 1947 2706 1947 2009 
Q 1947 1309 1714 600 
Q 1481 -109 1013 -844 
L 513 -844 
Q 928 -128 1133 580 
Q 1338 1288 1338 2009 
Q 1338 2731 1133 3434 
Q 928 4138 513 4856 
z
" id="DejaVuSans-29" transform="scale(0.015625)"/>
      </defs>
      <use xlink:href="#DejaVuSans-43"/>
      <use x="69.824219" xlink:href="#DejaVuSans-50"/>
      <use x="130.126953" xlink:href="#DejaVuSans-49"/>
      <use x="159.619141" xlink:href="#DejaVuSans-20"/>
      <use x="191.40625" xlink:href="#DejaVuSans-28"/>
      <use x="230.419922" xlink:href="#DejaVuSans-25"/>
      <use x="325.439453" xlink:href="#DejaVuSans-20"/>
      <use x="357.226562" xlink:href="#DejaVuSans-32"/>
      <use x="420.849609" xlink:href="#DejaVuSans-30"/>
      <use x="484.472656" xlink:href="#DejaVuSans-30"/>
      <use x="548.095703" xlink:href="#DejaVuSans-32"/>
      <use x="611.71875" xlink:href="#DejaVuSans-20"/>
      <use x="643.505859" xlink:href="#DejaVuSans-50"/>
      <use x="702.058594" xlink:href="#DejaVuSans-72"/>
      <use x="743.171875" xlink:href="#DejaVuSans-69"/>
      <use x="770.955078" xlink:href="#DejaVuSans-63"/>
      <use x="825.935547" xlink:href="#DejaVuSans-65"/>
      <use x="887.458984" xlink:href="#DejaVuSans-73"/>
      <use x="939.558594" xlink:href="#DejaVuSans-29"/>
     </g>
    </g>
   </g>
   <g id="line2d_27">
    <path clip-path="url(#p3e448a49a5)" d="M 115.363636 353.524855 
L 118.029984 351.35408 
L 120.982013 352.344187 
L 123.838814 355.320833 
L 126.790843 358.202117 
L 129.647644 355.391219 
L 132.599672 356.135948 
L 135.551701 356.862513 
L 138.408502 354.030423 
L 141.36053 355.091511 
L 144.217332 351.942306 
L 147.16936 363.174545 
L 150.121388 348.507016 
L 152.882963 345.250784 
L 155.834992 348.938414 
L 158.691793 341.73634 
L 161.643821 344.079512 
L 164.500623 342.932901 
L 167.452651 345.101243 
L 170.404679 337.767479 
L 173.261481 338.263965 
L 176.213509 341.60465 
L 179.070311 335.190444 
L 182.022339 352.934521 
L 184.974367 336.291644 
L 187.640715 339.866084 
L 190.592744 336.927388 
L 193.449545 343.449065 
L 196.401573 339.833648 
L 199.258375 341.220176 
L 202.210403 346.440847 
L 205.162432 339.924468 
L 208.019233 336.31662 
L 210.971261 330.59265 
L 213.828063 319.423986 
L 216.780091 333.044807 
L 219.732119 317.491777 
L 222.398467 318.046431 
L 225.350496 302.846953 
L 228.207297 304.009457 
L 231.159326 309.00005 
L 234.016127 306.543352 
L 236.968155 300.553733 
L 239.920184 302.302029 
L 242.776985 309.898417 
L 245.729013 292.334467 
L 248.585815 300.16169 
L 251.537843 314.426581 
L 254.489871 292.516108 
L 257.15622 302.838033 
L 260.108248 294.468752 
L 262.965049 293.263865 
L 265.917078 298.419448 
L 268.773879 309.992265 
L 271.725907 298.510269 
L 274.677936 312.360412 
L 277.534737 294.296192 
L 280.486766 282.094443 
L 283.343567 281.227863 
L 286.295595 299.35036 
L 289.247624 281.663045 
L 292.009198 280.738397 
L 294.961227 308.568652 
L 297.818028 307.364522 
L 300.770056 283.661099 
L 303.626858 248.357613 
L 306.578886 254.462271 
L 309.530915 251.533307 
L 312.387716 259.548983 
L 315.339744 281.413288 
L 318.196546 270.341499 
L 321.148574 267.131747 
L 324.100602 284.433074 
L 326.766951 272.572064 
L 329.718979 252.464218 
L 332.57578 278.529734 
L 335.527809 282.094443 
L 338.38461 280.524003 
L 341.336638 287.430154 
L 344.288667 286.79441 
L 347.145468 269.285709 
L 350.097496 250.965678 
L 352.954298 248.005683 
L 355.906326 274.919615 
L 358.858355 254.553092 
L 361.524703 251.230031 
L 364.571958 210.255338 
L 367.428759 346.10027 
L 370.380787 291.199209 
L 373.237589 336.950093 
L 376.189617 295.422368 
L 379.141645 285.568331 
L 381.998447 362.289044 
L 384.950475 110.307253 
L 387.807277 265.860258 
L 390.759305 304.572545 
L 393.711333 289.08763 
L 396.377681 285.568331 
L 399.32971 342.580971 
L 402.186511 238.409728 
" style="fill:none;stroke:#000000;stroke-linecap:square;stroke-width:1.5;"/>
   </g>
   <g id="line2d_28">
    <path clip-path="url(#p3e448a49a5)" d="M 364.571958 253.54227 
L 367.428759 252.367968 
L 370.380787 251.193666 
L 373.237589 250.019364 
L 376.189617 248.845062 
L 379.141645 247.67076 
L 381.998447 246.496459 
L 384.950475 245.322157 
L 387.807277 244.147855 
L 390.759305 242.973553 
L 393.711333 241.799251 
L 396.377681 240.624949 
L 399.32971 239.450647 
L 402.186511 238.276346 
L 405.13854 237.102044 
L 407.995341 235.927742 
L 410.947369 234.75344 
L 413.899398 233.579138 
L 416.756199 232.404836 
L 419.708227 231.230535 
L 422.565029 230.056233 
L 425.517057 228.881931 
L 428.469085 227.707629 
L 431.23066 226.533327 
L 434.182689 225.359025 
L 437.03949 224.184724 
L 439.991518 223.010422 
L 442.84832 221.83612 
L 445.800348 220.661818 
L 448.752376 219.487516 
L 451.609178 218.313214 
L 454.561206 217.138912 
L 457.418008 215.964611 
L 460.370036 214.790309 
L 463.322064 213.616007 
L 465.988412 212.441705 
L 468.940441 211.267403 
L 471.797242 210.093101 
L 474.74927 208.9188 
L 477.606072 207.744498 
L 480.5581 206.570196 
L 483.510129 205.395894 
L 486.36693 204.221592 
L 489.318958 203.04729 
L 492.17576 201.872988 
L 495.127788 200.698687 
L 498.079816 199.524385 
L 500.746164 198.350083 
L 503.698193 197.175781 
L 506.554994 196.001479 
L 509.507023 194.827177 
L 512.363824 193.652876 
L 515.315852 192.478574 
L 518.267881 191.304272 
L 521.124682 190.12997 
L 524.07671 188.955668 
L 526.933512 187.781366 
L 529.88554 186.607065 
L 532.837568 185.432763 
L 535.503917 184.258461 
L 538.455945 183.084159 
L 541.312746 181.909857 
L 544.264775 180.735555 
L 547.121576 179.561253 
L 550.073604 178.386952 
L 553.025633 177.21265 
L 555.882434 176.038348 
L 558.834463 174.864046 
L 561.691264 173.689744 
L 564.643292 172.515442 
L 567.595321 171.341141 
L 570.356895 170.166839 
L 573.308924 168.992537 
L 576.165725 167.818235 
L 579.117753 166.643933 
L 581.974555 165.469631 
L 584.926583 164.29533 
L 587.878612 163.121028 
L 590.735413 161.946726 
L 593.687441 160.772424 
L 596.544243 159.598122 
L 599.496271 158.42382 
L 602.448299 157.249518 
L 605.114648 156.075217 
L 608.066676 154.900915 
L 610.923477 153.726613 
L 613.875506 152.552311 
L 616.732307 151.378009 
L 619.684335 150.203707 
L 622.636364 149.029406 
" style="fill:none;stroke:#800080;stroke-linecap:square;stroke-width:1.5;"/>
   </g>
   <g id="line2d_29">
    <path clip-path="url(#p3e448a49a5)" d="M 364.286277 378 
L 364.286277 51.84 
" style="fill:none;stroke:#000000;stroke-dasharray:5.55,2.4;stroke-dashoffset:0;stroke-opacity:0.5;stroke-width:1.5;"/>
   </g>
   <g id="patch_3">
    <path d="M 90 378 
L 90 51.84 
" style="fill:none;stroke:#000000;stroke-linecap:square;stroke-linejoin:miter;stroke-width:0.8;"/>
   </g>
   <g id="patch_4">
    <path d="M 648 378 
L 648 51.84 
" style="fill:none;stroke:#000000;stroke-linecap:square;stroke-linejoin:miter;stroke-width:0.8;"/>
   </g>
   <g id="patch_5">
    <path d="M 90 378 
L 648 378 
" style="fill:none;stroke:#000000;stroke-linecap:square;stroke-linejoin:miter;stroke-width:0.8;"/>
   </g>
   <g id="patch_6">
    <path d="M 90 51.84 
L 648 51.84 
" style="fill:none;stroke:#000000;stroke-linecap:square;stroke-linejoin:miter;stroke-width:0.8;"/>
   </g>
   <g id="text_24">
    <!-- IS_SUBSTANCE_ABUSE -->
    <g transform="translate(301.41375 32.068875)scale(0.12 -0.12)">
     <defs>
      <path d="M 3425 4513 
L 3425 3897 
Q 3066 4069 2747 4153 
Q 2428 4238 2131 4238 
Q 1616 4238 1336 4038 
Q 1056 3838 1056 3469 
Q 1056 3159 1242 3001 
Q 1428 2844 1947 2747 
L 2328 2669 
Q 3034 2534 3370 2195 
Q 3706 1856 3706 1288 
Q 3706 609 3251 259 
Q 2797 -91 1919 -91 
Q 1588 -91 1214 -16 
Q 841 59 441 206 
L 441 856 
Q 825 641 1194 531 
Q 1563 422 1919 422 
Q 2459 422 2753 634 
Q 3047 847 3047 1241 
Q 3047 1584 2836 1778 
Q 2625 1972 2144 2069 
L 1759 2144 
Q 1053 2284 737 2584 
Q 422 2884 422 3419 
Q 422 4038 858 4394 
Q 1294 4750 2059 4750 
Q 2388 4750 2728 4690 
Q 3069 4631 3425 4513 
z
" id="DejaVuSans-53" transform="scale(0.015625)"/>
      <path d="M 3263 -1063 
L 3263 -1509 
L -63 -1509 
L -63 -1063 
L 3263 -1063 
z
" id="DejaVuSans-5f" transform="scale(0.015625)"/>
      <path d="M 556 4666 
L 1191 4666 
L 1191 1831 
Q 1191 1081 1462 751 
Q 1734 422 2344 422 
Q 2950 422 3222 751 
Q 3494 1081 3494 1831 
L 3494 4666 
L 4128 4666 
L 4128 1753 
Q 4128 841 3676 375 
Q 3225 -91 2344 -91 
Q 1459 -91 1007 375 
Q 556 841 556 1753 
L 556 4666 
z
" id="DejaVuSans-55" transform="scale(0.015625)"/>
      <path d="M 1259 2228 
L 1259 519 
L 2272 519 
Q 2781 519 3026 730 
Q 3272 941 3272 1375 
Q 3272 1813 3026 2020 
Q 2781 2228 2272 2228 
L 1259 2228 
z
M 1259 4147 
L 1259 2741 
L 2194 2741 
Q 2656 2741 2882 2914 
Q 3109 3088 3109 3444 
Q 3109 3797 2882 3972 
Q 2656 4147 2194 4147 
L 1259 4147 
z
M 628 4666 
L 2241 4666 
Q 2963 4666 3353 4366 
Q 3744 4066 3744 3513 
Q 3744 3084 3544 2831 
Q 3344 2578 2956 2516 
Q 3422 2416 3680 2098 
Q 3938 1781 3938 1306 
Q 3938 681 3513 340 
Q 3088 0 2303 0 
L 628 0 
L 628 4666 
z
" id="DejaVuSans-42" transform="scale(0.015625)"/>
      <path d="M -19 4666 
L 3928 4666 
L 3928 4134 
L 2272 4134 
L 2272 0 
L 1638 0 
L 1638 4134 
L -19 4134 
L -19 4666 
z
" id="DejaVuSans-54" transform="scale(0.015625)"/>
      <path d="M 2188 4044 
L 1331 1722 
L 3047 1722 
L 2188 4044 
z
M 1831 4666 
L 2547 4666 
L 4325 0 
L 3669 0 
L 3244 1197 
L 1141 1197 
L 716 0 
L 50 0 
L 1831 4666 
z
" id="DejaVuSans-41" transform="scale(0.015625)"/>
      <path d="M 628 4666 
L 1478 4666 
L 3547 763 
L 3547 4666 
L 4159 4666 
L 4159 0 
L 3309 0 
L 1241 3903 
L 1241 0 
L 628 0 
L 628 4666 
z
" id="DejaVuSans-4e" transform="scale(0.015625)"/>
      <path d="M 628 4666 
L 3578 4666 
L 3578 4134 
L 1259 4134 
L 1259 2753 
L 3481 2753 
L 3481 2222 
L 1259 2222 
L 1259 531 
L 3634 531 
L 3634 0 
L 628 0 
L 628 4666 
z
" id="DejaVuSans-45" transform="scale(0.015625)"/>
     </defs>
     <use xlink:href="#DejaVuSans-49"/>
     <use x="29.492188" xlink:href="#DejaVuSans-53"/>
     <use x="92.96875" xlink:href="#DejaVuSans-5f"/>
     <use x="142.96875" xlink:href="#DejaVuSans-53"/>
     <use x="206.445312" xlink:href="#DejaVuSans-55"/>
     <use x="279.638672" xlink:href="#DejaVuSans-42"/>
     <use x="346.492188" xlink:href="#DejaVuSans-53"/>
     <use x="409.96875" xlink:href="#DejaVuSans-54"/>
     <use x="463.302734" xlink:href="#DejaVuSans-41"/>
     <use x="531.710938" xlink:href="#DejaVuSans-4e"/>
     <use x="606.515625" xlink:href="#DejaVuSans-43"/>
     <use x="676.339844" xlink:href="#DejaVuSans-45"/>
     <use x="739.523438" xlink:href="#DejaVuSans-5f"/>
     <use x="789.523438" xlink:href="#DejaVuSans-41"/>
     <use x="857.931641" xlink:href="#DejaVuSans-42"/>
     <use x="926.535156" xlink:href="#DejaVuSans-55"/>
     <use x="999.728516" xlink:href="#DejaVuSans-53"/>
     <use x="1063.205078" xlink:href="#DejaVuSans-45"/>
    </g>
    <!-- Retrospective Forecast - 2022-3-29 -->
    <g transform="translate(263.547188 45.84)scale(0.12 -0.12)">
     <defs>
      <path d="M 2841 2188 
Q 3044 2119 3236 1894 
Q 3428 1669 3622 1275 
L 4263 0 
L 3584 0 
L 2988 1197 
Q 2756 1666 2539 1819 
Q 2322 1972 1947 1972 
L 1259 1972 
L 1259 0 
L 628 0 
L 628 4666 
L 2053 4666 
Q 2853 4666 3247 4331 
Q 3641 3997 3641 3322 
Q 3641 2881 3436 2590 
Q 3231 2300 2841 2188 
z
M 1259 4147 
L 1259 2491 
L 2053 2491 
Q 2509 2491 2742 2702 
Q 2975 2913 2975 3322 
Q 2975 3731 2742 3939 
Q 2509 4147 2053 4147 
L 1259 4147 
z
" id="DejaVuSans-52" transform="scale(0.015625)"/>
      <path d="M 1959 3097 
Q 1497 3097 1228 2736 
Q 959 2375 959 1747 
Q 959 1119 1226 758 
Q 1494 397 1959 397 
Q 2419 397 2687 759 
Q 2956 1122 2956 1747 
Q 2956 2369 2687 2733 
Q 2419 3097 1959 3097 
z
M 1959 3584 
Q 2709 3584 3137 3096 
Q 3566 2609 3566 1747 
Q 3566 888 3137 398 
Q 2709 -91 1959 -91 
Q 1206 -91 779 398 
Q 353 888 353 1747 
Q 353 2609 779 3096 
Q 1206 3584 1959 3584 
z
" id="DejaVuSans-6f" transform="scale(0.015625)"/>
      <path d="M 1159 525 
L 1159 -1331 
L 581 -1331 
L 581 3500 
L 1159 3500 
L 1159 2969 
Q 1341 3281 1617 3432 
Q 1894 3584 2278 3584 
Q 2916 3584 3314 3078 
Q 3713 2572 3713 1747 
Q 3713 922 3314 415 
Q 2916 -91 2278 -91 
Q 1894 -91 1617 61 
Q 1341 213 1159 525 
z
M 3116 1747 
Q 3116 2381 2855 2742 
Q 2594 3103 2138 3103 
Q 1681 3103 1420 2742 
Q 1159 2381 1159 1747 
Q 1159 1113 1420 752 
Q 1681 391 2138 391 
Q 2594 391 2855 752 
Q 3116 1113 3116 1747 
z
" id="DejaVuSans-70" transform="scale(0.015625)"/>
      <path d="M 191 3500 
L 800 3500 
L 1894 563 
L 2988 3500 
L 3597 3500 
L 2284 0 
L 1503 0 
L 191 3500 
z
" id="DejaVuSans-76" transform="scale(0.015625)"/>
      <path d="M 628 4666 
L 3309 4666 
L 3309 4134 
L 1259 4134 
L 1259 2759 
L 3109 2759 
L 3109 2228 
L 1259 2228 
L 1259 0 
L 628 0 
L 628 4666 
z
" id="DejaVuSans-46" transform="scale(0.015625)"/>
      <path d="M 313 2009 
L 1997 2009 
L 1997 1497 
L 313 1497 
L 313 2009 
z
" id="DejaVuSans-2d" transform="scale(0.015625)"/>
     </defs>
     <use xlink:href="#DejaVuSans-52"/>
     <use x="64.982422" xlink:href="#DejaVuSans-65"/>
     <use x="126.505859" xlink:href="#DejaVuSans-74"/>
     <use x="165.714844" xlink:href="#DejaVuSans-72"/>
     <use x="204.578125" xlink:href="#DejaVuSans-6f"/>
     <use x="265.759766" xlink:href="#DejaVuSans-73"/>
     <use x="317.859375" xlink:href="#DejaVuSans-70"/>
     <use x="381.335938" xlink:href="#DejaVuSans-65"/>
     <use x="442.859375" xlink:href="#DejaVuSans-63"/>
     <use x="497.839844" xlink:href="#DejaVuSans-74"/>
     <use x="537.048828" xlink:href="#DejaVuSans-69"/>
     <use x="564.832031" xlink:href="#DejaVuSans-76"/>
     <use x="624.011719" xlink:href="#DejaVuSans-65"/>
     <use x="685.535156" xlink:href="#DejaVuSans-20"/>
     <use x="717.322266" xlink:href="#DejaVuSans-46"/>
     <use x="771.216797" xlink:href="#DejaVuSans-6f"/>
     <use x="832.398438" xlink:href="#DejaVuSans-72"/>
     <use x="871.261719" xlink:href="#DejaVuSans-65"/>
     <use x="932.785156" xlink:href="#DejaVuSans-63"/>
     <use x="987.765625" xlink:href="#DejaVuSans-61"/>
     <use x="1049.044922" xlink:href="#DejaVuSans-73"/>
     <use x="1101.144531" xlink:href="#DejaVuSans-74"/>
     <use x="1140.353516" xlink:href="#DejaVuSans-20"/>
     <use x="1172.140625" xlink:href="#DejaVuSans-2d"/>
     <use x="1208.224609" xlink:href="#DejaVuSans-20"/>
     <use x="1240.011719" xlink:href="#DejaVuSans-32"/>
     <use x="1303.634766" xlink:href="#DejaVuSans-30"/>
     <use x="1367.257812" xlink:href="#DejaVuSans-32"/>
     <use x="1430.880859" xlink:href="#DejaVuSans-32"/>
     <use x="1494.503906" xlink:href="#DejaVuSans-2d"/>
     <use x="1530.587891" xlink:href="#DejaVuSans-33"/>
     <use x="1594.210938" xlink:href="#DejaVuSans-2d"/>
     <use x="1630.294922" xlink:href="#DejaVuSans-32"/>
     <use x="1693.917969" xlink:href="#DejaVuSans-39"/>
    </g>
   </g>
   <g id="legend_1">
    <g id="patch_7">
     <path d="M 527.145313 118.5525 
L 641 118.5525 
Q 643 118.5525 643 116.5525 
L 643 58.84 
Q 643 56.84 641 56.84 
L 527.145313 56.84 
Q 525.145313 56.84 525.145313 58.84 
L 525.145313 116.5525 
Q 525.145313 118.5525 527.145313 118.5525 
z
" style="fill:#ffffff;opacity:0.8;stroke:#cccccc;stroke-linejoin:miter;"/>
    </g>
    <g id="line2d_30">
     <path d="M 529.145313 64.938438 
L 549.145313 64.938438 
" style="fill:none;stroke:#000000;stroke-linecap:square;stroke-width:1.5;"/>
    </g>
    <g id="line2d_31"/>
    <g id="text_25">
     <!-- Historical CPI -->
     <g transform="translate(557.145313 68.438438)scale(0.1 -0.1)">
      <defs>
       <path d="M 628 4666 
L 1259 4666 
L 1259 2753 
L 3553 2753 
L 3553 4666 
L 4184 4666 
L 4184 0 
L 3553 0 
L 3553 2222 
L 1259 2222 
L 1259 0 
L 628 0 
L 628 4666 
z
" id="DejaVuSans-48" transform="scale(0.015625)"/>
       <path d="M 603 4863 
L 1178 4863 
L 1178 0 
L 603 0 
L 603 4863 
z
" id="DejaVuSans-6c" transform="scale(0.015625)"/>
      </defs>
      <use xlink:href="#DejaVuSans-48"/>
      <use x="75.195312" xlink:href="#DejaVuSans-69"/>
      <use x="102.978516" xlink:href="#DejaVuSans-73"/>
      <use x="155.078125" xlink:href="#DejaVuSans-74"/>
      <use x="194.287109" xlink:href="#DejaVuSans-6f"/>
      <use x="255.46875" xlink:href="#DejaVuSans-72"/>
      <use x="296.582031" xlink:href="#DejaVuSans-69"/>
      <use x="324.365234" xlink:href="#DejaVuSans-63"/>
      <use x="379.345703" xlink:href="#DejaVuSans-61"/>
      <use x="440.625" xlink:href="#DejaVuSans-6c"/>
      <use x="468.408203" xlink:href="#DejaVuSans-20"/>
      <use x="500.195312" xlink:href="#DejaVuSans-43"/>
      <use x="570.019531" xlink:href="#DejaVuSans-50"/>
      <use x="630.322266" xlink:href="#DejaVuSans-49"/>
     </g>
    </g>
    <g id="line2d_32">
     <path d="M 529.145313 79.616563 
L 549.145313 79.616563 
" style="fill:none;stroke:#800080;stroke-linecap:square;stroke-width:1.5;"/>
    </g>
    <g id="line2d_33"/>
    <g id="text_26">
     <!-- Median Forecast -->
     <g transform="translate(557.145313 83.116563)scale(0.1 -0.1)">
      <defs>
       <path d="M 628 4666 
L 1569 4666 
L 2759 1491 
L 3956 4666 
L 4897 4666 
L 4897 0 
L 4281 0 
L 4281 4097 
L 3078 897 
L 2444 897 
L 1241 4097 
L 1241 0 
L 628 0 
L 628 4666 
z
" id="DejaVuSans-4d" transform="scale(0.015625)"/>
       <path d="M 2906 2969 
L 2906 4863 
L 3481 4863 
L 3481 0 
L 2906 0 
L 2906 525 
Q 2725 213 2448 61 
Q 2172 -91 1784 -91 
Q 1150 -91 751 415 
Q 353 922 353 1747 
Q 353 2572 751 3078 
Q 1150 3584 1784 3584 
Q 2172 3584 2448 3432 
Q 2725 3281 2906 2969 
z
M 947 1747 
Q 947 1113 1208 752 
Q 1469 391 1925 391 
Q 2381 391 2643 752 
Q 2906 1113 2906 1747 
Q 2906 2381 2643 2742 
Q 2381 3103 1925 3103 
Q 1469 3103 1208 2742 
Q 947 2381 947 1747 
z
" id="DejaVuSans-64" transform="scale(0.015625)"/>
       <path d="M 3513 2113 
L 3513 0 
L 2938 0 
L 2938 2094 
Q 2938 2591 2744 2837 
Q 2550 3084 2163 3084 
Q 1697 3084 1428 2787 
Q 1159 2491 1159 1978 
L 1159 0 
L 581 0 
L 581 3500 
L 1159 3500 
L 1159 2956 
Q 1366 3272 1645 3428 
Q 1925 3584 2291 3584 
Q 2894 3584 3203 3211 
Q 3513 2838 3513 2113 
z
" id="DejaVuSans-6e" transform="scale(0.015625)"/>
      </defs>
      <use xlink:href="#DejaVuSans-4d"/>
      <use x="86.279297" xlink:href="#DejaVuSans-65"/>
      <use x="147.802734" xlink:href="#DejaVuSans-64"/>
      <use x="211.279297" xlink:href="#DejaVuSans-69"/>
      <use x="239.0625" xlink:href="#DejaVuSans-61"/>
      <use x="300.341797" xlink:href="#DejaVuSans-6e"/>
      <use x="363.720703" xlink:href="#DejaVuSans-20"/>
      <use x="395.507812" xlink:href="#DejaVuSans-46"/>
      <use x="449.402344" xlink:href="#DejaVuSans-6f"/>
      <use x="510.583984" xlink:href="#DejaVuSans-72"/>
      <use x="549.447266" xlink:href="#DejaVuSans-65"/>
      <use x="610.970703" xlink:href="#DejaVuSans-63"/>
      <use x="665.951172" xlink:href="#DejaVuSans-61"/>
      <use x="727.230469" xlink:href="#DejaVuSans-73"/>
      <use x="779.330078" xlink:href="#DejaVuSans-74"/>
     </g>
    </g>
    <g id="line2d_34">
     <path d="M 529.145313 94.294688 
L 549.145313 94.294688 
" style="fill:none;stroke:#000000;stroke-dasharray:5.55,2.4;stroke-dashoffset:0;stroke-opacity:0.5;stroke-width:1.5;"/>
    </g>
    <g id="line2d_35"/>
    <g id="text_27">
     <!-- Cutoff Date -->
     <g transform="translate(557.145313 97.794688)scale(0.1 -0.1)">
      <defs>
       <path d="M 544 1381 
L 544 3500 
L 1119 3500 
L 1119 1403 
Q 1119 906 1312 657 
Q 1506 409 1894 409 
Q 2359 409 2629 706 
Q 2900 1003 2900 1516 
L 2900 3500 
L 3475 3500 
L 3475 0 
L 2900 0 
L 2900 538 
Q 2691 219 2414 64 
Q 2138 -91 1772 -91 
Q 1169 -91 856 284 
Q 544 659 544 1381 
z
M 1991 3584 
L 1991 3584 
z
" id="DejaVuSans-75" transform="scale(0.015625)"/>
       <path d="M 2375 4863 
L 2375 4384 
L 1825 4384 
Q 1516 4384 1395 4259 
Q 1275 4134 1275 3809 
L 1275 3500 
L 2222 3500 
L 2222 3053 
L 1275 3053 
L 1275 0 
L 697 0 
L 697 3053 
L 147 3053 
L 147 3500 
L 697 3500 
L 697 3744 
Q 697 4328 969 4595 
Q 1241 4863 1831 4863 
L 2375 4863 
z
" id="DejaVuSans-66" transform="scale(0.015625)"/>
      </defs>
      <use xlink:href="#DejaVuSans-43"/>
      <use x="69.824219" xlink:href="#DejaVuSans-75"/>
      <use x="133.203125" xlink:href="#DejaVuSans-74"/>
      <use x="172.412109" xlink:href="#DejaVuSans-6f"/>
      <use x="233.59375" xlink:href="#DejaVuSans-66"/>
      <use x="268.798828" xlink:href="#DejaVuSans-66"/>
      <use x="304.003906" xlink:href="#DejaVuSans-20"/>
      <use x="335.791016" xlink:href="#DejaVuSans-44"/>
      <use x="412.792969" xlink:href="#DejaVuSans-61"/>
      <use x="474.072266" xlink:href="#DejaVuSans-74"/>
      <use x="513.28125" xlink:href="#DejaVuSans-65"/>
     </g>
    </g>
    <g id="patch_8">
     <path d="M 529.145313 112.472813 
L 549.145313 112.472813 
L 549.145313 105.472813 
L 529.145313 105.472813 
z
" style="fill:#800080;opacity:0.5;"/>
    </g>
    <g id="text_28">
     <!-- 95% Confidence -->
     <g transform="translate(557.145313 112.472813)scale(0.1 -0.1)">
      <use xlink:href="#DejaVuSans-39"/>
      <use x="63.623047" xlink:href="#DejaVuSans-35"/>
      <use x="127.246094" xlink:href="#DejaVuSans-25"/>
      <use x="222.265625" xlink:href="#DejaVuSans-20"/>
      <use x="254.052734" xlink:href="#DejaVuSans-43"/>
      <use x="323.876953" xlink:href="#DejaVuSans-6f"/>
      <use x="385.058594" xlink:href="#DejaVuSans-6e"/>
      <use x="448.4375" xlink:href="#DejaVuSans-66"/>
      <use x="483.642578" xlink:href="#DejaVuSans-69"/>
      <use x="511.425781" xlink:href="#DejaVuSans-64"/>
      <use x="574.902344" xlink:href="#DejaVuSans-65"/>
      <use x="636.425781" xlink:href="#DejaVuSans-6e"/>
      <use x="699.804688" xlink:href="#DejaVuSans-63"/>
      <use x="754.785156" xlink:href="#DejaVuSans-65"/>
     </g>
    </g>
   </g>
  </g>
 </g>
 <defs>
  <clipPath id="p3e448a49a5">
   <rect height="326.16" width="558" x="90" y="51.84"/>
  </clipPath>
 </defs>
</svg>
