<?xml version="1.0" encoding="utf-8" standalone="no"?>
<!DOCTYPE svg PUBLIC "-//W3C//DTD SVG 1.1//EN"
  "http://www.w3.org/Graphics/SVG/1.1/DTD/svg11.dtd">
<svg height="432pt" version="1.1" viewBox="0 0 720 432" width="720pt" xmlns="http://www.w3.org/2000/svg" xmlns:xlink="http://www.w3.org/1999/xlink">
 <metadata>
  <rdf:RDF xmlns:cc="http://creativecommons.org/ns#" xmlns:dc="http://purl.org/dc/elements/1.1/" xmlns:rdf="http://www.w3.org/1999/02/22-rdf-syntax-ns#">
   <cc:Work>
    <dc:type rdf:resource="http://purl.org/dc/dcmitype/StillImage"/>
    <dc:date>2023-11-03T13:30:41.638044</dc:date>
    <dc:format>image/svg+xml</dc:format>
    <dc:creator>
     <cc:Agent>
      <dc:title>Matplotlib v3.4.2, https://matplotlib.org/</dc:title>
     </cc:Agent>
    </dc:creator>
   </cc:Work>
  </rdf:RDF>
 </metadata>
 <defs>
  <style type="text/css">*{stroke-linecap:butt;stroke-linejoin:round;}</style>
 </defs>
 <g id="figure_1">
  <g id="patch_1">
   <path d="M 0 432 
L 720 432 
L 720 0 
L 0 0 
z
" style="fill:none;"/>
  </g>
  <g id="axes_1">
   <g id="patch_2">
    <path d="M 90 378 
L 648 378 
L 648 51.84 
L 90 51.84 
z
" style="fill:#ffffff;"/>
   </g>
   <g id="PolyCollection_1">
    <path clip-path="url(#p06da9eecfd)" d="M 355.53651 199.292599 
L 355.53651 230.547401 
L 358.594153 237.020483 
L 361.553161 241.987453 
L 364.610804 246.174802 
L 367.668446 249.863931 
L 370.430188 253.199159 
L 373.48783 256.266217 
L 376.446839 259.120966 
L 379.504481 261.802204 
L 382.46349 264.338182 
L 385.521132 266.750226 
L 388.578774 269.054906 
L 391.537783 271.265396 
L 394.595425 273.392381 
L 397.554434 275.444665 
L 400.612076 277.429605 
L 403.669719 279.353426 
L 406.43146 281.221448 
L 409.489103 283.038263 
L 412.448111 284.807863 
L 415.505754 286.533749 
L 418.464762 288.219009 
L 421.522405 289.866383 
L 424.580047 291.478318 
L 427.539056 293.057006 
L 430.596698 294.604424 
L 433.555707 296.122359 
L 436.613349 297.612435 
L 439.670991 299.076131 
L 442.531367 300.514802 
L 445.589009 301.929688 
L 448.548018 303.321931 
L 451.60566 304.692585 
L 454.564669 306.042625 
L 457.622311 307.372953 
L 460.679953 308.684407 
L 463.638962 309.977771 
L 466.696604 311.253771 
L 469.655613 312.513089 
L 472.713255 313.756364 
L 475.770898 314.984192 
L 478.532639 316.197135 
L 481.590282 317.395723 
L 484.54929 318.580453 
L 487.606933 319.751794 
L 490.565941 320.910192 
L 493.623584 322.056065 
L 496.681226 323.189812 
L 499.640235 324.311809 
L 502.697877 325.422414 
L 505.656886 326.521967 
L 508.714528 327.610793 
L 511.77217 328.689198 
L 514.533912 329.757477 
L 517.591554 330.815909 
L 520.550563 331.864763 
L 523.608205 332.904292 
L 526.567214 333.934742 
L 529.624856 334.956347 
L 532.682499 335.969329 
L 535.641507 336.973905 
L 538.69915 337.97028 
L 541.658158 338.958652 
L 544.715801 339.93921 
L 547.773443 340.912137 
L 550.535185 341.877608 
L 553.592827 342.835792 
L 556.551836 343.786852 
L 559.609478 344.730944 
L 562.568487 345.668219 
L 565.626129 346.598823 
L 568.683771 347.522897 
L 571.64278 348.440575 
L 574.700422 349.351989 
L 577.659431 350.257265 
L 580.717074 351.156525 
L 583.774716 352.049889 
L 586.635091 352.937471 
L 589.692733 353.81938 
L 592.651742 354.695726 
L 595.709384 355.566611 
L 598.668393 356.432137 
L 601.726035 357.292401 
L 604.783678 358.147498 
L 607.742686 358.99752 
L 610.800329 359.842557 
L 613.759337 360.682695 
L 616.81698 361.518018 
L 619.874622 362.348608 
L 622.636364 363.174545 
L 622.636364 66.665455 
L 622.636364 66.665455 
L 619.874622 67.491392 
L 616.81698 68.321982 
L 613.759337 69.157305 
L 610.800329 69.997443 
L 607.742686 70.84248 
L 604.783678 71.692502 
L 601.726035 72.547599 
L 598.668393 73.407863 
L 595.709384 74.273389 
L 592.651742 75.144274 
L 589.692733 76.02062 
L 586.635091 76.902529 
L 583.774716 77.790111 
L 580.717074 78.683475 
L 577.659431 79.582735 
L 574.700422 80.488011 
L 571.64278 81.399425 
L 568.683771 82.317103 
L 565.626129 83.241177 
L 562.568487 84.171781 
L 559.609478 85.109056 
L 556.551836 86.053148 
L 553.592827 87.004208 
L 550.535185 87.962392 
L 547.773443 88.927863 
L 544.715801 89.90079 
L 541.658158 90.881348 
L 538.69915 91.86972 
L 535.641507 92.866095 
L 532.682499 93.870671 
L 529.624856 94.883653 
L 526.567214 95.905258 
L 523.608205 96.935708 
L 520.550563 97.975237 
L 517.591554 99.024091 
L 514.533912 100.082523 
L 511.77217 101.150802 
L 508.714528 102.229207 
L 505.656886 103.318033 
L 502.697877 104.417586 
L 499.640235 105.528191 
L 496.681226 106.650188 
L 493.623584 107.783935 
L 490.565941 108.929808 
L 487.606933 110.088206 
L 484.54929 111.259547 
L 481.590282 112.444277 
L 478.532639 113.642865 
L 475.770898 114.855808 
L 472.713255 116.083636 
L 469.655613 117.326911 
L 466.696604 118.586229 
L 463.638962 119.862229 
L 460.679953 121.155593 
L 457.622311 122.467047 
L 454.564669 123.797375 
L 451.60566 125.147415 
L 448.548018 126.518069 
L 445.589009 127.910312 
L 442.531367 129.325198 
L 439.670991 130.763869 
L 436.613349 132.227565 
L 433.555707 133.717641 
L 430.596698 135.235576 
L 427.539056 136.782994 
L 424.580047 138.361682 
L 421.522405 139.973617 
L 418.464762 141.620991 
L 415.505754 143.306251 
L 412.448111 145.032137 
L 409.489103 146.801737 
L 406.43146 148.618552 
L 403.669719 150.486574 
L 400.612076 152.410395 
L 397.554434 154.395335 
L 394.595425 156.447619 
L 391.537783 158.574604 
L 388.578774 160.785094 
L 385.521132 163.089774 
L 382.46349 165.501818 
L 379.504481 168.037796 
L 376.446839 170.719034 
L 373.48783 173.573783 
L 370.430188 176.640841 
L 367.668446 179.976069 
L 364.610804 183.665198 
L 361.553161 187.852547 
L 358.594153 192.819517 
L 355.53651 199.292599 
z
" style="fill:#800080;fill-opacity:0.5;"/>
   </g>
   <g id="matplotlib.axis_1">
    <g id="xtick_1">
     <g id="line2d_1">
      <defs>
       <path d="M 0 0 
L 0 3.5 
" id="mdcd87eb95e" style="stroke:#000000;stroke-width:0.8;"/>
      </defs>
      <g>
       <use style="stroke:#000000;stroke-width:0.8;" x="112.404628" xlink:href="#mdcd87eb95e" y="378"/>
      </g>
     </g>
     <g id="text_1">
      <!-- 2015 -->
      <g transform="translate(105.357867 408.368774)rotate(-45)scale(0.1 -0.1)">
       <defs>
        <path d="M 1228 531 
L 3431 531 
L 3431 0 
L 469 0 
L 469 531 
Q 828 903 1448 1529 
Q 2069 2156 2228 2338 
Q 2531 2678 2651 2914 
Q 2772 3150 2772 3378 
Q 2772 3750 2511 3984 
Q 2250 4219 1831 4219 
Q 1534 4219 1204 4116 
Q 875 4013 500 3803 
L 500 4441 
Q 881 4594 1212 4672 
Q 1544 4750 1819 4750 
Q 2544 4750 2975 4387 
Q 3406 4025 3406 3419 
Q 3406 3131 3298 2873 
Q 3191 2616 2906 2266 
Q 2828 2175 2409 1742 
Q 1991 1309 1228 531 
z
" id="DejaVuSans-32" transform="scale(0.015625)"/>
        <path d="M 2034 4250 
Q 1547 4250 1301 3770 
Q 1056 3291 1056 2328 
Q 1056 1369 1301 889 
Q 1547 409 2034 409 
Q 2525 409 2770 889 
Q 3016 1369 3016 2328 
Q 3016 3291 2770 3770 
Q 2525 4250 2034 4250 
z
M 2034 4750 
Q 2819 4750 3233 4129 
Q 3647 3509 3647 2328 
Q 3647 1150 3233 529 
Q 2819 -91 2034 -91 
Q 1250 -91 836 529 
Q 422 1150 422 2328 
Q 422 3509 836 4129 
Q 1250 4750 2034 4750 
z
" id="DejaVuSans-30" transform="scale(0.015625)"/>
        <path d="M 794 531 
L 1825 531 
L 1825 4091 
L 703 3866 
L 703 4441 
L 1819 4666 
L 2450 4666 
L 2450 531 
L 3481 531 
L 3481 0 
L 794 0 
L 794 531 
z
" id="DejaVuSans-31" transform="scale(0.015625)"/>
        <path d="M 691 4666 
L 3169 4666 
L 3169 4134 
L 1269 4134 
L 1269 2991 
Q 1406 3038 1543 3061 
Q 1681 3084 1819 3084 
Q 2600 3084 3056 2656 
Q 3513 2228 3513 1497 
Q 3513 744 3044 326 
Q 2575 -91 1722 -91 
Q 1428 -91 1123 -41 
Q 819 9 494 109 
L 494 744 
Q 775 591 1075 516 
Q 1375 441 1709 441 
Q 2250 441 2565 725 
Q 2881 1009 2881 1497 
Q 2881 1984 2565 2268 
Q 2250 2553 1709 2553 
Q 1456 2553 1204 2497 
Q 953 2441 691 2322 
L 691 4666 
z
" id="DejaVuSans-35" transform="scale(0.015625)"/>
       </defs>
       <use xlink:href="#DejaVuSans-32"/>
       <use x="63.623047" xlink:href="#DejaVuSans-30"/>
       <use x="127.246094" xlink:href="#DejaVuSans-31"/>
       <use x="190.869141" xlink:href="#DejaVuSans-35"/>
      </g>
     </g>
    </g>
    <g id="xtick_2">
     <g id="line2d_2">
      <g>
       <use style="stroke:#000000;stroke-width:0.8;" x="148.4059" xlink:href="#mdcd87eb95e" y="378"/>
      </g>
     </g>
     <g id="text_2">
      <!-- 2016 -->
      <g transform="translate(141.359139 408.368774)rotate(-45)scale(0.1 -0.1)">
       <defs>
        <path d="M 2113 2584 
Q 1688 2584 1439 2293 
Q 1191 2003 1191 1497 
Q 1191 994 1439 701 
Q 1688 409 2113 409 
Q 2538 409 2786 701 
Q 3034 994 3034 1497 
Q 3034 2003 2786 2293 
Q 2538 2584 2113 2584 
z
M 3366 4563 
L 3366 3988 
Q 3128 4100 2886 4159 
Q 2644 4219 2406 4219 
Q 1781 4219 1451 3797 
Q 1122 3375 1075 2522 
Q 1259 2794 1537 2939 
Q 1816 3084 2150 3084 
Q 2853 3084 3261 2657 
Q 3669 2231 3669 1497 
Q 3669 778 3244 343 
Q 2819 -91 2113 -91 
Q 1303 -91 875 529 
Q 447 1150 447 2328 
Q 447 3434 972 4092 
Q 1497 4750 2381 4750 
Q 2619 4750 2861 4703 
Q 3103 4656 3366 4563 
z
" id="DejaVuSans-36" transform="scale(0.015625)"/>
       </defs>
       <use xlink:href="#DejaVuSans-32"/>
       <use x="63.623047" xlink:href="#DejaVuSans-30"/>
       <use x="127.246094" xlink:href="#DejaVuSans-31"/>
       <use x="190.869141" xlink:href="#DejaVuSans-36"/>
      </g>
     </g>
    </g>
    <g id="xtick_3">
     <g id="line2d_3">
      <g>
       <use style="stroke:#000000;stroke-width:0.8;" x="184.505807" xlink:href="#mdcd87eb95e" y="378"/>
      </g>
     </g>
     <g id="text_3">
      <!-- 2017 -->
      <g transform="translate(177.459046 408.368774)rotate(-45)scale(0.1 -0.1)">
       <defs>
        <path d="M 525 4666 
L 3525 4666 
L 3525 4397 
L 1831 0 
L 1172 0 
L 2766 4134 
L 525 4134 
L 525 4666 
z
" id="DejaVuSans-37" transform="scale(0.015625)"/>
       </defs>
       <use xlink:href="#DejaVuSans-32"/>
       <use x="63.623047" xlink:href="#DejaVuSans-30"/>
       <use x="127.246094" xlink:href="#DejaVuSans-31"/>
       <use x="190.869141" xlink:href="#DejaVuSans-37"/>
      </g>
     </g>
    </g>
    <g id="xtick_4">
     <g id="line2d_4">
      <g>
       <use style="stroke:#000000;stroke-width:0.8;" x="220.507079" xlink:href="#mdcd87eb95e" y="378"/>
      </g>
     </g>
     <g id="text_4">
      <!-- 2018 -->
      <g transform="translate(213.460318 408.368774)rotate(-45)scale(0.1 -0.1)">
       <defs>
        <path d="M 2034 2216 
Q 1584 2216 1326 1975 
Q 1069 1734 1069 1313 
Q 1069 891 1326 650 
Q 1584 409 2034 409 
Q 2484 409 2743 651 
Q 3003 894 3003 1313 
Q 3003 1734 2745 1975 
Q 2488 2216 2034 2216 
z
M 1403 2484 
Q 997 2584 770 2862 
Q 544 3141 544 3541 
Q 544 4100 942 4425 
Q 1341 4750 2034 4750 
Q 2731 4750 3128 4425 
Q 3525 4100 3525 3541 
Q 3525 3141 3298 2862 
Q 3072 2584 2669 2484 
Q 3125 2378 3379 2068 
Q 3634 1759 3634 1313 
Q 3634 634 3220 271 
Q 2806 -91 2034 -91 
Q 1263 -91 848 271 
Q 434 634 434 1313 
Q 434 1759 690 2068 
Q 947 2378 1403 2484 
z
M 1172 3481 
Q 1172 3119 1398 2916 
Q 1625 2713 2034 2713 
Q 2441 2713 2670 2916 
Q 2900 3119 2900 3481 
Q 2900 3844 2670 4047 
Q 2441 4250 2034 4250 
Q 1625 4250 1398 4047 
Q 1172 3844 1172 3481 
z
" id="DejaVuSans-38" transform="scale(0.015625)"/>
       </defs>
       <use xlink:href="#DejaVuSans-32"/>
       <use x="63.623047" xlink:href="#DejaVuSans-30"/>
       <use x="127.246094" xlink:href="#DejaVuSans-31"/>
       <use x="190.869141" xlink:href="#DejaVuSans-38"/>
      </g>
     </g>
    </g>
    <g id="xtick_5">
     <g id="line2d_5">
      <g>
       <use style="stroke:#000000;stroke-width:0.8;" x="256.508352" xlink:href="#mdcd87eb95e" y="378"/>
      </g>
     </g>
     <g id="text_5">
      <!-- 2019 -->
      <g transform="translate(249.461591 408.368774)rotate(-45)scale(0.1 -0.1)">
       <defs>
        <path d="M 703 97 
L 703 672 
Q 941 559 1184 500 
Q 1428 441 1663 441 
Q 2288 441 2617 861 
Q 2947 1281 2994 2138 
Q 2813 1869 2534 1725 
Q 2256 1581 1919 1581 
Q 1219 1581 811 2004 
Q 403 2428 403 3163 
Q 403 3881 828 4315 
Q 1253 4750 1959 4750 
Q 2769 4750 3195 4129 
Q 3622 3509 3622 2328 
Q 3622 1225 3098 567 
Q 2575 -91 1691 -91 
Q 1453 -91 1209 -44 
Q 966 3 703 97 
z
M 1959 2075 
Q 2384 2075 2632 2365 
Q 2881 2656 2881 3163 
Q 2881 3666 2632 3958 
Q 2384 4250 1959 4250 
Q 1534 4250 1286 3958 
Q 1038 3666 1038 3163 
Q 1038 2656 1286 2365 
Q 1534 2075 1959 2075 
z
" id="DejaVuSans-39" transform="scale(0.015625)"/>
       </defs>
       <use xlink:href="#DejaVuSans-32"/>
       <use x="63.623047" xlink:href="#DejaVuSans-30"/>
       <use x="127.246094" xlink:href="#DejaVuSans-31"/>
       <use x="190.869141" xlink:href="#DejaVuSans-39"/>
      </g>
     </g>
    </g>
    <g id="xtick_6">
     <g id="line2d_6">
      <g>
       <use style="stroke:#000000;stroke-width:0.8;" x="292.509625" xlink:href="#mdcd87eb95e" y="378"/>
      </g>
     </g>
     <g id="text_6">
      <!-- 2020 -->
      <g transform="translate(285.462864 408.368774)rotate(-45)scale(0.1 -0.1)">
       <use xlink:href="#DejaVuSans-32"/>
       <use x="63.623047" xlink:href="#DejaVuSans-30"/>
       <use x="127.246094" xlink:href="#DejaVuSans-32"/>
       <use x="190.869141" xlink:href="#DejaVuSans-30"/>
      </g>
     </g>
    </g>
    <g id="xtick_7">
     <g id="line2d_7">
      <g>
       <use style="stroke:#000000;stroke-width:0.8;" x="328.609531" xlink:href="#mdcd87eb95e" y="378"/>
      </g>
     </g>
     <g id="text_7">
      <!-- 2021 -->
      <g transform="translate(321.56277 408.368774)rotate(-45)scale(0.1 -0.1)">
       <use xlink:href="#DejaVuSans-32"/>
       <use x="63.623047" xlink:href="#DejaVuSans-30"/>
       <use x="127.246094" xlink:href="#DejaVuSans-32"/>
       <use x="190.869141" xlink:href="#DejaVuSans-31"/>
      </g>
     </g>
    </g>
    <g id="xtick_8">
     <g id="line2d_8">
      <g>
       <use style="stroke:#000000;stroke-width:0.8;" x="364.610804" xlink:href="#mdcd87eb95e" y="378"/>
      </g>
     </g>
     <g id="text_8">
      <!-- 2022 -->
      <g transform="translate(357.564043 408.368774)rotate(-45)scale(0.1 -0.1)">
       <use xlink:href="#DejaVuSans-32"/>
       <use x="63.623047" xlink:href="#DejaVuSans-30"/>
       <use x="127.246094" xlink:href="#DejaVuSans-32"/>
       <use x="190.869141" xlink:href="#DejaVuSans-32"/>
      </g>
     </g>
    </g>
    <g id="xtick_9">
     <g id="line2d_9">
      <g>
       <use style="stroke:#000000;stroke-width:0.8;" x="400.612076" xlink:href="#mdcd87eb95e" y="378"/>
      </g>
     </g>
     <g id="text_9">
      <!-- 2023 -->
      <g transform="translate(393.565315 408.368774)rotate(-45)scale(0.1 -0.1)">
       <defs>
        <path d="M 2597 2516 
Q 3050 2419 3304 2112 
Q 3559 1806 3559 1356 
Q 3559 666 3084 287 
Q 2609 -91 1734 -91 
Q 1441 -91 1130 -33 
Q 819 25 488 141 
L 488 750 
Q 750 597 1062 519 
Q 1375 441 1716 441 
Q 2309 441 2620 675 
Q 2931 909 2931 1356 
Q 2931 1769 2642 2001 
Q 2353 2234 1838 2234 
L 1294 2234 
L 1294 2753 
L 1863 2753 
Q 2328 2753 2575 2939 
Q 2822 3125 2822 3475 
Q 2822 3834 2567 4026 
Q 2313 4219 1838 4219 
Q 1578 4219 1281 4162 
Q 984 4106 628 3988 
L 628 4550 
Q 988 4650 1302 4700 
Q 1616 4750 1894 4750 
Q 2613 4750 3031 4423 
Q 3450 4097 3450 3541 
Q 3450 3153 3228 2886 
Q 3006 2619 2597 2516 
z
" id="DejaVuSans-33" transform="scale(0.015625)"/>
       </defs>
       <use xlink:href="#DejaVuSans-32"/>
       <use x="63.623047" xlink:href="#DejaVuSans-30"/>
       <use x="127.246094" xlink:href="#DejaVuSans-32"/>
       <use x="190.869141" xlink:href="#DejaVuSans-33"/>
      </g>
     </g>
    </g>
    <g id="xtick_10">
     <g id="line2d_10">
      <g>
       <use style="stroke:#000000;stroke-width:0.8;" x="436.613349" xlink:href="#mdcd87eb95e" y="378"/>
      </g>
     </g>
     <g id="text_10">
      <!-- 2024 -->
      <g transform="translate(429.566588 408.368774)rotate(-45)scale(0.1 -0.1)">
       <defs>
        <path d="M 2419 4116 
L 825 1625 
L 2419 1625 
L 2419 4116 
z
M 2253 4666 
L 3047 4666 
L 3047 1625 
L 3713 1625 
L 3713 1100 
L 3047 1100 
L 3047 0 
L 2419 0 
L 2419 1100 
L 313 1100 
L 313 1709 
L 2253 4666 
z
" id="DejaVuSans-34" transform="scale(0.015625)"/>
       </defs>
       <use xlink:href="#DejaVuSans-32"/>
       <use x="63.623047" xlink:href="#DejaVuSans-30"/>
       <use x="127.246094" xlink:href="#DejaVuSans-32"/>
       <use x="190.869141" xlink:href="#DejaVuSans-34"/>
      </g>
     </g>
    </g>
    <g id="xtick_11">
     <g id="line2d_11">
      <g>
       <use style="stroke:#000000;stroke-width:0.8;" x="472.713255" xlink:href="#mdcd87eb95e" y="378"/>
      </g>
     </g>
     <g id="text_11">
      <!-- 2025 -->
      <g transform="translate(465.666494 408.368774)rotate(-45)scale(0.1 -0.1)">
       <use xlink:href="#DejaVuSans-32"/>
       <use x="63.623047" xlink:href="#DejaVuSans-30"/>
       <use x="127.246094" xlink:href="#DejaVuSans-32"/>
       <use x="190.869141" xlink:href="#DejaVuSans-35"/>
      </g>
     </g>
    </g>
    <g id="xtick_12">
     <g id="line2d_12">
      <g>
       <use style="stroke:#000000;stroke-width:0.8;" x="508.714528" xlink:href="#mdcd87eb95e" y="378"/>
      </g>
     </g>
     <g id="text_12">
      <!-- 2026 -->
      <g transform="translate(501.667767 408.368774)rotate(-45)scale(0.1 -0.1)">
       <use xlink:href="#DejaVuSans-32"/>
       <use x="63.623047" xlink:href="#DejaVuSans-30"/>
       <use x="127.246094" xlink:href="#DejaVuSans-32"/>
       <use x="190.869141" xlink:href="#DejaVuSans-36"/>
      </g>
     </g>
    </g>
    <g id="xtick_13">
     <g id="line2d_13">
      <g>
       <use style="stroke:#000000;stroke-width:0.8;" x="544.715801" xlink:href="#mdcd87eb95e" y="378"/>
      </g>
     </g>
     <g id="text_13">
      <!-- 2027 -->
      <g transform="translate(537.66904 408.368774)rotate(-45)scale(0.1 -0.1)">
       <use xlink:href="#DejaVuSans-32"/>
       <use x="63.623047" xlink:href="#DejaVuSans-30"/>
       <use x="127.246094" xlink:href="#DejaVuSans-32"/>
       <use x="190.869141" xlink:href="#DejaVuSans-37"/>
      </g>
     </g>
    </g>
    <g id="xtick_14">
     <g id="line2d_14">
      <g>
       <use style="stroke:#000000;stroke-width:0.8;" x="580.717074" xlink:href="#mdcd87eb95e" y="378"/>
      </g>
     </g>
     <g id="text_14">
      <!-- 2028 -->
      <g transform="translate(573.670312 408.368774)rotate(-45)scale(0.1 -0.1)">
       <use xlink:href="#DejaVuSans-32"/>
       <use x="63.623047" xlink:href="#DejaVuSans-30"/>
       <use x="127.246094" xlink:href="#DejaVuSans-32"/>
       <use x="190.869141" xlink:href="#DejaVuSans-38"/>
      </g>
     </g>
    </g>
    <g id="xtick_15">
     <g id="line2d_15">
      <g>
       <use style="stroke:#000000;stroke-width:0.8;" x="616.81698" xlink:href="#mdcd87eb95e" y="378"/>
      </g>
     </g>
     <g id="text_15">
      <!-- 2029 -->
      <g transform="translate(609.770219 408.368774)rotate(-45)scale(0.1 -0.1)">
       <use xlink:href="#DejaVuSans-32"/>
       <use x="63.623047" xlink:href="#DejaVuSans-30"/>
       <use x="127.246094" xlink:href="#DejaVuSans-32"/>
       <use x="190.869141" xlink:href="#DejaVuSans-39"/>
      </g>
     </g>
    </g>
    <g id="text_16">
     <!-- Date -->
     <g transform="translate(357.049219 421.437773)scale(0.1 -0.1)">
      <defs>
       <path d="M 1259 4147 
L 1259 519 
L 2022 519 
Q 2988 519 3436 956 
Q 3884 1394 3884 2338 
Q 3884 3275 3436 3711 
Q 2988 4147 2022 4147 
L 1259 4147 
z
M 628 4666 
L 1925 4666 
Q 3281 4666 3915 4102 
Q 4550 3538 4550 2338 
Q 4550 1131 3912 565 
Q 3275 0 1925 0 
L 628 0 
L 628 4666 
z
" id="DejaVuSans-44" transform="scale(0.015625)"/>
       <path d="M 2194 1759 
Q 1497 1759 1228 1600 
Q 959 1441 959 1056 
Q 959 750 1161 570 
Q 1363 391 1709 391 
Q 2188 391 2477 730 
Q 2766 1069 2766 1631 
L 2766 1759 
L 2194 1759 
z
M 3341 1997 
L 3341 0 
L 2766 0 
L 2766 531 
Q 2569 213 2275 61 
Q 1981 -91 1556 -91 
Q 1019 -91 701 211 
Q 384 513 384 1019 
Q 384 1609 779 1909 
Q 1175 2209 1959 2209 
L 2766 2209 
L 2766 2266 
Q 2766 2663 2505 2880 
Q 2244 3097 1772 3097 
Q 1472 3097 1187 3025 
Q 903 2953 641 2809 
L 641 3341 
Q 956 3463 1253 3523 
Q 1550 3584 1831 3584 
Q 2591 3584 2966 3190 
Q 3341 2797 3341 1997 
z
" id="DejaVuSans-61" transform="scale(0.015625)"/>
       <path d="M 1172 4494 
L 1172 3500 
L 2356 3500 
L 2356 3053 
L 1172 3053 
L 1172 1153 
Q 1172 725 1289 603 
Q 1406 481 1766 481 
L 2356 481 
L 2356 0 
L 1766 0 
Q 1100 0 847 248 
Q 594 497 594 1153 
L 594 3053 
L 172 3053 
L 172 3500 
L 594 3500 
L 594 4494 
L 1172 4494 
z
" id="DejaVuSans-74" transform="scale(0.015625)"/>
       <path d="M 3597 1894 
L 3597 1613 
L 953 1613 
Q 991 1019 1311 708 
Q 1631 397 2203 397 
Q 2534 397 2845 478 
Q 3156 559 3463 722 
L 3463 178 
Q 3153 47 2828 -22 
Q 2503 -91 2169 -91 
Q 1331 -91 842 396 
Q 353 884 353 1716 
Q 353 2575 817 3079 
Q 1281 3584 2069 3584 
Q 2775 3584 3186 3129 
Q 3597 2675 3597 1894 
z
M 3022 2063 
Q 3016 2534 2758 2815 
Q 2500 3097 2075 3097 
Q 1594 3097 1305 2825 
Q 1016 2553 972 2059 
L 3022 2063 
z
" id="DejaVuSans-65" transform="scale(0.015625)"/>
      </defs>
      <use xlink:href="#DejaVuSans-44"/>
      <use x="77.001953" xlink:href="#DejaVuSans-61"/>
      <use x="138.28125" xlink:href="#DejaVuSans-74"/>
      <use x="177.490234" xlink:href="#DejaVuSans-65"/>
     </g>
    </g>
   </g>
   <g id="matplotlib.axis_2">
    <g id="ytick_1">
     <g id="line2d_16">
      <path clip-path="url(#p06da9eecfd)" d="M 90 348.318272 
L 648 348.318272 
" style="fill:none;stroke:#b0b0b0;stroke-linecap:square;stroke-width:0.8;"/>
     </g>
     <g id="line2d_17">
      <defs>
       <path d="M 0 0 
L -3.5 0 
" id="mc39a4363cd" style="stroke:#000000;stroke-width:0.8;"/>
      </defs>
      <g>
       <use style="stroke:#000000;stroke-width:0.8;" x="90" xlink:href="#mc39a4363cd" y="348.318272"/>
      </g>
     </g>
     <g id="text_17">
      <!-- −200 -->
      <g transform="translate(55.532812 352.117491)scale(0.1 -0.1)">
       <defs>
        <path d="M 678 2272 
L 4684 2272 
L 4684 1741 
L 678 1741 
L 678 2272 
z
" id="DejaVuSans-2212" transform="scale(0.015625)"/>
       </defs>
       <use xlink:href="#DejaVuSans-2212"/>
       <use x="83.789062" xlink:href="#DejaVuSans-32"/>
       <use x="147.412109" xlink:href="#DejaVuSans-30"/>
       <use x="211.035156" xlink:href="#DejaVuSans-30"/>
      </g>
     </g>
    </g>
    <g id="ytick_2">
     <g id="line2d_18">
      <path clip-path="url(#p06da9eecfd)" d="M 90 289.602577 
L 648 289.602577 
" style="fill:none;stroke:#b0b0b0;stroke-linecap:square;stroke-width:0.8;"/>
     </g>
     <g id="line2d_19">
      <g>
       <use style="stroke:#000000;stroke-width:0.8;" x="90" xlink:href="#mc39a4363cd" y="289.602577"/>
      </g>
     </g>
     <g id="text_18">
      <!-- 0 -->
      <g transform="translate(76.6375 293.401795)scale(0.1 -0.1)">
       <use xlink:href="#DejaVuSans-30"/>
      </g>
     </g>
    </g>
    <g id="ytick_3">
     <g id="line2d_20">
      <path clip-path="url(#p06da9eecfd)" d="M 90 230.886881 
L 648 230.886881 
" style="fill:none;stroke:#b0b0b0;stroke-linecap:square;stroke-width:0.8;"/>
     </g>
     <g id="line2d_21">
      <g>
       <use style="stroke:#000000;stroke-width:0.8;" x="90" xlink:href="#mc39a4363cd" y="230.886881"/>
      </g>
     </g>
     <g id="text_19">
      <!-- 200 -->
      <g transform="translate(63.9125 234.6861)scale(0.1 -0.1)">
       <use xlink:href="#DejaVuSans-32"/>
       <use x="63.623047" xlink:href="#DejaVuSans-30"/>
       <use x="127.246094" xlink:href="#DejaVuSans-30"/>
      </g>
     </g>
    </g>
    <g id="ytick_4">
     <g id="line2d_22">
      <path clip-path="url(#p06da9eecfd)" d="M 90 172.171185 
L 648 172.171185 
" style="fill:none;stroke:#b0b0b0;stroke-linecap:square;stroke-width:0.8;"/>
     </g>
     <g id="line2d_23">
      <g>
       <use style="stroke:#000000;stroke-width:0.8;" x="90" xlink:href="#mc39a4363cd" y="172.171185"/>
      </g>
     </g>
     <g id="text_20">
      <!-- 400 -->
      <g transform="translate(63.9125 175.970404)scale(0.1 -0.1)">
       <use xlink:href="#DejaVuSans-34"/>
       <use x="63.623047" xlink:href="#DejaVuSans-30"/>
       <use x="127.246094" xlink:href="#DejaVuSans-30"/>
      </g>
     </g>
    </g>
    <g id="ytick_5">
     <g id="line2d_24">
      <path clip-path="url(#p06da9eecfd)" d="M 90 113.45549 
L 648 113.45549 
" style="fill:none;stroke:#b0b0b0;stroke-linecap:square;stroke-width:0.8;"/>
     </g>
     <g id="line2d_25">
      <g>
       <use style="stroke:#000000;stroke-width:0.8;" x="90" xlink:href="#mc39a4363cd" y="113.45549"/>
      </g>
     </g>
     <g id="text_21">
      <!-- 600 -->
      <g transform="translate(63.9125 117.254709)scale(0.1 -0.1)">
       <use xlink:href="#DejaVuSans-36"/>
       <use x="63.623047" xlink:href="#DejaVuSans-30"/>
       <use x="127.246094" xlink:href="#DejaVuSans-30"/>
      </g>
     </g>
    </g>
    <g id="ytick_6">
     <g id="line2d_26">
      <path clip-path="url(#p06da9eecfd)" d="M 90 54.739794 
L 648 54.739794 
" style="fill:none;stroke:#b0b0b0;stroke-linecap:square;stroke-width:0.8;"/>
     </g>
     <g id="line2d_27">
      <g>
       <use style="stroke:#000000;stroke-width:0.8;" x="90" xlink:href="#mc39a4363cd" y="54.739794"/>
      </g>
     </g>
     <g id="text_22">
      <!-- 800 -->
      <g transform="translate(63.9125 58.539013)scale(0.1 -0.1)">
       <use xlink:href="#DejaVuSans-38"/>
       <use x="63.623047" xlink:href="#DejaVuSans-30"/>
       <use x="127.246094" xlink:href="#DejaVuSans-30"/>
      </g>
     </g>
    </g>
    <g id="text_23">
     <!-- CPI (% 2002 Prices) -->
     <g transform="translate(49.453125 263.848125)rotate(-90)scale(0.1 -0.1)">
      <defs>
       <path d="M 4122 4306 
L 4122 3641 
Q 3803 3938 3442 4084 
Q 3081 4231 2675 4231 
Q 1875 4231 1450 3742 
Q 1025 3253 1025 2328 
Q 1025 1406 1450 917 
Q 1875 428 2675 428 
Q 3081 428 3442 575 
Q 3803 722 4122 1019 
L 4122 359 
Q 3791 134 3420 21 
Q 3050 -91 2638 -91 
Q 1578 -91 968 557 
Q 359 1206 359 2328 
Q 359 3453 968 4101 
Q 1578 4750 2638 4750 
Q 3056 4750 3426 4639 
Q 3797 4528 4122 4306 
z
" id="DejaVuSans-43" transform="scale(0.015625)"/>
       <path d="M 1259 4147 
L 1259 2394 
L 2053 2394 
Q 2494 2394 2734 2622 
Q 2975 2850 2975 3272 
Q 2975 3691 2734 3919 
Q 2494 4147 2053 4147 
L 1259 4147 
z
M 628 4666 
L 2053 4666 
Q 2838 4666 3239 4311 
Q 3641 3956 3641 3272 
Q 3641 2581 3239 2228 
Q 2838 1875 2053 1875 
L 1259 1875 
L 1259 0 
L 628 0 
L 628 4666 
z
" id="DejaVuSans-50" transform="scale(0.015625)"/>
       <path d="M 628 4666 
L 1259 4666 
L 1259 0 
L 628 0 
L 628 4666 
z
" id="DejaVuSans-49" transform="scale(0.015625)"/>
       <path id="DejaVuSans-20" transform="scale(0.015625)"/>
       <path d="M 1984 4856 
Q 1566 4138 1362 3434 
Q 1159 2731 1159 2009 
Q 1159 1288 1364 580 
Q 1569 -128 1984 -844 
L 1484 -844 
Q 1016 -109 783 600 
Q 550 1309 550 2009 
Q 550 2706 781 3412 
Q 1013 4119 1484 4856 
L 1984 4856 
z
" id="DejaVuSans-28" transform="scale(0.015625)"/>
       <path d="M 4653 2053 
Q 4381 2053 4226 1822 
Q 4072 1591 4072 1178 
Q 4072 772 4226 539 
Q 4381 306 4653 306 
Q 4919 306 5073 539 
Q 5228 772 5228 1178 
Q 5228 1588 5073 1820 
Q 4919 2053 4653 2053 
z
M 4653 2450 
Q 5147 2450 5437 2106 
Q 5728 1763 5728 1178 
Q 5728 594 5436 251 
Q 5144 -91 4653 -91 
Q 4153 -91 3862 251 
Q 3572 594 3572 1178 
Q 3572 1766 3864 2108 
Q 4156 2450 4653 2450 
z
M 1428 4353 
Q 1159 4353 1004 4120 
Q 850 3888 850 3481 
Q 850 3069 1003 2837 
Q 1156 2606 1428 2606 
Q 1700 2606 1854 2837 
Q 2009 3069 2009 3481 
Q 2009 3884 1853 4118 
Q 1697 4353 1428 4353 
z
M 4250 4750 
L 4750 4750 
L 1831 -91 
L 1331 -91 
L 4250 4750 
z
M 1428 4750 
Q 1922 4750 2215 4408 
Q 2509 4066 2509 3481 
Q 2509 2891 2217 2550 
Q 1925 2209 1428 2209 
Q 931 2209 642 2551 
Q 353 2894 353 3481 
Q 353 4063 643 4406 
Q 934 4750 1428 4750 
z
" id="DejaVuSans-25" transform="scale(0.015625)"/>
       <path d="M 2631 2963 
Q 2534 3019 2420 3045 
Q 2306 3072 2169 3072 
Q 1681 3072 1420 2755 
Q 1159 2438 1159 1844 
L 1159 0 
L 581 0 
L 581 3500 
L 1159 3500 
L 1159 2956 
Q 1341 3275 1631 3429 
Q 1922 3584 2338 3584 
Q 2397 3584 2469 3576 
Q 2541 3569 2628 3553 
L 2631 2963 
z
" id="DejaVuSans-72" transform="scale(0.015625)"/>
       <path d="M 603 3500 
L 1178 3500 
L 1178 0 
L 603 0 
L 603 3500 
z
M 603 4863 
L 1178 4863 
L 1178 4134 
L 603 4134 
L 603 4863 
z
" id="DejaVuSans-69" transform="scale(0.015625)"/>
       <path d="M 3122 3366 
L 3122 2828 
Q 2878 2963 2633 3030 
Q 2388 3097 2138 3097 
Q 1578 3097 1268 2742 
Q 959 2388 959 1747 
Q 959 1106 1268 751 
Q 1578 397 2138 397 
Q 2388 397 2633 464 
Q 2878 531 3122 666 
L 3122 134 
Q 2881 22 2623 -34 
Q 2366 -91 2075 -91 
Q 1284 -91 818 406 
Q 353 903 353 1747 
Q 353 2603 823 3093 
Q 1294 3584 2113 3584 
Q 2378 3584 2631 3529 
Q 2884 3475 3122 3366 
z
" id="DejaVuSans-63" transform="scale(0.015625)"/>
       <path d="M 2834 3397 
L 2834 2853 
Q 2591 2978 2328 3040 
Q 2066 3103 1784 3103 
Q 1356 3103 1142 2972 
Q 928 2841 928 2578 
Q 928 2378 1081 2264 
Q 1234 2150 1697 2047 
L 1894 2003 
Q 2506 1872 2764 1633 
Q 3022 1394 3022 966 
Q 3022 478 2636 193 
Q 2250 -91 1575 -91 
Q 1294 -91 989 -36 
Q 684 19 347 128 
L 347 722 
Q 666 556 975 473 
Q 1284 391 1588 391 
Q 1994 391 2212 530 
Q 2431 669 2431 922 
Q 2431 1156 2273 1281 
Q 2116 1406 1581 1522 
L 1381 1569 
Q 847 1681 609 1914 
Q 372 2147 372 2553 
Q 372 3047 722 3315 
Q 1072 3584 1716 3584 
Q 2034 3584 2315 3537 
Q 2597 3491 2834 3397 
z
" id="DejaVuSans-73" transform="scale(0.015625)"/>
       <path d="M 513 4856 
L 1013 4856 
Q 1481 4119 1714 3412 
Q 1947 2706 1947 2009 
Q 1947 1309 1714 600 
Q 1481 -109 1013 -844 
L 513 -844 
Q 928 -128 1133 580 
Q 1338 1288 1338 2009 
Q 1338 2731 1133 3434 
Q 928 4138 513 4856 
z
" id="DejaVuSans-29" transform="scale(0.015625)"/>
      </defs>
      <use xlink:href="#DejaVuSans-43"/>
      <use x="69.824219" xlink:href="#DejaVuSans-50"/>
      <use x="130.126953" xlink:href="#DejaVuSans-49"/>
      <use x="159.619141" xlink:href="#DejaVuSans-20"/>
      <use x="191.40625" xlink:href="#DejaVuSans-28"/>
      <use x="230.419922" xlink:href="#DejaVuSans-25"/>
      <use x="325.439453" xlink:href="#DejaVuSans-20"/>
      <use x="357.226562" xlink:href="#DejaVuSans-32"/>
      <use x="420.849609" xlink:href="#DejaVuSans-30"/>
      <use x="484.472656" xlink:href="#DejaVuSans-30"/>
      <use x="548.095703" xlink:href="#DejaVuSans-32"/>
      <use x="611.71875" xlink:href="#DejaVuSans-20"/>
      <use x="643.505859" xlink:href="#DejaVuSans-50"/>
      <use x="702.058594" xlink:href="#DejaVuSans-72"/>
      <use x="743.171875" xlink:href="#DejaVuSans-69"/>
      <use x="770.955078" xlink:href="#DejaVuSans-63"/>
      <use x="825.935547" xlink:href="#DejaVuSans-65"/>
      <use x="887.458984" xlink:href="#DejaVuSans-73"/>
      <use x="939.558594" xlink:href="#DejaVuSans-29"/>
     </g>
    </g>
   </g>
   <g id="line2d_28">
    <path clip-path="url(#p06da9eecfd)" d="M 115.363636 264.468471 
L 118.125378 263.243423 
L 121.18302 262.422892 
L 124.142029 264.922413 
L 127.199671 265.557552 
L 130.15868 265.989081 
L 133.216322 269.345662 
L 136.273965 269.402483 
L 139.232973 268.308351 
L 142.290616 267.849359 
L 145.249624 264.619048 
L 148.307267 268.995262 
L 151.364909 264.184363 
L 154.225284 261.601264 
L 157.282926 262.280838 
L 160.241935 255.733406 
L 163.299578 259.184058 
L 166.258586 257.103439 
L 169.316229 261.31487 
L 172.373871 259.875388 
L 175.33288 257.945031 
L 178.390522 256.81649 
L 181.349531 255.948697 
L 184.407173 260.680361 
L 187.464815 253.056791 
L 190.226557 250.598579 
L 193.284199 251.068034 
L 196.243208 251.564592 
L 199.30085 251.191147 
L 202.259859 256.408637 
L 205.317501 258.293853 
L 208.375144 256.522911 
L 211.334152 253.149916 
L 214.391795 243.217177 
L 217.350803 228.195745 
L 220.408446 236.332288 
L 223.466088 221.577602 
L 226.22783 221.639159 
L 229.285472 220.280175 
L 232.244481 231.885048 
L 235.302123 239.533241 
L 238.261132 234.047743 
L 241.318774 233.462795 
L 244.376416 233.993131 
L 247.335425 237.619614 
L 250.393067 225.062663 
L 253.352076 235.72114 
L 256.409718 241.664052 
L 259.467361 229.229583 
L 262.229102 229.838387 
L 265.286745 227.155593 
L 268.245753 230.074647 
L 271.303396 227.799572 
L 274.262404 239.567018 
L 277.320047 228.954945 
L 280.377689 239.85523 
L 283.336698 230.319296 
L 286.39434 219.030099 
L 289.353349 219.711327 
L 292.410991 232.383184 
L 295.468633 221.104089 
L 298.329009 219.234853 
L 301.386651 232.496828 
L 304.34566 192.026877 
L 307.403302 158.1173 
L 310.362311 155.809078 
L 313.419953 188.478996 
L 316.477595 189.965829 
L 319.436604 191.283144 
L 322.494246 209.73976 
L 325.453255 202.272765 
L 328.510897 197.750394 
L 331.56854 199.511865 
L 334.330281 202.598498 
L 337.387924 195.240772 
L 340.346932 200.755943 
L 343.404575 201.822612 
L 346.363583 204.670323 
L 349.421226 207.97829 
L 352.478868 214.92 
L 355.53651 242.042863 
L 358.594153 177.749177 
L 361.553161 180.097804 
L 364.610804 175.694127 
L 367.668446 135.767454 
L 370.430188 76.75818 
L 373.48783 176.574863 
L 376.446839 257.015366 
L 379.504481 179.510647 
L 382.46349 257.896101 
L 385.521132 216.501536 
L 388.578774 163.65741 
L 391.537783 264.061249 
L 394.595425 95.253624 
L 397.554434 193.895993 
L 400.612076 194.189571 
L 403.669719 174.226235 
L 406.43146 206.519867 
L 409.489103 243.510756 
L 412.448111 174.226235 
" style="fill:none;stroke:#000000;stroke-linecap:square;stroke-width:1.5;"/>
   </g>
   <g id="line2d_29">
    <path clip-path="url(#p06da9eecfd)" d="M 355.53651 214.92 
L 358.594153 214.92 
L 361.553161 214.92 
L 364.610804 214.92 
L 367.668446 214.92 
L 370.430188 214.92 
L 373.48783 214.92 
L 376.446839 214.92 
L 379.504481 214.92 
L 382.46349 214.92 
L 385.521132 214.92 
L 388.578774 214.92 
L 391.537783 214.92 
L 394.595425 214.92 
L 397.554434 214.92 
L 400.612076 214.92 
L 403.669719 214.92 
L 406.43146 214.92 
L 409.489103 214.92 
L 412.448111 214.92 
L 415.505754 214.92 
L 418.464762 214.92 
L 421.522405 214.92 
L 424.580047 214.92 
L 427.539056 214.92 
L 430.596698 214.92 
L 433.555707 214.92 
L 436.613349 214.92 
L 439.670991 214.92 
L 442.531367 214.92 
L 445.589009 214.92 
L 448.548018 214.92 
L 451.60566 214.92 
L 454.564669 214.92 
L 457.622311 214.92 
L 460.679953 214.92 
L 463.638962 214.92 
L 466.696604 214.92 
L 469.655613 214.92 
L 472.713255 214.92 
L 475.770898 214.92 
L 478.532639 214.92 
L 481.590282 214.92 
L 484.54929 214.92 
L 487.606933 214.92 
L 490.565941 214.92 
L 493.623584 214.92 
L 496.681226 214.92 
L 499.640235 214.92 
L 502.697877 214.92 
L 505.656886 214.92 
L 508.714528 214.92 
L 511.77217 214.92 
L 514.533912 214.92 
L 517.591554 214.92 
L 520.550563 214.92 
L 523.608205 214.92 
L 526.567214 214.92 
L 529.624856 214.92 
L 532.682499 214.92 
L 535.641507 214.92 
L 538.69915 214.92 
L 541.658158 214.92 
L 544.715801 214.92 
L 547.773443 214.92 
L 550.535185 214.92 
L 553.592827 214.92 
L 556.551836 214.92 
L 559.609478 214.92 
L 562.568487 214.92 
L 565.626129 214.92 
L 568.683771 214.92 
L 571.64278 214.92 
L 574.700422 214.92 
L 577.659431 214.92 
L 580.717074 214.92 
L 583.774716 214.92 
L 586.635091 214.92 
L 589.692733 214.92 
L 592.651742 214.92 
L 595.709384 214.92 
L 598.668393 214.92 
L 601.726035 214.92 
L 604.783678 214.92 
L 607.742686 214.92 
L 610.800329 214.92 
L 613.759337 214.92 
L 616.81698 214.92 
L 619.874622 214.92 
L 622.636364 214.92 
" style="fill:none;stroke:#800080;stroke-linecap:square;stroke-width:1.5;"/>
   </g>
   <g id="line2d_30">
    <path clip-path="url(#p06da9eecfd)" d="M 352.577502 378 
L 352.577502 51.84 
" style="fill:none;stroke:#000000;stroke-dasharray:5.55,2.4;stroke-dashoffset:0;stroke-opacity:0.5;stroke-width:1.5;"/>
   </g>
   <g id="patch_3">
    <path d="M 90 378 
L 90 51.84 
" style="fill:none;stroke:#000000;stroke-linecap:square;stroke-linejoin:miter;stroke-width:0.8;"/>
   </g>
   <g id="patch_4">
    <path d="M 648 378 
L 648 51.84 
" style="fill:none;stroke:#000000;stroke-linecap:square;stroke-linejoin:miter;stroke-width:0.8;"/>
   </g>
   <g id="patch_5">
    <path d="M 90 378 
L 648 378 
" style="fill:none;stroke:#000000;stroke-linecap:square;stroke-linejoin:miter;stroke-width:0.8;"/>
   </g>
   <g id="patch_6">
    <path d="M 90 51.84 
L 648 51.84 
" style="fill:none;stroke:#000000;stroke-linecap:square;stroke-linejoin:miter;stroke-width:0.8;"/>
   </g>
   <g id="text_24">
    <!-- IS_MENTAL_HEALTH -->
    <g transform="translate(310.214063 32.068875)scale(0.12 -0.12)">
     <defs>
      <path d="M 3425 4513 
L 3425 3897 
Q 3066 4069 2747 4153 
Q 2428 4238 2131 4238 
Q 1616 4238 1336 4038 
Q 1056 3838 1056 3469 
Q 1056 3159 1242 3001 
Q 1428 2844 1947 2747 
L 2328 2669 
Q 3034 2534 3370 2195 
Q 3706 1856 3706 1288 
Q 3706 609 3251 259 
Q 2797 -91 1919 -91 
Q 1588 -91 1214 -16 
Q 841 59 441 206 
L 441 856 
Q 825 641 1194 531 
Q 1563 422 1919 422 
Q 2459 422 2753 634 
Q 3047 847 3047 1241 
Q 3047 1584 2836 1778 
Q 2625 1972 2144 2069 
L 1759 2144 
Q 1053 2284 737 2584 
Q 422 2884 422 3419 
Q 422 4038 858 4394 
Q 1294 4750 2059 4750 
Q 2388 4750 2728 4690 
Q 3069 4631 3425 4513 
z
" id="DejaVuSans-53" transform="scale(0.015625)"/>
      <path d="M 3263 -1063 
L 3263 -1509 
L -63 -1509 
L -63 -1063 
L 3263 -1063 
z
" id="DejaVuSans-5f" transform="scale(0.015625)"/>
      <path d="M 628 4666 
L 1569 4666 
L 2759 1491 
L 3956 4666 
L 4897 4666 
L 4897 0 
L 4281 0 
L 4281 4097 
L 3078 897 
L 2444 897 
L 1241 4097 
L 1241 0 
L 628 0 
L 628 4666 
z
" id="DejaVuSans-4d" transform="scale(0.015625)"/>
      <path d="M 628 4666 
L 3578 4666 
L 3578 4134 
L 1259 4134 
L 1259 2753 
L 3481 2753 
L 3481 2222 
L 1259 2222 
L 1259 531 
L 3634 531 
L 3634 0 
L 628 0 
L 628 4666 
z
" id="DejaVuSans-45" transform="scale(0.015625)"/>
      <path d="M 628 4666 
L 1478 4666 
L 3547 763 
L 3547 4666 
L 4159 4666 
L 4159 0 
L 3309 0 
L 1241 3903 
L 1241 0 
L 628 0 
L 628 4666 
z
" id="DejaVuSans-4e" transform="scale(0.015625)"/>
      <path d="M -19 4666 
L 3928 4666 
L 3928 4134 
L 2272 4134 
L 2272 0 
L 1638 0 
L 1638 4134 
L -19 4134 
L -19 4666 
z
" id="DejaVuSans-54" transform="scale(0.015625)"/>
      <path d="M 2188 4044 
L 1331 1722 
L 3047 1722 
L 2188 4044 
z
M 1831 4666 
L 2547 4666 
L 4325 0 
L 3669 0 
L 3244 1197 
L 1141 1197 
L 716 0 
L 50 0 
L 1831 4666 
z
" id="DejaVuSans-41" transform="scale(0.015625)"/>
      <path d="M 628 4666 
L 1259 4666 
L 1259 531 
L 3531 531 
L 3531 0 
L 628 0 
L 628 4666 
z
" id="DejaVuSans-4c" transform="scale(0.015625)"/>
      <path d="M 628 4666 
L 1259 4666 
L 1259 2753 
L 3553 2753 
L 3553 4666 
L 4184 4666 
L 4184 0 
L 3553 0 
L 3553 2222 
L 1259 2222 
L 1259 0 
L 628 0 
L 628 4666 
z
" id="DejaVuSans-48" transform="scale(0.015625)"/>
     </defs>
     <use xlink:href="#DejaVuSans-49"/>
     <use x="29.492188" xlink:href="#DejaVuSans-53"/>
     <use x="92.96875" xlink:href="#DejaVuSans-5f"/>
     <use x="142.96875" xlink:href="#DejaVuSans-4d"/>
     <use x="229.248047" xlink:href="#DejaVuSans-45"/>
     <use x="292.431641" xlink:href="#DejaVuSans-4e"/>
     <use x="367.236328" xlink:href="#DejaVuSans-54"/>
     <use x="420.570312" xlink:href="#DejaVuSans-41"/>
     <use x="488.978516" xlink:href="#DejaVuSans-4c"/>
     <use x="544.691406" xlink:href="#DejaVuSans-5f"/>
     <use x="594.691406" xlink:href="#DejaVuSans-48"/>
     <use x="669.886719" xlink:href="#DejaVuSans-45"/>
     <use x="733.070312" xlink:href="#DejaVuSans-41"/>
     <use x="801.478516" xlink:href="#DejaVuSans-4c"/>
     <use x="843.441406" xlink:href="#DejaVuSans-54"/>
     <use x="904.525391" xlink:href="#DejaVuSans-48"/>
    </g>
    <!-- Retrospective Forecast - 2021-9-1 -->
    <g transform="translate(267.364688 45.84)scale(0.12 -0.12)">
     <defs>
      <path d="M 2841 2188 
Q 3044 2119 3236 1894 
Q 3428 1669 3622 1275 
L 4263 0 
L 3584 0 
L 2988 1197 
Q 2756 1666 2539 1819 
Q 2322 1972 1947 1972 
L 1259 1972 
L 1259 0 
L 628 0 
L 628 4666 
L 2053 4666 
Q 2853 4666 3247 4331 
Q 3641 3997 3641 3322 
Q 3641 2881 3436 2590 
Q 3231 2300 2841 2188 
z
M 1259 4147 
L 1259 2491 
L 2053 2491 
Q 2509 2491 2742 2702 
Q 2975 2913 2975 3322 
Q 2975 3731 2742 3939 
Q 2509 4147 2053 4147 
L 1259 4147 
z
" id="DejaVuSans-52" transform="scale(0.015625)"/>
      <path d="M 1959 3097 
Q 1497 3097 1228 2736 
Q 959 2375 959 1747 
Q 959 1119 1226 758 
Q 1494 397 1959 397 
Q 2419 397 2687 759 
Q 2956 1122 2956 1747 
Q 2956 2369 2687 2733 
Q 2419 3097 1959 3097 
z
M 1959 3584 
Q 2709 3584 3137 3096 
Q 3566 2609 3566 1747 
Q 3566 888 3137 398 
Q 2709 -91 1959 -91 
Q 1206 -91 779 398 
Q 353 888 353 1747 
Q 353 2609 779 3096 
Q 1206 3584 1959 3584 
z
" id="DejaVuSans-6f" transform="scale(0.015625)"/>
      <path d="M 1159 525 
L 1159 -1331 
L 581 -1331 
L 581 3500 
L 1159 3500 
L 1159 2969 
Q 1341 3281 1617 3432 
Q 1894 3584 2278 3584 
Q 2916 3584 3314 3078 
Q 3713 2572 3713 1747 
Q 3713 922 3314 415 
Q 2916 -91 2278 -91 
Q 1894 -91 1617 61 
Q 1341 213 1159 525 
z
M 3116 1747 
Q 3116 2381 2855 2742 
Q 2594 3103 2138 3103 
Q 1681 3103 1420 2742 
Q 1159 2381 1159 1747 
Q 1159 1113 1420 752 
Q 1681 391 2138 391 
Q 2594 391 2855 752 
Q 3116 1113 3116 1747 
z
" id="DejaVuSans-70" transform="scale(0.015625)"/>
      <path d="M 191 3500 
L 800 3500 
L 1894 563 
L 2988 3500 
L 3597 3500 
L 2284 0 
L 1503 0 
L 191 3500 
z
" id="DejaVuSans-76" transform="scale(0.015625)"/>
      <path d="M 628 4666 
L 3309 4666 
L 3309 4134 
L 1259 4134 
L 1259 2759 
L 3109 2759 
L 3109 2228 
L 1259 2228 
L 1259 0 
L 628 0 
L 628 4666 
z
" id="DejaVuSans-46" transform="scale(0.015625)"/>
      <path d="M 313 2009 
L 1997 2009 
L 1997 1497 
L 313 1497 
L 313 2009 
z
" id="DejaVuSans-2d" transform="scale(0.015625)"/>
     </defs>
     <use xlink:href="#DejaVuSans-52"/>
     <use x="64.982422" xlink:href="#DejaVuSans-65"/>
     <use x="126.505859" xlink:href="#DejaVuSans-74"/>
     <use x="165.714844" xlink:href="#DejaVuSans-72"/>
     <use x="204.578125" xlink:href="#DejaVuSans-6f"/>
     <use x="265.759766" xlink:href="#DejaVuSans-73"/>
     <use x="317.859375" xlink:href="#DejaVuSans-70"/>
     <use x="381.335938" xlink:href="#DejaVuSans-65"/>
     <use x="442.859375" xlink:href="#DejaVuSans-63"/>
     <use x="497.839844" xlink:href="#DejaVuSans-74"/>
     <use x="537.048828" xlink:href="#DejaVuSans-69"/>
     <use x="564.832031" xlink:href="#DejaVuSans-76"/>
     <use x="624.011719" xlink:href="#DejaVuSans-65"/>
     <use x="685.535156" xlink:href="#DejaVuSans-20"/>
     <use x="717.322266" xlink:href="#DejaVuSans-46"/>
     <use x="771.216797" xlink:href="#DejaVuSans-6f"/>
     <use x="832.398438" xlink:href="#DejaVuSans-72"/>
     <use x="871.261719" xlink:href="#DejaVuSans-65"/>
     <use x="932.785156" xlink:href="#DejaVuSans-63"/>
     <use x="987.765625" xlink:href="#DejaVuSans-61"/>
     <use x="1049.044922" xlink:href="#DejaVuSans-73"/>
     <use x="1101.144531" xlink:href="#DejaVuSans-74"/>
     <use x="1140.353516" xlink:href="#DejaVuSans-20"/>
     <use x="1172.140625" xlink:href="#DejaVuSans-2d"/>
     <use x="1208.224609" xlink:href="#DejaVuSans-20"/>
     <use x="1240.011719" xlink:href="#DejaVuSans-32"/>
     <use x="1303.634766" xlink:href="#DejaVuSans-30"/>
     <use x="1367.257812" xlink:href="#DejaVuSans-32"/>
     <use x="1430.880859" xlink:href="#DejaVuSans-31"/>
     <use x="1494.503906" xlink:href="#DejaVuSans-2d"/>
     <use x="1530.587891" xlink:href="#DejaVuSans-39"/>
     <use x="1594.210938" xlink:href="#DejaVuSans-2d"/>
     <use x="1630.294922" xlink:href="#DejaVuSans-31"/>
    </g>
   </g>
   <g id="legend_1">
    <g id="patch_7">
     <path d="M 527.145313 118.5525 
L 641 118.5525 
Q 643 118.5525 643 116.5525 
L 643 58.84 
Q 643 56.84 641 56.84 
L 527.145313 56.84 
Q 525.145313 56.84 525.145313 58.84 
L 525.145313 116.5525 
Q 525.145313 118.5525 527.145313 118.5525 
z
" style="fill:#ffffff;opacity:0.8;stroke:#cccccc;stroke-linejoin:miter;"/>
    </g>
    <g id="line2d_31">
     <path d="M 529.145313 64.938438 
L 549.145313 64.938438 
" style="fill:none;stroke:#000000;stroke-linecap:square;stroke-width:1.5;"/>
    </g>
    <g id="line2d_32"/>
    <g id="text_25">
     <!-- Historical CPI -->
     <g transform="translate(557.145313 68.438438)scale(0.1 -0.1)">
      <defs>
       <path d="M 603 4863 
L 1178 4863 
L 1178 0 
L 603 0 
L 603 4863 
z
" id="DejaVuSans-6c" transform="scale(0.015625)"/>
      </defs>
      <use xlink:href="#DejaVuSans-48"/>
      <use x="75.195312" xlink:href="#DejaVuSans-69"/>
      <use x="102.978516" xlink:href="#DejaVuSans-73"/>
      <use x="155.078125" xlink:href="#DejaVuSans-74"/>
      <use x="194.287109" xlink:href="#DejaVuSans-6f"/>
      <use x="255.46875" xlink:href="#DejaVuSans-72"/>
      <use x="296.582031" xlink:href="#DejaVuSans-69"/>
      <use x="324.365234" xlink:href="#DejaVuSans-63"/>
      <use x="379.345703" xlink:href="#DejaVuSans-61"/>
      <use x="440.625" xlink:href="#DejaVuSans-6c"/>
      <use x="468.408203" xlink:href="#DejaVuSans-20"/>
      <use x="500.195312" xlink:href="#DejaVuSans-43"/>
      <use x="570.019531" xlink:href="#DejaVuSans-50"/>
      <use x="630.322266" xlink:href="#DejaVuSans-49"/>
     </g>
    </g>
    <g id="line2d_33">
     <path d="M 529.145313 79.616563 
L 549.145313 79.616563 
" style="fill:none;stroke:#800080;stroke-linecap:square;stroke-width:1.5;"/>
    </g>
    <g id="line2d_34"/>
    <g id="text_26">
     <!-- Median Forecast -->
     <g transform="translate(557.145313 83.116563)scale(0.1 -0.1)">
      <defs>
       <path d="M 2906 2969 
L 2906 4863 
L 3481 4863 
L 3481 0 
L 2906 0 
L 2906 525 
Q 2725 213 2448 61 
Q 2172 -91 1784 -91 
Q 1150 -91 751 415 
Q 353 922 353 1747 
Q 353 2572 751 3078 
Q 1150 3584 1784 3584 
Q 2172 3584 2448 3432 
Q 2725 3281 2906 2969 
z
M 947 1747 
Q 947 1113 1208 752 
Q 1469 391 1925 391 
Q 2381 391 2643 752 
Q 2906 1113 2906 1747 
Q 2906 2381 2643 2742 
Q 2381 3103 1925 3103 
Q 1469 3103 1208 2742 
Q 947 2381 947 1747 
z
" id="DejaVuSans-64" transform="scale(0.015625)"/>
       <path d="M 3513 2113 
L 3513 0 
L 2938 0 
L 2938 2094 
Q 2938 2591 2744 2837 
Q 2550 3084 2163 3084 
Q 1697 3084 1428 2787 
Q 1159 2491 1159 1978 
L 1159 0 
L 581 0 
L 581 3500 
L 1159 3500 
L 1159 2956 
Q 1366 3272 1645 3428 
Q 1925 3584 2291 3584 
Q 2894 3584 3203 3211 
Q 3513 2838 3513 2113 
z
" id="DejaVuSans-6e" transform="scale(0.015625)"/>
      </defs>
      <use xlink:href="#DejaVuSans-4d"/>
      <use x="86.279297" xlink:href="#DejaVuSans-65"/>
      <use x="147.802734" xlink:href="#DejaVuSans-64"/>
      <use x="211.279297" xlink:href="#DejaVuSans-69"/>
      <use x="239.0625" xlink:href="#DejaVuSans-61"/>
      <use x="300.341797" xlink:href="#DejaVuSans-6e"/>
      <use x="363.720703" xlink:href="#DejaVuSans-20"/>
      <use x="395.507812" xlink:href="#DejaVuSans-46"/>
      <use x="449.402344" xlink:href="#DejaVuSans-6f"/>
      <use x="510.583984" xlink:href="#DejaVuSans-72"/>
      <use x="549.447266" xlink:href="#DejaVuSans-65"/>
      <use x="610.970703" xlink:href="#DejaVuSans-63"/>
      <use x="665.951172" xlink:href="#DejaVuSans-61"/>
      <use x="727.230469" xlink:href="#DejaVuSans-73"/>
      <use x="779.330078" xlink:href="#DejaVuSans-74"/>
     </g>
    </g>
    <g id="line2d_35">
     <path d="M 529.145313 94.294688 
L 549.145313 94.294688 
" style="fill:none;stroke:#000000;stroke-dasharray:5.55,2.4;stroke-dashoffset:0;stroke-opacity:0.5;stroke-width:1.5;"/>
    </g>
    <g id="line2d_36"/>
    <g id="text_27">
     <!-- Cutoff Date -->
     <g transform="translate(557.145313 97.794688)scale(0.1 -0.1)">
      <defs>
       <path d="M 544 1381 
L 544 3500 
L 1119 3500 
L 1119 1403 
Q 1119 906 1312 657 
Q 1506 409 1894 409 
Q 2359 409 2629 706 
Q 2900 1003 2900 1516 
L 2900 3500 
L 3475 3500 
L 3475 0 
L 2900 0 
L 2900 538 
Q 2691 219 2414 64 
Q 2138 -91 1772 -91 
Q 1169 -91 856 284 
Q 544 659 544 1381 
z
M 1991 3584 
L 1991 3584 
z
" id="DejaVuSans-75" transform="scale(0.015625)"/>
       <path d="M 2375 4863 
L 2375 4384 
L 1825 4384 
Q 1516 4384 1395 4259 
Q 1275 4134 1275 3809 
L 1275 3500 
L 2222 3500 
L 2222 3053 
L 1275 3053 
L 1275 0 
L 697 0 
L 697 3053 
L 147 3053 
L 147 3500 
L 697 3500 
L 697 3744 
Q 697 4328 969 4595 
Q 1241 4863 1831 4863 
L 2375 4863 
z
" id="DejaVuSans-66" transform="scale(0.015625)"/>
      </defs>
      <use xlink:href="#DejaVuSans-43"/>
      <use x="69.824219" xlink:href="#DejaVuSans-75"/>
      <use x="133.203125" xlink:href="#DejaVuSans-74"/>
      <use x="172.412109" xlink:href="#DejaVuSans-6f"/>
      <use x="233.59375" xlink:href="#DejaVuSans-66"/>
      <use x="268.798828" xlink:href="#DejaVuSans-66"/>
      <use x="304.003906" xlink:href="#DejaVuSans-20"/>
      <use x="335.791016" xlink:href="#DejaVuSans-44"/>
      <use x="412.792969" xlink:href="#DejaVuSans-61"/>
      <use x="474.072266" xlink:href="#DejaVuSans-74"/>
      <use x="513.28125" xlink:href="#DejaVuSans-65"/>
     </g>
    </g>
    <g id="patch_8">
     <path d="M 529.145313 112.472813 
L 549.145313 112.472813 
L 549.145313 105.472813 
L 529.145313 105.472813 
z
" style="fill:#800080;opacity:0.5;"/>
    </g>
    <g id="text_28">
     <!-- 95% Confidence -->
     <g transform="translate(557.145313 112.472813)scale(0.1 -0.1)">
      <use xlink:href="#DejaVuSans-39"/>
      <use x="63.623047" xlink:href="#DejaVuSans-35"/>
      <use x="127.246094" xlink:href="#DejaVuSans-25"/>
      <use x="222.265625" xlink:href="#DejaVuSans-20"/>
      <use x="254.052734" xlink:href="#DejaVuSans-43"/>
      <use x="323.876953" xlink:href="#DejaVuSans-6f"/>
      <use x="385.058594" xlink:href="#DejaVuSans-6e"/>
      <use x="448.4375" xlink:href="#DejaVuSans-66"/>
      <use x="483.642578" xlink:href="#DejaVuSans-69"/>
      <use x="511.425781" xlink:href="#DejaVuSans-64"/>
      <use x="574.902344" xlink:href="#DejaVuSans-65"/>
      <use x="636.425781" xlink:href="#DejaVuSans-6e"/>
      <use x="699.804688" xlink:href="#DejaVuSans-63"/>
      <use x="754.785156" xlink:href="#DejaVuSans-65"/>
     </g>
    </g>
   </g>
  </g>
 </g>
 <defs>
  <clipPath id="p06da9eecfd">
   <rect height="326.16" width="558" x="90" y="51.84"/>
  </clipPath>
 </defs>
</svg>
